AsbirSerif-Thin.ufo
<glyph name="uni0025" format="2">
  <advance width="500"/>
  <unicode hex="0025"/>
  <outline>
    <contour>
      <point x="190" y="520" type="curve"/>
      <point x="190" y="550.37566125"/>
      <point x="165.37566125" y="575"/>
      <point x="135" y="575" type="curve"/>
      <point x="104.62433874999999" y="575"/>
      <point x="80" y="550.37566125"/>
      <point x="80" y="520" type="curve"/>
      <point x="80" y="489.62433875"/>
      <point x="104.62433874999999" y="465"/>
      <point x="135" y="465" type="curve"/>
      <point x="165.37566125" y="465"/>
      <point x="190" y="489.62433875"/>
    </contour>
    <contour>
      <point x="420" y="180" type="curve"/>
      <point x="420" y="210.37566125"/>
      <point x="395.37566125" y="235"/>
      <point x="365" y="235" type="curve"/>
      <point x="334.62433875" y="235"/>
      <point x="310" y="210.37566125"/>
      <point x="310" y="180" type="curve"/>
      <point x="310" y="149.62433875"/>
      <point x="334.62433875" y="125"/>
      <point x="365" y="125" type="curve"/>
      <point x="395.37566125" y="125"/>
      <point x="420" y="149.62433875"/>
    </contour>
    <contour>
      <point x="94.02041843391928" y="88.28570896019001" type="line"/>
      <point x="374.02041843391925" y="628.28570896019" type="line"/>
      <point x="405.97958156608075" y="611.71429103981" type="line"/>
      <point x="125.97958156608072" y="71.71429103980999" type="line"/>
    </contour>
  </outline>
</glyph>
<glyph name="uni0026" format="2">
  <advance width="500"/>
  <unicode hex="0026"/>
  <outline>
    <contour>
      <point x="350" y="220" type="curve"/>
      <point x="350" y="319.411255"/>
      <point x="291.7970175" y="400"/>
      <point x="220" y="400" type="curve"/>
      <point x="148.20298250000002" y="400"/>
      <point x="90" y="319.411255"/>
      <point x="90" y="220" type="curve"/>
      <point x="90" y="120.588745"/>
      <point x="148.20298250000002" y="40"/>
      <point x="220" y="40" type="curve"/>
      <point x="291.7970175" y="40"/>
      <point x="350" y="120.588745"/>
    </contour>
    <contour>
      <point x="314" y="220" type="curve"/>
      <point x="314" y="140.470996"/>
      <point x="271.9147665" y="76"/>
      <point x="220" y="76" type="curve"/>
      <point x="168.08523350000002" y="76"/>
      <point x="126" y="140.470996"/>
      <point x="126" y="220" type="curve"/>
      <point x="126" y="299.529004"/>
      <point x="168.08523350000002" y="364"/>
      <point x="220" y="364" type="curve"/>
      <point x="271.9147665" y="364"/>
      <point x="314" y="299.529004"/>
    </contour>
    <contour>
      <point x="126.20992945456241" y="587.8254831849612" type="line"/>
      <point x="406.2099294545624" y="7.825483184961165" type="line"/>
      <point x="373.7900705454376" y="-7.825483184961165" type="line"/>
      <point x="93.79007054543759" y="572.1745168150388" type="line"/>
    </contour>
    <contour>
      <point x="400" y="520" type="curve"/>
      <point x="400" y="586.27417"/>
      <point x="355.228475" y="640"/>
      <point x="300" y="640" type="curve"/>
      <point x="244.771525" y="640"/>
      <point x="200" y="586.27417"/>
      <point x="200" y="520" type="curve"/>
      <point x="200" y="453.72583"/>
      <point x="244.771525" y="400"/>
      <point x="300" y="400" type="curve"/>
      <point x="355.228475" y="400"/>
      <point x="400" y="453.72583"/>
    </contour>
  </outline>
</glyph>
<glyph name="uni0027" format="2">
  <advance width="250"/>
  <unicode hex="0027"/>
  <outline>
    <contour>
      <point x="258.2243039375823" y="558.655246194481" type="line"/>
      <point x="298.2243039375823" y="468.65524619448104" type="line"/>
      <point x="281.7756960624177" y="461.34475380551896" type="line"/>
      <point x="241.7756960624177" y="551.344753805519" type="line"/>
    </contour>
  </outline>
</glyph>
<glyph name="uni002A" format="2">
  <advance width="500"/>
  <unicode hex="002A"/>
  <outline>
    <contour>
      <point x="114.78119974544252" y="169.61187384498368" type="line"/>
      <point x="354.7811997454425" y="549.6118738449836" type="line"/>
      <point x="385.2188002545575" y="530.3881261550164" type="line"/>
      <point x="145.2188002545575" y="150.38812615501632" type="line"/>
    </contour>
    <contour>
      <point x="354.7811997454425" y="150.38812615501632" type="line"/>
      <point x="114.78119974544252" y="530.3881261550164" type="line"/>
      <point x="145.2188002545575" y="549.6118738449836" type="line"/>
      <point x="385.2188002545575" y="169.61187384498368" type="line"/>
    </contour>
    <contour>
      <point x="90" y="330" type="line"/>
      <point x="410" y="330" type="line"/>
      <point x="410" y="366" type="line"/>
      <point x="90" y="366" type="line"/>
    </contour>
  </outline>
</glyph>
<glyph name="uni0030" format="2">
  <advance width="500"/>
  <unicode hex="0030"/>
  <outline>
    <contour>
      <point x="430" y="350" type="curve"/>
      <point x="430" y="543.2996625000001"/>
      <point x="349.411255" y="700"/>
      <point x="250" y="700" type="curve"/>
      <point x="150.58874500000002" y="700"/>
      <point x="70" y="543.2996625000001"/>
      <point x="70" y="350" type="curve"/>
      <point x="70" y="156.7003375"/>
      <point x="150.58874500000002" y="0"/>
      <point x="250" y="0" type="curve"/>
      <point x="349.411255" y="0"/>
      <point x="430" y="156.7003375"/>
    </contour>
    <contour>
      <point x="406" y="350" type="curve"/>
      <point x="406" y="169.9551715"/>
      <point x="336.156421" y="24"/>
      <point x="250" y="24" type="curve"/>
      <point x="163.843579" y="24"/>
      <point x="94" y="169.9551715"/>
      <point x="94" y="350" type="curve"/>
      <point x="94" y="530.0448285"/>
      <point x="163.843579" y="676"/>
      <point x="250" y="676" type="curve"/>
      <point x="336.156421" y="676"/>
      <point x="406" y="530.0448285"/>
    </contour>
    <contour>
      <point x="80" y="0" type="line"/>
      <point x="160" y="0" type="line"/>
      <point x="160" y="18" type="line"/>
      <point x="80" y="18" type="line"/>
    </contour>
    <contour>
      <point x="340" y="0" type="line"/>
      <point x="420" y="0" type="line"/>
      <point x="420" y="18" type="line"/>
      <point x="340" y="18" type="line"/>
    </contour>
  </outline>
</glyph>
<glyph name="uni0031" format="2">
  <advance width="500"/>
  <unicode hex="0031"/>
  <outline>
    <contour>
      <point x="224.72" y="0" type="curve"/>
      <point x="235.28" y="0" type="line"/>
      <point x="238.99135352" y="0"/>
      <point x="242" y="3.0086464800000003"/>
      <point x="242" y="6.720000000000001" type="curve"/>
      <point x="242" y="693.28" type="line"/>
      <point x="242" y="696.99135352"/>
      <point x="238.99135352" y="700"/>
      <point x="235.28" y="700" type="curve"/>
      <point x="224.72" y="700" type="line"/>
      <point x="221.00864648" y="700"/>
      <point x="218" y="696.99135352"/>
      <point x="218" y="693.28" type="curve"/>
      <point x="218" y="6.720000000000001" type="line"/>
      <point x="218" y="3.0086464800000003"/>
      <point x="221.00864648" y="0"/>
    </contour>
    <contour>
      <point x="95.66219843946803" y="567.5369398310008" type="line"/>
      <point x="208.66219843946803" y="707.5369398310008" type="line"/>
      <point x="227.33780156053197" y="692.4630601689992" type="line"/>
      <point x="114.33780156053197" y="552.4630601689992" type="line"/>
    </contour>
    <contour>
      <point x="80" y="0" type="line"/>
      <point x="160" y="0" type="line"/>
      <point x="160" y="18" type="line"/>
      <point x="80" y="18" type="line"/>
    </contour>
    <contour>
      <point x="340" y="0" type="line"/>
      <point x="420" y="0" type="line"/>
      <point x="420" y="18" type="line"/>
      <point x="340" y="18" type="line"/>
    </contour>
  </outline>
</glyph>
<glyph name="uni0033" format="2">
  <advance width="500"/>
  <unicode hex="0033"/>
  <outline>
    <contour>
      <point x="410.6" y="697.6" type="line"/>
      <point x="283.8" y="701.92"/>
      <point x="84.6" y="698.08"/>
      <point x="83.4" y="434.0" type="curve"/>
      <point x="82.2" y="357.0"/>
      <point x="229.72" y="351.92"/>
      <point x="246.62" y="350" type="curve"/>
      <point x="283.8" y="266.0"/>
      <point x="418.04" y="329.0"/>
      <point x="417.08" y="203.0" type="curve"/>
      <point x="416.12" y="1.2000000000000002"/>
      <point x="209.44" y="-1.44"/>
      <point x="82.2" y="3.3600000000000003" type="curve"/>
      <point x="84.84" y="23.52" type="line"/>
      <point x="216.2" y="14.879999999999999"/>
      <point x="403.4" y="20.4"/>
      <point x="405.08" y="189.0" type="curve"/>
      <point x="406.04" y="315.0"/>
      <point x="266.9" y="308.0"/>
      <point x="236.48" y="350.72" type="curve"/>
      <point x="192.54" y="353.6"/>
      <point x="92.04" y="352.88"/>
      <point x="93.48" y="448.0" type="curve"/>
      <point x="94.92" y="685.12"/>
      <point x="277.04" y="689.2"/>
      <point x="411.32" y="676.48" type="curve"/>
    </contour>
    <contour>
      <point x="240.76" y="316" type="curve"/>
      <point x="349.24" y="316" type="line"/>
      <point x="352.42116016" y="316"/>
      <point x="355" y="318.57883984"/>
      <point x="355" y="321.76" type="curve"/>
      <point x="355" y="334.24" type="line"/>
      <point x="355" y="337.42116016"/>
      <point x="352.42116016" y="340"/>
      <point x="349.24" y="340" type="curve"/>
      <point x="240.76" y="340" type="line"/>
      <point x="237.57883984" y="340"/>
      <point x="235" y="337.42116016"/>
      <point x="235" y="334.24" type="curve"/>
      <point x="235" y="321.76" type="line"/>
      <point x="235" y="318.57883984"/>
      <point x="237.57883984" y="316"/>
    </contour>
    <contour>
      <point x="80" y="0" type="line"/>
      <point x="160" y="0" type="line"/>
      <point x="160" y="18" type="line"/>
      <point x="80" y="18" type="line"/>
    </contour>
    <contour>
      <point x="340" y="0" type="line"/>
      <point x="420" y="0" type="line"/>
      <point x="420" y="18" type="line"/>
      <point x="340" y="18" type="line"/>
    </contour>
  </outline>
</glyph>
<glyph name="uni0034" format="2">
  <advance width="500"/>
  <unicode hex="0034"/>
  <outline>
    <contour>
      <point x="332.72" y="0" type="curve"/>
      <point x="343.28" y="0" type="line"/>
      <point x="346.99135351999996" y="0"/>
      <point x="350" y="3.0086464800000003"/>
      <point x="350" y="6.720000000000001" type="curve"/>
      <point x="350" y="693.28" type="line"/>
      <point x="350" y="696.99135352"/>
      <point x="346.99135351999996" y="700"/>
      <point x="343.28" y="700" type="curve"/>
      <point x="332.72" y="700" type="line"/>
      <point x="329.00864648000004" y="700"/>
      <point x="326" y="696.99135352"/>
      <point x="326" y="693.28" type="curve"/>
      <point x="326" y="6.720000000000001" type="line"/>
      <point x="326" y="3.0086464800000003"/>
      <point x="329.00864648000004" y="0"/>
    </contour>
    <contour>
      <point x="68.8766382413221" y="284.5023130927982" type="line"/>
      <point x="238.8766382413221" y="704.5023130927982" type="line"/>
      <point x="261.1233617586779" y="695.4976869072018" type="line"/>
      <point x="91.1233617586779" y="275.4976869072018" type="line"/>
    </contour>
    <contour>
      <point x="85.76" y="280" type="curve"/>
      <point x="404.24" y="280" type="line"/>
      <point x="407.42116016" y="280"/>
      <point x="410" y="282.57883984"/>
      <point x="410" y="285.76" type="curve"/>
      <point x="410" y="298.24" type="line"/>
      <point x="410" y="301.42116016"/>
      <point x="407.42116016" y="304"/>
      <point x="404.24" y="304" type="curve"/>
      <point x="85.76" y="304" type="line"/>
      <point x="82.57883984" y="304"/>
      <point x="80" y="301.42116016"/>
      <point x="80" y="298.24" type="curve"/>
      <point x="80" y="285.76" type="line"/>
      <point x="80" y="282.57883984"/>
      <point x="82.57883984" y="280"/>
    </contour>
    <contour>
      <point x="80" y="0" type="line"/>
      <point x="160" y="0" type="line"/>
      <point x="160" y="18" type="line"/>
      <point x="80" y="18" type="line"/>
    </contour>
    <contour>
      <point x="340" y="0" type="line"/>
      <point x="420" y="0" type="line"/>
      <point x="420" y="18" type="line"/>
      <point x="340" y="18" type="line"/>
    </contour>
  </outline>
</glyph>
<glyph name="uni0036" format="2">
  <advance width="500"/>
  <unicode hex="0036"/>
  <outline>
    <contour>
      <point x="425" y="190" type="curve"/>
      <point x="425" y="294.9341025"/>
      <point x="346.64983125000003" y="380"/>
      <point x="250" y="380" type="curve"/>
      <point x="153.35016875" y="380"/>
      <point x="75" y="294.9341025"/>
      <point x="75" y="190" type="curve"/>
      <point x="75" y="85.0658975"/>
      <point x="153.35016875" y="0"/>
      <point x="250" y="0" type="curve"/>
      <point x="346.64983125000003" y="0"/>
      <point x="425" y="85.0658975"/>
    </contour>
    <contour>
      <point x="401" y="190" type="curve"/>
      <point x="401" y="98.32073150000001"/>
      <point x="333.39499725" y="24"/>
      <point x="250" y="24" type="curve"/>
      <point x="166.60500274999998" y="24"/>
      <point x="99" y="98.32073150000001"/>
      <point x="99" y="190" type="curve"/>
      <point x="99" y="281.6792685"/>
      <point x="166.60500274999998" y="356"/>
      <point x="250" y="356" type="curve"/>
      <point x="333.39499725" y="356"/>
      <point x="401" y="281.6792685"/>
    </contour>
    <contour>
      <point x="75" y="190" type="line"/>
      <point x="75" y="505"/>
      <point x="188" y="710"/>
      <point x="352" y="710" type="curve"/>
      <point x="385" y="646" type="line"/>
      <point x="250" y="636"/>
      <point x="139" y="492"/>
      <point x="139" y="220" type="curve"/>
    </contour>
    <contour>
      <point x="80" y="0" type="line"/>
      <point x="160" y="0" type="line"/>
      <point x="160" y="18" type="line"/>
      <point x="80" y="18" type="line"/>
    </contour>
    <contour>
      <point x="340" y="0" type="line"/>
      <point x="420" y="0" type="line"/>
      <point x="420" y="18" type="line"/>
      <point x="340" y="18" type="line"/>
    </contour>
  </outline>
</glyph>
<glyph name="uni0037" format="2">
  <advance width="500"/>
  <unicode hex="0037"/>
  <outline>
    <contour>
      <point x="75.76" y="676" type="curve"/>
      <point x="424.24" y="676" type="line"/>
      <point x="427.42116016" y="676"/>
      <point x="430" y="678.57883984"/>
      <point x="430" y="681.76" type="curve"/>
      <point x="430" y="694.24" type="line"/>
      <point x="430" y="697.42116016"/>
      <point x="427.42116016" y="700"/>
      <point x="424.24" y="700" type="curve"/>
      <point x="75.76" y="700" type="line"/>
      <point x="72.57883984" y="700"/>
      <point x="70" y="697.42116016"/>
      <point x="70" y="694.24" type="curve"/>
      <point x="70" y="681.76" type="line"/>
      <point x="70" y="678.57883984"/>
      <point x="72.57883984" y="676"/>
    </contour>
    <contour>
      <point x="421.3304021773493" y="684.0475341241805" type="line"/>
      <point x="181.33040217734933" y="-3.952465875819529" type="line"/>
      <point x="158.66959782265067" y="3.952465875819529" type="line"/>
      <point x="398.6695978226507" y="691.9524658758195" type="line"/>
    </contour>
    <contour>
      <point x="80" y="0" type="line"/>
      <point x="160" y="0" type="line"/>
      <point x="160" y="18" type="line"/>
      <point x="80" y="18" type="line"/>
    </contour>
    <contour>
      <point x="340" y="0" type="line"/>
      <point x="420" y="0" type="line"/>
      <point x="420" y="18" type="line"/>
      <point x="340" y="18" type="line"/>
    </contour>
  </outline>
</glyph>
<glyph name="uni0038" format="2">
  <advance width="500"/>
  <unicode hex="0038"/>
  <outline>
    <contour>
      <point x="415" y="525" type="curve"/>
      <point x="415" y="613.36556"/>
      <point x="341.12698375" y="685"/>
      <point x="250" y="685" type="curve"/>
      <point x="158.87301625" y="685"/>
      <point x="85" y="613.36556"/>
      <point x="85" y="525" type="curve"/>
      <point x="85" y="436.63444"/>
      <point x="158.87301625" y="365"/>
      <point x="250" y="365" type="curve"/>
      <point x="341.12698375" y="365"/>
      <point x="415" y="436.63444"/>
    </contour>
    <contour>
      <point x="391" y="525" type="curve"/>
      <point x="391" y="449.889274"/>
      <point x="327.87214975" y="389"/>
      <point x="250" y="389" type="curve"/>
      <point x="172.12785025" y="389"/>
      <point x="109" y="449.889274"/>
      <point x="109" y="525" type="curve"/>
      <point x="109" y="600.110726"/>
      <point x="172.12785025" y="661"/>
      <point x="250" y="661" type="curve"/>
      <point x="327.87214975" y="661"/>
      <point x="391" y="600.110726"/>
    </contour>
    <contour>
      <point x="415" y="175" type="curve"/>
      <point x="415" y="263.36556"/>
      <point x="341.12698375" y="335"/>
      <point x="250" y="335" type="curve"/>
      <point x="158.87301625" y="335"/>
      <point x="85" y="263.36556"/>
      <point x="85" y="175" type="curve"/>
      <point x="85" y="86.63444"/>
      <point x="158.87301625" y="15"/>
      <point x="250" y="15" type="curve"/>
      <point x="341.12698375" y="15"/>
      <point x="415" y="86.63444"/>
    </contour>
    <contour>
      <point x="391" y="175" type="curve"/>
      <point x="391" y="99.889274"/>
      <point x="327.87214975" y="39"/>
      <point x="250" y="39" type="curve"/>
      <point x="172.12785025" y="39"/>
      <point x="109" y="99.889274"/>
      <point x="109" y="175" type="curve"/>
      <point x="109" y="250.110726"/>
      <point x="172.12785025" y="311"/>
      <point x="250" y="311" type="curve"/>
      <point x="327.87214975" y="311"/>
      <point x="391" y="250.110726"/>
    </contour>
    <contour>
      <point x="80" y="0" type="line"/>
      <point x="160" y="0" type="line"/>
      <point x="160" y="18" type="line"/>
      <point x="80" y="18" type="line"/>
    </contour>
    <contour>
      <point x="340" y="0" type="line"/>
      <point x="420" y="0" type="line"/>
      <point x="420" y="18" type="line"/>
      <point x="340" y="18" type="line"/>
    </contour>
  </outline>
</glyph>
<glyph name="uni0039" format="2">
  <advance width="500"/>
  <unicode hex="0039"/>
  <outline>
    <contour>
      <point x="425" y="510" type="curve"/>
      <point x="425" y="614.9341025"/>
      <point x="346.64983125000003" y="700"/>
      <point x="250" y="700" type="curve"/>
      <point x="153.35016875" y="700"/>
      <point x="75" y="614.9341025"/>
      <point x="75" y="510" type="curve"/>
      <point x="75" y="405.0658975"/>
      <point x="153.35016875" y="320"/>
      <point x="250" y="320" type="curve"/>
      <point x="346.64983125000003" y="320"/>
      <point x="425" y="405.0658975"/>
    </contour>
    <contour>
      <point x="401" y="510" type="curve"/>
      <point x="401" y="418.3207315"/>
      <point x="333.39499725" y="344"/>
      <point x="250" y="344" type="curve"/>
      <point x="166.60500274999998" y="344"/>
      <point x="99" y="418.3207315"/>
      <point x="99" y="510" type="curve"/>
      <point x="99" y="601.6792685"/>
      <point x="166.60500274999998" y="676"/>
      <point x="250" y="676" type="curve"/>
      <point x="333.39499725" y="676"/>
      <point x="401" y="601.6792685"/>
    </contour>
    <contour>
      <point x="425" y="510" type="line"/>
      <point x="425" y="194"/>
      <point x="312" y="-10"/>
      <point x="148" y="-10" type="curve"/>
      <point x="115" y="54" type="line"/>
      <point x="250" y="64"/>
      <point x="361" y="208"/>
      <point x="361" y="480" type="curve"/>
    </contour>
    <contour>
      <point x="80" y="0" type="line"/>
      <point x="160" y="0" type="line"/>
      <point x="160" y="18" type="line"/>
      <point x="80" y="18" type="line"/>
    </contour>
    <contour>
      <point x="340" y="0" type="line"/>
      <point x="420" y="0" type="line"/>
      <point x="420" y="18" type="line"/>
      <point x="340" y="18" type="line"/>
    </contour>
  </outline>
</glyph>
<glyph name="uni003A" format="2">
  <advance width="250"/>
  <unicode hex="003A"/>
  <outline>
    <contour>
      <point x="268.0" y="390" type="curve"/>
      <point x="268.0" y="399.9411255"/>
      <point x="259.9411255" y="408.0"/>
      <point x="250" y="408.0" type="curve"/>
      <point x="240.0588745" y="408.0"/>
      <point x="232.0" y="399.9411255"/>
      <point x="232.0" y="390" type="curve"/>
      <point x="232.0" y="380.0588745"/>
      <point x="240.0588745" y="372.0"/>
      <point x="250" y="372.0" type="curve"/>
      <point x="259.9411255" y="372.0"/>
      <point x="268.0" y="380.0588745"/>
    </contour>
    <contour>
      <point x="268.0" y="35" type="curve"/>
      <point x="268.0" y="44.9411255"/>
      <point x="259.9411255" y="53.0"/>
      <point x="250" y="53.0" type="curve"/>
      <point x="240.0588745" y="53.0"/>
      <point x="232.0" y="44.9411255"/>
      <point x="232.0" y="35" type="curve"/>
      <point x="232.0" y="25.0588745"/>
      <point x="240.0588745" y="17.0"/>
      <point x="250" y="17.0" type="curve"/>
      <point x="259.9411255" y="17.0"/>
      <point x="268.0" y="25.0588745"/>
    </contour>
  </outline>
</glyph>
<glyph name="A" format="2">
  <advance width="540"/>
  <unicode hex="0041"/>
  <outline>
    <contour>
      <point x="60.25954239862733" y="2.4822681785759357" type="line"/>
      <point x="208.25954239862733" y="702.482268178576" type="line"/>
      <point x="231.74045760137267" y="697.517731821424" type="line"/>
      <point x="83.74045760137267" y="-2.4822681785759357" type="line"/>
    </contour>
    <contour>
      <point x="416.25954239862733" y="-2.4822681785759357" type="line"/>
      <point x="268.25954239862733" y="697.517731821424" type="line"/>
      <point x="291.74045760137267" y="702.482268178576" type="line"/>
      <point x="439.74045760137267" y="2.4822681785759357" type="line"/>
    </contour>
    <contour>
      <point x="156.28" y="286" type="curve"/>
      <point x="343.72" y="286" type="line"/>
      <point x="346.63606348" y="286"/>
      <point x="349" y="288.36393652"/>
      <point x="349" y="291.28" type="curve"/>
      <point x="349" y="300.40000000000003" type="line"/>
      <point x="349" y="303.31606348"/>
      <point x="346.63606348" y="305.68"/>
      <point x="343.72" y="305.68" type="curve"/>
      <point x="156.28" y="305.68" type="line"/>
      <point x="153.36393652" y="305.68"/>
      <point x="151" y="303.31606348"/>
      <point x="151" y="300.40000000000003" type="curve"/>
      <point x="151" y="291.28" type="line"/>
      <point x="151" y="288.36393652"/>
      <point x="153.36393652" y="286"/>
    </contour>
    <contour>
      <point x="18" y="0" type="line"/>
      <point x="138" y="0" type="line"/>
      <point x="138" y="18" type="line"/>
      <point x="18" y="18" type="line"/>
    </contour>
    <contour>
      <point x="18" y="682" type="line"/>
      <point x="138" y="682" type="line"/>
      <point x="138" y="700" type="line"/>
      <point x="18" y="700" type="line"/>
    </contour>
    <contour>
      <point x="362" y="0" type="line"/>
      <point x="482" y="0" type="line"/>
      <point x="482" y="18" type="line"/>
      <point x="362" y="18" type="line"/>
    </contour>
    <contour>
      <point x="362" y="682" type="line"/>
      <point x="482" y="682" type="line"/>
      <point x="482" y="700" type="line"/>
      <point x="362" y="700" type="line"/>
    </contour>
  </outline>
</glyph>
<glyph name="B" format="2">
  <advance width="540"/>
  <unicode hex="0042"/>
  <outline>
    <contour>
      <point x="40" y="0" type="line"/>
      <point x="64" y="0" type="line"/>
      <point x="64" y="700" type="line"/>
      <point x="40" y="700" type="line"/>
    </contour>
    <contour>
      <point x="435" y="525" type="curve"/>
      <point x="435" y="613.36556"/>
      <point x="349.9341025" y="685"/>
      <point x="245" y="685" type="curve"/>
      <point x="140.0658975" y="685"/>
      <point x="55" y="613.36556"/>
      <point x="55" y="525" type="curve"/>
      <point x="55" y="436.63444"/>
      <point x="140.0658975" y="365"/>
      <point x="245" y="365" type="curve"/>
      <point x="349.9341025" y="365"/>
      <point x="435" y="436.63444"/>
    </contour>
    <contour>
      <point x="411" y="525" type="curve"/>
      <point x="411" y="449.889274"/>
      <point x="336.6792685" y="389"/>
      <point x="245" y="389" type="curve"/>
      <point x="153.32073150000002" y="389"/>
      <point x="79" y="449.889274"/>
      <point x="79" y="525" type="curve"/>
      <point x="79" y="600.110726"/>
      <point x="153.32073150000002" y="661"/>
      <point x="245" y="661" type="curve"/>
      <point x="336.6792685" y="661"/>
      <point x="411" y="600.110726"/>
    </contour>
    <contour>
      <point x="435" y="175" type="curve"/>
      <point x="435" y="263.36556"/>
      <point x="349.9341025" y="335"/>
      <point x="245" y="335" type="curve"/>
      <point x="140.0658975" y="335"/>
      <point x="55" y="263.36556"/>
      <point x="55" y="175" type="curve"/>
      <point x="55" y="86.63444"/>
      <point x="140.0658975" y="15"/>
      <point x="245" y="15" type="curve"/>
      <point x="349.9341025" y="15"/>
      <point x="435" y="86.63444"/>
    </contour>
    <contour>
      <point x="411" y="175" type="curve"/>
      <point x="411" y="99.889274"/>
      <point x="336.6792685" y="39"/>
      <point x="245" y="39" type="curve"/>
      <point x="153.32073150000002" y="39"/>
      <point x="79" y="99.889274"/>
      <point x="79" y="175" type="curve"/>
      <point x="79" y="250.110726"/>
      <point x="153.32073150000002" y="311"/>
      <point x="245" y="311" type="curve"/>
      <point x="336.6792685" y="311"/>
      <point x="411" y="250.110726"/>
    </contour>
    <contour>
      <point x="18" y="0" type="line"/>
      <point x="138" y="0" type="line"/>
      <point x="138" y="18" type="line"/>
      <point x="18" y="18" type="line"/>
    </contour>
    <contour>
      <point x="18" y="682" type="line"/>
      <point x="138" y="682" type="line"/>
      <point x="138" y="700" type="line"/>
      <point x="18" y="700" type="line"/>
    </contour>
    <contour>
      <point x="362" y="0" type="line"/>
      <point x="482" y="0" type="line"/>
      <point x="482" y="18" type="line"/>
      <point x="362" y="18" type="line"/>
    </contour>
    <contour>
      <point x="362" y="682" type="line"/>
      <point x="482" y="682" type="line"/>
      <point x="482" y="700" type="line"/>
      <point x="362" y="700" type="line"/>
    </contour>
  </outline>
</glyph>
<glyph name="F" format="2">
  <advance width="540"/>
  <unicode hex="0046"/>
  <outline>
    <contour>
      <point x="40" y="0" type="line"/>
      <point x="64" y="0" type="line"/>
      <point x="64" y="700" type="line"/>
      <point x="40" y="700" type="line"/>
    </contour>
    <contour>
      <point x="40" y="676" type="line"/>
      <point x="430" y="676" type="line"/>
      <point x="430" y="700" type="line"/>
      <point x="40" y="700" type="line"/>
    </contour>
    <contour>
      <point x="40" y="310" type="line"/>
      <point x="310" y="310" type="line"/>
      <point x="310" y="334" type="line"/>
      <point x="40" y="334" type="line"/>
    </contour>
    <contour>
      <point x="18" y="0" type="line"/>
      <point x="138" y="0" type="line"/>
      <point x="138" y="18" type="line"/>
      <point x="18" y="18" type="line"/>
    </contour>
    <contour>
      <point x="18" y="682" type="line"/>
      <point x="138" y="682" type="line"/>
      <point x="138" y="700" type="line"/>
      <point x="18" y="700" type="line"/>
    </contour>
    <contour>
      <point x="362" y="0" type="line"/>
      <point x="482" y="0" type="line"/>
      <point x="482" y="18" type="line"/>
      <point x="362" y="18" type="line"/>
    </contour>
    <contour>
      <point x="362" y="682" type="line"/>
      <point x="482" y="682" type="line"/>
      <point x="482" y="700" type="line"/>
      <point x="362" y="700" type="line"/>
    </contour>
  </outline>
</glyph>
<glyph name="G" format="2">
  <advance width="540"/>
  <unicode hex="0047"/>
  <outline>
    <contour>
      <point x="419.48" y="588.0" type="line"/>
      <point x="353.76" y="700"/>
      <point x="162.96" y="700"/>
      <point x="40" y="500.5" type="curve"/>
      <point x="40" y="199.5"/>
      <point x="162.96" y="0"/>
      <point x="353.76" y="0" type="curve"/>
      <point x="406.76" y="87.5"/>
      <point x="419.48" y="147.0"/>
      <point x="419.48" y="175.0" type="curve"/>
      <point x="400.52" y="213.5" type="line"/>
      <point x="332.56" y="24"/>
      <point x="64" y="238.0"/>
      <point x="64" y="350" type="curve"/>
      <point x="64" y="462.0"/>
      <point x="332.56" y="676"/>
      <point x="400.52" y="486.5" type="curve"/>
    </contour>
    <contour>
      <point x="256.72" y="294" type="curve"/>
      <point x="433.28" y="294" type="line"/>
      <point x="436.99135351999996" y="294"/>
      <point x="440" y="297.00864648000004"/>
      <point x="440" y="300.72" type="curve"/>
      <point x="440" y="311.28" type="line"/>
      <point x="440" y="314.99135351999996"/>
      <point x="436.99135351999996" y="318"/>
      <point x="433.28" y="318" type="curve"/>
      <point x="256.72" y="318" type="line"/>
      <point x="253.00864648000004" y="318"/>
      <point x="250" y="314.99135351999996"/>
      <point x="250" y="311.28" type="curve"/>
      <point x="250" y="300.72" type="line"/>
      <point x="250" y="297.00864648000004"/>
      <point x="253.00864648000004" y="294"/>
    </contour>
    <contour>
      <point x="382.72" y="132" type="curve"/>
      <point x="393.28" y="132" type="line"/>
      <point x="396.99135351999996" y="132"/>
      <point x="400" y="135.00864648"/>
      <point x="400" y="138.72" type="curve"/>
      <point x="400" y="293.28" type="line"/>
      <point x="400" y="296.99135351999996"/>
      <point x="396.99135351999996" y="300"/>
      <point x="393.28" y="300" type="curve"/>
      <point x="382.72" y="300" type="line"/>
      <point x="379.00864648000004" y="300"/>
      <point x="376" y="296.99135351999996"/>
      <point x="376" y="293.28" type="curve"/>
      <point x="376" y="138.72" type="line"/>
      <point x="376" y="135.00864648"/>
      <point x="379.00864648000004" y="132"/>
    </contour>
    <contour>
      <point x="18" y="0" type="line"/>
      <point x="138" y="0" type="line"/>
      <point x="138" y="18" type="line"/>
      <point x="18" y="18" type="line"/>
    </contour>
    <contour>
      <point x="18" y="682" type="line"/>
      <point x="138" y="682" type="line"/>
      <point x="138" y="700" type="line"/>
      <point x="18" y="700" type="line"/>
    </contour>
    <contour>
      <point x="362" y="0" type="line"/>
      <point x="482" y="0" type="line"/>
      <point x="482" y="18" type="line"/>
      <point x="362" y="18" type="line"/>
    </contour>
    <contour>
      <point x="362" y="682" type="line"/>
      <point x="482" y="682" type="line"/>
      <point x="482" y="700" type="line"/>
      <point x="362" y="700" type="line"/>
    </contour>
  </outline>
</glyph>
<glyph name="I" format="2">
  <advance width="290"/>
  <unicode hex="0049"/>
  <outline>
    <contour>
      <point x="218" y="0" type="line"/>
      <point x="242" y="0" type="line"/>
      <point x="242" y="700" type="line"/>
      <point x="218" y="700" type="line"/>
    </contour>
    <contour>
      <point x="18" y="0" type="line"/>
      <point x="138" y="0" type="line"/>
      <point x="138" y="18" type="line"/>
      <point x="18" y="18" type="line"/>
    </contour>
    <contour>
      <point x="18" y="682" type="line"/>
      <point x="138" y="682" type="line"/>
      <point x="138" y="700" type="line"/>
      <point x="18" y="700" type="line"/>
    </contour>
    <contour>
      <point x="362" y="0" type="line"/>
      <point x="482" y="0" type="line"/>
      <point x="482" y="18" type="line"/>
      <point x="362" y="18" type="line"/>
    </contour>
    <contour>
      <point x="362" y="682" type="line"/>
      <point x="482" y="682" type="line"/>
      <point x="482" y="700" type="line"/>
      <point x="362" y="700" type="line"/>
    </contour>
  </outline>
</glyph>
<glyph name="J" format="2">
  <advance width="540"/>
  <unicode hex="004A"/>
  <outline>
    <contour>
      <point x="351.72" y="150" type="curve"/>
      <point x="362.28" y="150" type="line"/>
      <point x="365.99135351999996" y="150"/>
      <point x="369" y="153.00864648"/>
      <point x="369" y="156.72" type="curve"/>
      <point x="369" y="693.28" type="line"/>
      <point x="369" y="696.99135352"/>
      <point x="365.99135351999996" y="700"/>
      <point x="362.28" y="700" type="curve"/>
      <point x="351.72" y="700" type="line"/>
      <point x="348.00864648000004" y="700"/>
      <point x="345" y="696.99135352"/>
      <point x="345" y="693.28" type="curve"/>
      <point x="345" y="156.72" type="line"/>
      <point x="345" y="153.00864648"/>
      <point x="348.00864648000004" y="150"/>
    </contour>
    <contour>
      <point x="409" y="150" type="line"/>
      <point x="409" y="42"/>
      <point x="328" y="-8"/>
      <point x="218" y="-8" type="curve"/>
      <point x="110" y="-8"/>
      <point x="48" y="47"/>
      <point x="48" y="160" type="curve"/>
      <point x="112" y="160" type="line"/>
      <point x="112" y="85"/>
      <point x="147" y="54"/>
      <point x="218" y="54" type="curve"/>
      <point x="286" y="54"/>
      <point x="345" y="83"/>
      <point x="345" y="150" type="curve"/>
    </contour>
    <contour>
      <point x="18" y="0" type="line"/>
      <point x="138" y="0" type="line"/>
      <point x="138" y="18" type="line"/>
      <point x="18" y="18" type="line"/>
    </contour>
    <contour>
      <point x="18" y="682" type="line"/>
      <point x="138" y="682" type="line"/>
      <point x="138" y="700" type="line"/>
      <point x="18" y="700" type="line"/>
    </contour>
    <contour>
      <point x="362" y="0" type="line"/>
      <point x="482" y="0" type="line"/>
      <point x="482" y="18" type="line"/>
      <point x="362" y="18" type="line"/>
    </contour>
    <contour>
      <point x="362" y="682" type="line"/>
      <point x="482" y="682" type="line"/>
      <point x="482" y="700" type="line"/>
      <point x="362" y="700" type="line"/>
    </contour>
  </outline>
</glyph>
<glyph name="K" format="2">
  <advance width="540"/>
  <unicode hex="004B"/>
  <outline>
    <contour>
      <point x="40" y="0" type="line"/>
      <point x="64" y="0" type="line"/>
      <point x="64" y="700" type="line"/>
      <point x="40" y="700" type="line"/>
    </contour>
    <contour>
      <point x="438.7810016591973" y="691.821124168862" type="line"/>
      <point x="112.7810016591973" y="341.82112416886196" type="line"/>
      <point x="95.2189983408027" y="358.17887583113804" type="line"/>
      <point x="421.2189983408027" y="708.178875831138" type="line"/>
    </contour>
    <contour>
      <point x="112.65664785237142" y="358.3103819382766" type="line"/>
      <point x="448.6566478523714" y="8.310381938276562" type="line"/>
      <point x="431.3433521476286" y="-8.310381938276562" type="line"/>
      <point x="95.34335214762858" y="341.6896180617234" type="line"/>
    </contour>
    <contour>
      <point x="18" y="0" type="line"/>
      <point x="138" y="0" type="line"/>
      <point x="138" y="18" type="line"/>
      <point x="18" y="18" type="line"/>
    </contour>
    <contour>
      <point x="18" y="682" type="line"/>
      <point x="138" y="682" type="line"/>
      <point x="138" y="700" type="line"/>
      <point x="18" y="700" type="line"/>
    </contour>
    <contour>
      <point x="362" y="0" type="line"/>
      <point x="482" y="0" type="line"/>
      <point x="482" y="18" type="line"/>
      <point x="362" y="18" type="line"/>
    </contour>
    <contour>
      <point x="362" y="682" type="line"/>
      <point x="482" y="682" type="line"/>
      <point x="482" y="700" type="line"/>
      <point x="362" y="700" type="line"/>
    </contour>
  </outline>
</glyph>
<glyph name="M" format="2">
  <advance width="600"/>
  <unicode hex="004D"/>
  <outline>
    <contour>
      <point x="40" y="0" type="line"/>
      <point x="64" y="0" type="line"/>
      <point x="64" y="700" type="line"/>
      <point x="40" y="700" type="line"/>
    </contour>
    <contour>
      <point x="430" y="0" type="line"/>
      <point x="454" y="0" type="line"/>
      <point x="454" y="700" type="line"/>
      <point x="430" y="700" type="line"/>
    </contour>
    <contour>
      <point x="115.07504979859623" y="704.6198779159859" type="line"/>
      <point x="261.07504979859624" y="354.61987791598585" type="line"/>
      <point x="238.9249502014038" y="345.38012208401415" type="line"/>
      <point x="92.92495020140377" y="695.3801220840141" type="line"/>
    </contour>
    <contour>
      <point x="407.07504979859624" y="695.3801220840141" type="line"/>
      <point x="261.07504979859624" y="345.38012208401415" type="line"/>
      <point x="238.9249502014038" y="354.61987791598585" type="line"/>
      <point x="384.92495020140376" y="704.6198779159859" type="line"/>
    </contour>
    <contour>
      <point x="18" y="0" type="line"/>
      <point x="138" y="0" type="line"/>
      <point x="138" y="18" type="line"/>
      <point x="18" y="18" type="line"/>
    </contour>
    <contour>
      <point x="18" y="682" type="line"/>
      <point x="138" y="682" type="line"/>
      <point x="138" y="700" type="line"/>
      <point x="18" y="700" type="line"/>
    </contour>
    <contour>
      <point x="362" y="0" type="line"/>
      <point x="482" y="0" type="line"/>
      <point x="482" y="18" type="line"/>
      <point x="362" y="18" type="line"/>
    </contour>
    <contour>
      <point x="362" y="682" type="line"/>
      <point x="482" y="682" type="line"/>
      <point x="482" y="700" type="line"/>
      <point x="362" y="700" type="line"/>
    </contour>
  </outline>
</glyph>
<glyph name="N" format="2">
  <advance width="540"/>
  <unicode hex="004E"/>
  <outline>
    <contour>
      <point x="40" y="0" type="line"/>
      <point x="64" y="0" type="line"/>
      <point x="64" y="700" type="line"/>
      <point x="40" y="700" type="line"/>
    </contour>
    <contour>
      <point x="396" y="0" type="line"/>
      <point x="420" y="0" type="line"/>
      <point x="420" y="700" type="line"/>
      <point x="396" y="700" type="line"/>
    </contour>
    <contour>
      <point x="115.07504979859623" y="704.6198779159859" type="line"/>
      <point x="407.07504979859624" y="4.619877915985853" type="line"/>
      <point x="384.92495020140376" y="-4.619877915985853" type="line"/>
      <point x="92.92495020140377" y="695.3801220840141" type="line"/>
    </contour>
    <contour>
      <point x="18" y="0" type="line"/>
      <point x="138" y="0" type="line"/>
      <point x="138" y="18" type="line"/>
      <point x="18" y="18" type="line"/>
    </contour>
    <contour>
      <point x="18" y="682" type="line"/>
      <point x="138" y="682" type="line"/>
      <point x="138" y="700" type="line"/>
      <point x="18" y="700" type="line"/>
    </contour>
    <contour>
      <point x="362" y="0" type="line"/>
      <point x="482" y="0" type="line"/>
      <point x="482" y="18" type="line"/>
      <point x="362" y="18" type="line"/>
    </contour>
    <contour>
      <point x="362" y="682" type="line"/>
      <point x="482" y="682" type="line"/>
      <point x="482" y="700" type="line"/>
      <point x="362" y="700" type="line"/>
    </contour>
  </outline>
</glyph>
<glyph name="P" format="2">
  <advance width="540"/>
  <unicode hex="0050"/>
  <outline>
    <contour>
      <point x="40" y="0" type="line"/>
      <point x="64" y="0" type="line"/>
      <point x="64" y="700" type="line"/>
      <point x="40" y="700" type="line"/>
    </contour>
    <contour>
      <point x="435" y="525" type="curve"/>
      <point x="435" y="613.36556"/>
      <point x="349.9341025" y="685"/>
      <point x="245" y="685" type="curve"/>
      <point x="140.0658975" y="685"/>
      <point x="55" y="613.36556"/>
      <point x="55" y="525" type="curve"/>
      <point x="55" y="436.63444"/>
      <point x="140.0658975" y="365"/>
      <point x="245" y="365" type="curve"/>
      <point x="349.9341025" y="365"/>
      <point x="435" y="436.63444"/>
    </contour>
    <contour>
      <point x="411" y="525" type="curve"/>
      <point x="411" y="449.889274"/>
      <point x="336.6792685" y="389"/>
      <point x="245" y="389" type="curve"/>
      <point x="153.32073150000002" y="389"/>
      <point x="79" y="449.889274"/>
      <point x="79" y="525" type="curve"/>
      <point x="79" y="600.110726"/>
      <point x="153.32073150000002" y="661"/>
      <point x="245" y="661" type="curve"/>
      <point x="336.6792685" y="661"/>
      <point x="411" y="600.110726"/>
    </contour>
    <contour>
      <point x="18" y="0" type="line"/>
      <point x="138" y="0" type="line"/>
      <point x="138" y="18" type="line"/>
      <point x="18" y="18" type="line"/>
    </contour>
    <contour>
      <point x="18" y="682" type="line"/>
      <point x="138" y="682" type="line"/>
      <point x="138" y="700" type="line"/>
      <point x="18" y="700" type="line"/>
    </contour>
    <contour>
      <point x="362" y="0" type="line"/>
      <point x="482" y="0" type="line"/>
      <point x="482" y="18" type="line"/>
      <point x="362" y="18" type="line"/>
    </contour>
    <contour>
      <point x="362" y="682" type="line"/>
      <point x="482" y="682" type="line"/>
      <point x="482" y="700" type="line"/>
      <point x="362" y="700" type="line"/>
    </contour>
  </outline>
</glyph>
<glyph name="Q" format="2">
  <advance width="540"/>
  <unicode hex="0051"/>
  <outline>
    <contour>
      <point x="460" y="350" type="curve"/>
      <point x="460" y="543.2996625000001"/>
      <point x="365.9797975" y="700"/>
      <point x="250" y="700" type="curve"/>
      <point x="134.02020249999998" y="700"/>
      <point x="40" y="543.2996625000001"/>
      <point x="40" y="350" type="curve"/>
      <point x="40" y="156.7003375"/>
      <point x="134.02020249999998" y="0"/>
      <point x="250" y="0" type="curve"/>
      <point x="365.9797975" y="0"/>
      <point x="460" y="156.7003375"/>
    </contour>
    <contour>
      <point x="436" y="350" type="curve"/>
      <point x="436" y="169.9551715"/>
      <point x="352.7249635" y="24"/>
      <point x="250" y="24" type="curve"/>
      <point x="147.2750365" y="24"/>
      <point x="64" y="169.9551715"/>
      <point x="64" y="350" type="curve"/>
      <point x="64" y="530.0448285"/>
      <point x="147.2750365" y="676"/>
      <point x="250" y="676" type="curve"/>
      <point x="352.7249635" y="676"/>
      <point x="436" y="530.0448285"/>
    </contour>
    <contour>
      <point x="303.7310728742237" y="143.23215442426803" type="line"/>
      <point x="468.7310728742237" y="-31.76784557573197" type="line"/>
      <point x="451.2689271257763" y="-48.23215442426803" type="line"/>
      <point x="286.2689271257763" y="126.76784557573197" type="line"/>
    </contour>
    <contour>
      <point x="18" y="0" type="line"/>
      <point x="138" y="0" type="line"/>
      <point x="138" y="18" type="line"/>
      <point x="18" y="18" type="line"/>
    </contour>
    <contour>
      <point x="18" y="682" type="line"/>
      <point x="138" y="682" type="line"/>
      <point x="138" y="700" type="line"/>
      <point x="18" y="700" type="line"/>
    </contour>
    <contour>
      <point x="362" y="0" type="line"/>
      <point x="482" y="0" type="line"/>
      <point x="482" y="18" type="line"/>
      <point x="362" y="18" type="line"/>
    </contour>
    <contour>
      <point x="362" y="682" type="line"/>
      <point x="482" y="682" type="line"/>
      <point x="482" y="700" type="line"/>
      <point x="362" y="700" type="line"/>
    </contour>
  </outline>
</glyph>
<glyph name="R" format="2">
  <advance width="540"/>
  <unicode hex="0052"/>
  <outline>
    <contour>
      <point x="40" y="0" type="line"/>
      <point x="64" y="0" type="line"/>
      <point x="64" y="700" type="line"/>
      <point x="40" y="700" type="line"/>
    </contour>
    <contour>
      <point x="435" y="525" type="curve"/>
      <point x="435" y="613.36556"/>
      <point x="349.9341025" y="685"/>
      <point x="245" y="685" type="curve"/>
      <point x="140.0658975" y="685"/>
      <point x="55" y="613.36556"/>
      <point x="55" y="525" type="curve"/>
      <point x="55" y="436.63444"/>
      <point x="140.0658975" y="365"/>
      <point x="245" y="365" type="curve"/>
      <point x="349.9341025" y="365"/>
      <point x="435" y="436.63444"/>
    </contour>
    <contour>
      <point x="411" y="525" type="curve"/>
      <point x="411" y="449.889274"/>
      <point x="336.6792685" y="389"/>
      <point x="245" y="389" type="curve"/>
      <point x="153.32073150000002" y="389"/>
      <point x="79" y="449.889274"/>
      <point x="79" y="525" type="curve"/>
      <point x="79" y="600.110726"/>
      <point x="153.32073150000002" y="661"/>
      <point x="245" y="661" type="curve"/>
      <point x="336.6792685" y="661"/>
      <point x="411" y="600.110726"/>
    </contour>
    <contour>
      <point x="260.61261703416363" y="365.60110343469745" type="line"/>
      <point x="450.61261703416363" y="5.601103434697475" type="line"/>
      <point x="429.38738296583637" y="-5.601103434697475" type="line"/>
      <point x="239.38738296583637" y="354.39889656530255" type="line"/>
    </contour>
    <contour>
      <point x="18" y="0" type="line"/>
      <point x="138" y="0" type="line"/>
      <point x="138" y="18" type="line"/>
      <point x="18" y="18" type="line"/>
    </contour>
    <contour>
      <point x="18" y="682" type="line"/>
      <point x="138" y="682" type="line"/>
      <point x="138" y="700" type="line"/>
      <point x="18" y="700" type="line"/>
    </contour>
    <contour>
      <point x="362" y="0" type="line"/>
      <point x="482" y="0" type="line"/>
      <point x="482" y="18" type="line"/>
      <point x="362" y="18" type="line"/>
    </contour>
    <contour>
      <point x="362" y="682" type="line"/>
      <point x="482" y="682" type="line"/>
      <point x="482" y="700" type="line"/>
      <point x="362" y="700" type="line"/>
    </contour>
  </outline>
</glyph>
<glyph name="S" format="2">
  <advance width="540"/>
  <unicode hex="0053"/>
  <outline>
    <contour>
      <point x="426.6" y="697.6" type="line"/>
      <point x="287.0" y="701.92"/>
      <point x="68.6" y="698.08"/>
      <point x="67.4" y="434.0" type="curve"/>
      <point x="66.2" y="357.0"/>
      <point x="227.8" y="351.92"/>
      <point x="246.3" y="350" type="curve"/>
      <point x="287.0" y="266.0"/>
      <point x="434.04" y="329.0"/>
      <point x="433.08" y="203.0" type="curve"/>
      <point x="432.12" y="1.2000000000000002"/>
      <point x="205.6" y="-1.44"/>
      <point x="66.2" y="3.3600000000000003" type="curve"/>
      <point x="68.84" y="23.52" type="line"/>
      <point x="213.0" y="14.879999999999999"/>
      <point x="419.4" y="20.4"/>
      <point x="421.08" y="189.0" type="curve"/>
      <point x="422.04" y="315.0"/>
      <point x="268.5" y="308.0"/>
      <point x="235.2" y="350.72" type="curve"/>
      <point x="187.1" y="353.6"/>
      <point x="76.04" y="352.88"/>
      <point x="77.48" y="448.0" type="curve"/>
      <point x="78.92" y="685.12"/>
      <point x="279.6" y="689.2"/>
      <point x="427.32" y="676.48" type="curve"/>
    </contour>
    <contour>
      <point x="18" y="0" type="line"/>
      <point x="138" y="0" type="line"/>
      <point x="138" y="18" type="line"/>
      <point x="18" y="18" type="line"/>
    </contour>
    <contour>
      <point x="18" y="682" type="line"/>
      <point x="138" y="682" type="line"/>
      <point x="138" y="700" type="line"/>
      <point x="18" y="700" type="line"/>
    </contour>
    <contour>
      <point x="362" y="0" type="line"/>
      <point x="482" y="0" type="line"/>
      <point x="482" y="18" type="line"/>
      <point x="362" y="18" type="line"/>
    </contour>
    <contour>
      <point x="362" y="682" type="line"/>
      <point x="482" y="682" type="line"/>
      <point x="482" y="700" type="line"/>
      <point x="362" y="700" type="line"/>
    </contour>
  </outline>
</glyph>
<glyph name="U" format="2">
  <advance width="540"/>
  <unicode hex="0055"/>
  <outline>
    <contour>
      <point x="46.72" y="210" type="curve"/>
      <point x="57.28" y="210" type="line"/>
      <point x="60.991353520000004" y="210"/>
      <point x="64" y="213.00864648"/>
      <point x="64" y="216.72" type="curve"/>
      <point x="64" y="693.28" type="line"/>
      <point x="64" y="696.99135352"/>
      <point x="60.991353520000004" y="700"/>
      <point x="57.28" y="700" type="curve"/>
      <point x="46.72" y="700" type="line"/>
      <point x="43.008646479999996" y="700"/>
      <point x="40" y="696.99135352"/>
      <point x="40" y="693.28" type="curve"/>
      <point x="40" y="216.72" type="line"/>
      <point x="40" y="213.00864648"/>
      <point x="43.008646479999996" y="210"/>
    </contour>
    <contour>
      <point x="402.72" y="210" type="curve"/>
      <point x="413.28" y="210" type="line"/>
      <point x="416.99135351999996" y="210"/>
      <point x="420" y="213.00864648"/>
      <point x="420" y="216.72" type="curve"/>
      <point x="420" y="693.28" type="line"/>
      <point x="420" y="696.99135352"/>
      <point x="416.99135351999996" y="700"/>
      <point x="413.28" y="700" type="curve"/>
      <point x="402.72" y="700" type="line"/>
      <point x="399.00864648000004" y="700"/>
      <point x="396" y="696.99135352"/>
      <point x="396" y="693.28" type="curve"/>
      <point x="396" y="216.72" type="line"/>
      <point x="396" y="213.00864648"/>
      <point x="399.00864648000004" y="210"/>
    </contour>
    <contour>
      <point x="40" y="210" type="line"/>
      <point x="40" y="68"/>
      <point x="127" y="-8"/>
      <point x="250" y="-8" type="curve"/>
      <point x="373" y="-8"/>
      <point x="460" y="68"/>
      <point x="460" y="210" type="curve"/>
      <point x="396" y="210" type="line"/>
      <point x="396" y="104"/>
      <point x="345" y="54"/>
      <point x="250" y="54" type="curve"/>
      <point x="155" y="54"/>
      <point x="104" y="104"/>
      <point x="104" y="210" type="curve"/>
    </contour>
    <contour>
      <point x="18" y="0" type="line"/>
      <point x="138" y="0" type="line"/>
      <point x="138" y="18" type="line"/>
      <point x="18" y="18" type="line"/>
    </contour>
    <contour>
      <point x="18" y="682" type="line"/>
      <point x="138" y="682" type="line"/>
      <point x="138" y="700" type="line"/>
      <point x="18" y="700" type="line"/>
    </contour>
    <contour>
      <point x="362" y="0" type="line"/>
      <point x="482" y="0" type="line"/>
      <point x="482" y="18" type="line"/>
      <point x="362" y="18" type="line"/>
    </contour>
    <contour>
      <point x="362" y="682" type="line"/>
      <point x="482" y="682" type="line"/>
      <point x="482" y="700" type="line"/>
      <point x="362" y="700" type="line"/>
    </contour>
  </outline>
</glyph>
<glyph name="V" format="2">
  <advance width="540"/>
  <unicode hex="0056"/>
  <outline>
    <contour>
      <point x="86.64171000174397" y="702.910427500436" type="line"/>
      <point x="261.641710001744" y="2.910427500435995" type="line"/>
      <point x="238.35828999825603" y="-2.910427500435995" type="line"/>
      <point x="63.35828999825602" y="697.089572499564" type="line"/>
    </contour>
    <contour>
      <point x="436.641710001744" y="697.089572499564" type="line"/>
      <point x="261.641710001744" y="-2.910427500435995" type="line"/>
      <point x="238.35828999825603" y="2.910427500435995" type="line"/>
      <point x="413.358289998256" y="702.910427500436" type="line"/>
    </contour>
    <contour>
      <point x="18" y="0" type="line"/>
      <point x="138" y="0" type="line"/>
      <point x="138" y="18" type="line"/>
      <point x="18" y="18" type="line"/>
    </contour>
    <contour>
      <point x="18" y="682" type="line"/>
      <point x="138" y="682" type="line"/>
      <point x="138" y="700" type="line"/>
      <point x="18" y="700" type="line"/>
    </contour>
    <contour>
      <point x="362" y="0" type="line"/>
      <point x="482" y="0" type="line"/>
      <point x="482" y="18" type="line"/>
      <point x="362" y="18" type="line"/>
    </contour>
    <contour>
      <point x="362" y="682" type="line"/>
      <point x="482" y="682" type="line"/>
      <point x="482" y="700" type="line"/>
      <point x="362" y="700" type="line"/>
    </contour>
  </outline>
</glyph>
<glyph name="W" format="2">
  <advance width="600"/>
  <unicode hex="0057"/>
  <outline>
    <contour>
      <point x="56.890993299856476" y="701.6137776621234" type="line"/>
      <point x="151.89099329985646" y="1.6137776621233786" type="line"/>
      <point x="128.10900670014354" y="-1.6137776621233786" type="line"/>
      <point x="33.109006700143524" y="698.3862223378766" type="line"/>
    </contour>
    <contour>
      <point x="466.89099329985646" y="698.3862223378766" type="line"/>
      <point x="371.89099329985646" y="-1.6137776621233786" type="line"/>
      <point x="348.10900670014354" y="1.6137776621233786" type="line"/>
      <point x="443.10900670014354" y="701.6137776621234" type="line"/>
    </contour>
    <contour>
      <point x="128.45060388816316" y="3.257521980261674" type="line"/>
      <point x="238.45060388816316" y="393.2575219802617" type="line"/>
      <point x="261.54939611183687" y="386.7424780197383" type="line"/>
      <point x="151.54939611183684" y="-3.257521980261674" type="line"/>
    </contour>
    <contour>
      <point x="348.45060388816313" y="-3.257521980261674" type="line"/>
      <point x="238.45060388816316" y="386.7424780197383" type="line"/>
      <point x="261.54939611183687" y="393.2575219802617" type="line"/>
      <point x="371.54939611183687" y="3.257521980261674" type="line"/>
    </contour>
    <contour>
      <point x="18" y="0" type="line"/>
      <point x="138" y="0" type="line"/>
      <point x="138" y="18" type="line"/>
      <point x="18" y="18" type="line"/>
    </contour>
    <contour>
      <point x="18" y="682" type="line"/>
      <point x="138" y="682" type="line"/>
      <point x="138" y="700" type="line"/>
      <point x="18" y="700" type="line"/>
    </contour>
    <contour>
      <point x="362" y="0" type="line"/>
      <point x="482" y="0" type="line"/>
      <point x="482" y="18" type="line"/>
      <point x="362" y="18" type="line"/>
    </contour>
    <contour>
      <point x="362" y="682" type="line"/>
      <point x="482" y="682" type="line"/>
      <point x="482" y="700" type="line"/>
      <point x="362" y="700" type="line"/>
    </contour>
  </outline>
</glyph>
<glyph name="X" format="2">
  <advance width="540"/>
  <unicode hex="0058"/>
  <outline>
    <contour>
      <point x="80.67145362781777" y="705.4881761514491" type="line"/>
      <point x="440.67145362781775" y="5.488176151449136" type="line"/>
      <point x="419.32854637218225" y="-5.488176151449136" type="line"/>
      <point x="59.32854637218223" y="694.5118238485509" type="line"/>
    </contour>
    <contour>
      <point x="440.67145362781775" y="694.5118238485509" type="line"/>
      <point x="80.67145362781777" y="-5.488176151449136" type="line"/>
      <point x="59.32854637218223" y="5.488176151449136" type="line"/>
      <point x="419.32854637218225" y="705.4881761514491" type="line"/>
    </contour>
    <contour>
      <point x="18" y="0" type="line"/>
      <point x="138" y="0" type="line"/>
      <point x="138" y="18" type="line"/>
      <point x="18" y="18" type="line"/>
    </contour>
    <contour>
      <point x="18" y="682" type="line"/>
      <point x="138" y="682" type="line"/>
      <point x="138" y="700" type="line"/>
      <point x="18" y="700" type="line"/>
    </contour>
    <contour>
      <point x="362" y="0" type="line"/>
      <point x="482" y="0" type="line"/>
      <point x="482" y="18" type="line"/>
      <point x="362" y="18" type="line"/>
    </contour>
    <contour>
      <point x="362" y="682" type="line"/>
      <point x="482" y="682" type="line"/>
      <point x="482" y="700" type="line"/>
      <point x="362" y="700" type="line"/>
    </contour>
  </outline>
</glyph>
<glyph name="Y" format="2">
  <advance width="540"/>
  <unicode hex="0059"/>
  <outline>
    <contour>
      <point x="80.67145362781777" y="705.4881761514491" type="line"/>
      <point x="260.67145362781775" y="355.4881761514491" type="line"/>
      <point x="239.32854637218225" y="344.5118238485509" type="line"/>
      <point x="59.32854637218223" y="694.5118238485509" type="line"/>
    </contour>
    <contour>
      <point x="440.67145362781775" y="694.5118238485509" type="line"/>
      <point x="260.67145362781775" y="344.5118238485509" type="line"/>
      <point x="239.32854637218225" y="355.4881761514491" type="line"/>
      <point x="419.32854637218225" y="705.4881761514491" type="line"/>
    </contour>
    <contour>
      <point x="218" y="0" type="line"/>
      <point x="242" y="0" type="line"/>
      <point x="242" y="350" type="line"/>
      <point x="218" y="350" type="line"/>
    </contour>
    <contour>
      <point x="18" y="0" type="line"/>
      <point x="138" y="0" type="line"/>
      <point x="138" y="18" type="line"/>
      <point x="18" y="18" type="line"/>
    </contour>
    <contour>
      <point x="18" y="682" type="line"/>
      <point x="138" y="682" type="line"/>
      <point x="138" y="700" type="line"/>
      <point x="18" y="700" type="line"/>
    </contour>
    <contour>
      <point x="362" y="0" type="line"/>
      <point x="482" y="0" type="line"/>
      <point x="482" y="18" type="line"/>
      <point x="362" y="18" type="line"/>
    </contour>
    <contour>
      <point x="362" y="682" type="line"/>
      <point x="482" y="682" type="line"/>
      <point x="482" y="700" type="line"/>
      <point x="362" y="700" type="line"/>
    </contour>
  </outline>
</glyph>
<glyph name="Z" format="2">
  <advance width="540"/>
  <unicode hex="005A"/>
  <outline>
    <contour>
      <point x="50" y="676" type="line"/>
      <point x="450" y="676" type="line"/>
      <point x="450" y="700" type="line"/>
      <point x="50" y="700" type="line"/>
    </contour>
    <contour>
      <point x="440.5917030697517" y="682.359448069363" type="line"/>
      <point x="80.59170306975169" y="6.359448069363008" type="line"/>
      <point x="59.40829693024831" y="17.640551930636992" type="line"/>
      <point x="419.4082969302483" y="693.640551930637" type="line"/>
    </contour>
    <contour>
      <point x="50" y="0" type="line"/>
      <point x="450" y="0" type="line"/>
      <point x="450" y="24" type="line"/>
      <point x="50" y="24" type="line"/>
    </contour>
    <contour>
      <point x="18" y="0" type="line"/>
      <point x="138" y="0" type="line"/>
      <point x="138" y="18" type="line"/>
      <point x="18" y="18" type="line"/>
    </contour>
    <contour>
      <point x="18" y="682" type="line"/>
      <point x="138" y="682" type="line"/>
      <point x="138" y="700" type="line"/>
      <point x="18" y="700" type="line"/>
    </contour>
    <contour>
      <point x="362" y="0" type="line"/>
      <point x="482" y="0" type="line"/>
      <point x="482" y="18" type="line"/>
      <point x="362" y="18" type="line"/>
    </contour>
    <contour>
      <point x="362" y="682" type="line"/>
      <point x="482" y="682" type="line"/>
      <point x="482" y="700" type="line"/>
      <point x="362" y="700" type="line"/>
    </contour>
  </outline>
</glyph>
<glyph name="a" format="2">
  <advance width="540"/>
  <unicode hex="0061"/>
  <outline>
    <contour>
      <point x="378" y="244" type="curve"/>
      <point x="378" y="378.757479"/>
      <point x="310.8427125" y="488"/>
      <point x="228" y="488" type="curve"/>
      <point x="145.1572875" y="488"/>
      <point x="78" y="378.757479"/>
      <point x="78" y="244" type="curve"/>
      <point x="78" y="109.24252100000001"/>
      <point x="145.1572875" y="0"/>
      <point x="228" y="0" type="curve"/>
      <point x="310.8427125" y="0"/>
      <point x="378" y="109.24252100000001"/>
    </contour>
    <contour>
      <point x="354" y="244" type="curve"/>
      <point x="354" y="122.497355"/>
      <point x="297.5878785" y="24"/>
      <point x="228" y="24" type="curve"/>
      <point x="158.4121215" y="24"/>
      <point x="102" y="122.497355"/>
      <point x="102" y="244" type="curve"/>
      <point x="102" y="365.50264500000003"/>
      <point x="158.4121215" y="464"/>
      <point x="228" y="464" type="curve"/>
      <point x="297.5878785" y="464"/>
      <point x="354" y="365.50264500000003"/>
    </contour>
    <contour>
      <point x="350.72" y="0" type="curve"/>
      <point x="361.28" y="0" type="line"/>
      <point x="364.99135351999996" y="0"/>
      <point x="368" y="3.0086464800000003"/>
      <point x="368" y="6.720000000000001" type="curve"/>
      <point x="368" y="548.28" type="line"/>
      <point x="368" y="551.99135352"/>
      <point x="364.99135351999996" y="555"/>
      <point x="361.28" y="555" type="curve"/>
      <point x="350.72" y="555" type="line"/>
      <point x="347.00864648000004" y="555"/>
      <point x="344" y="551.99135352"/>
      <point x="344" y="548.28" type="curve"/>
      <point x="344" y="6.720000000000001" type="line"/>
      <point x="344" y="3.0086464800000003"/>
      <point x="347.00864648000004" y="0"/>
    </contour>
  </outline>
</glyph>
<glyph name="d" format="2">
  <advance width="540"/>
  <unicode hex="0064"/>
  <outline>
    <contour>
      <point x="358.72" y="0" type="curve"/>
      <point x="369.28" y="0" type="line"/>
      <point x="372.99135351999996" y="0"/>
      <point x="376" y="3.0086464800000003"/>
      <point x="376" y="6.720000000000001" type="curve"/>
      <point x="376" y="753.28" type="line"/>
      <point x="376" y="756.99135352"/>
      <point x="372.99135351999996" y="760"/>
      <point x="369.28" y="760" type="curve"/>
      <point x="358.72" y="760" type="line"/>
      <point x="355.00864648000004" y="760"/>
      <point x="352" y="756.99135352"/>
      <point x="352" y="753.28" type="curve"/>
      <point x="352" y="6.720000000000001" type="line"/>
      <point x="352" y="3.0086464800000003"/>
      <point x="355.00864648000004" y="0"/>
    </contour>
    <contour>
      <point x="430" y="278" type="curve"/>
      <point x="430" y="431.53516049999996"/>
      <point x="349.411255" y="556"/>
      <point x="250" y="556" type="curve"/>
      <point x="150.58874500000002" y="556"/>
      <point x="70" y="431.53516049999996"/>
      <point x="70" y="278" type="curve"/>
      <point x="70" y="124.46483950000001"/>
      <point x="150.58874500000002" y="0"/>
      <point x="250" y="0" type="curve"/>
      <point x="349.411255" y="0"/>
      <point x="430" y="124.46483950000001"/>
    </contour>
    <contour>
      <point x="406" y="278" type="curve"/>
      <point x="406" y="137.7196735"/>
      <point x="336.156421" y="24"/>
      <point x="250" y="24" type="curve"/>
      <point x="163.843579" y="24"/>
      <point x="94" y="137.7196735"/>
      <point x="94" y="278" type="curve"/>
      <point x="94" y="418.2803265"/>
      <point x="163.843579" y="532"/>
      <point x="250" y="532" type="curve"/>
      <point x="336.156421" y="532"/>
      <point x="406" y="418.2803265"/>
    </contour>
    <contour>
      <point x="38" y="0" type="line"/>
      <point x="138" y="0" type="line"/>
      <point x="138" y="18" type="line"/>
      <point x="38" y="18" type="line"/>
    </contour>
    <contour>
      <point x="38" y="742" type="line"/>
      <point x="138" y="742" type="line"/>
      <point x="138" y="760" type="line"/>
      <point x="38" y="760" type="line"/>
    </contour>
    <contour>
      <point x="362" y="0" type="line"/>
      <point x="462" y="0" type="line"/>
      <point x="462" y="18" type="line"/>
      <point x="362" y="18" type="line"/>
    </contour>
  </outline>
</glyph>
<glyph name="e" format="2">
  <advance width="540"/>
  <unicode hex="0065"/>
  <outline>
    <contour>
      <point x="388.6" y="467.04" type="line"/>
      <point x="336.4" y="556"/>
      <point x="174.4" y="556"/>
      <point x="70" y="397.53999999999996" type="curve"/>
      <point x="70" y="158.46"/>
      <point x="174.4" y="0"/>
      <point x="336.4" y="0" type="curve"/>
      <point x="381.4" y="69.5"/>
      <point x="388.6" y="116.76000000000002"/>
      <point x="388.6" y="139.0" type="curve"/>
      <point x="370.12" y="169.57999999999998" type="line"/>
      <point x="318.4" y="24"/>
      <point x="94" y="189.04"/>
      <point x="94" y="278" type="curve"/>
      <point x="94" y="366.96000000000004"/>
      <point x="318.4" y="532"/>
      <point x="370.12" y="386.42" type="curve"/>
    </contour>
    <contour>
      <point x="97.76" y="246" type="curve"/>
      <point x="396.24" y="246" type="line"/>
      <point x="399.42116016" y="246"/>
      <point x="402" y="248.57883984"/>
      <point x="402" y="251.76" type="curve"/>
      <point x="402" y="264.24" type="line"/>
      <point x="402" y="267.42116016"/>
      <point x="399.42116016" y="270"/>
      <point x="396.24" y="270" type="curve"/>
      <point x="97.76" y="270" type="line"/>
      <point x="94.57883984" y="270"/>
      <point x="92" y="267.42116016"/>
      <point x="92" y="264.24" type="curve"/>
      <point x="92" y="251.76" type="line"/>
      <point x="92" y="248.57883984"/>
      <point x="94.57883984" y="246"/>
    </contour>
  </outline>
</glyph>
<glyph name="f" format="2">
  <advance width="540"/>
  <unicode hex="0066"/>
  <outline>
    <contour>
      <point x="221.72" y="0" type="curve"/>
      <point x="232.28" y="0" type="line"/>
      <point x="235.99135352" y="0"/>
      <point x="239" y="3.0086464800000003"/>
      <point x="239" y="6.720000000000001" type="curve"/>
      <point x="239" y="753.28" type="line"/>
      <point x="239" y="756.99135352"/>
      <point x="235.99135352" y="760"/>
      <point x="232.28" y="760" type="curve"/>
      <point x="221.72" y="760" type="line"/>
      <point x="218.00864648" y="760"/>
      <point x="215" y="756.99135352"/>
      <point x="215" y="753.28" type="curve"/>
      <point x="215" y="6.720000000000001" type="line"/>
      <point x="215" y="3.0086464800000003"/>
      <point x="218.00864648" y="0"/>
    </contour>
    <contour>
      <point x="215" y="500" type="line"/>
      <point x="215" y="670"/>
      <point x="294" y="770"/>
      <point x="398" y="734" type="curve"/>
      <point x="398" y="670" type="line"/>
      <point x="325" y="687"/>
      <point x="279" y="632"/>
      <point x="279" y="500" type="curve"/>
    </contour>
    <contour>
      <point x="110.76" y="350" type="curve"/>
      <point x="389.24" y="350" type="line"/>
      <point x="392.42116016" y="350"/>
      <point x="395" y="352.57883984"/>
      <point x="395" y="355.76" type="curve"/>
      <point x="395" y="368.24" type="line"/>
      <point x="395" y="371.42116016"/>
      <point x="392.42116016" y="374"/>
      <point x="389.24" y="374" type="curve"/>
      <point x="110.76" y="374" type="line"/>
      <point x="107.57883984" y="374"/>
      <point x="105" y="371.42116016"/>
      <point x="105" y="368.24" type="curve"/>
      <point x="105" y="355.76" type="line"/>
      <point x="105" y="352.57883984"/>
      <point x="107.57883984" y="350"/>
    </contour>
    <contour>
      <point x="38" y="0" type="line"/>
      <point x="138" y="0" type="line"/>
      <point x="138" y="18" type="line"/>
      <point x="38" y="18" type="line"/>
    </contour>
    <contour>
      <point x="38" y="742" type="line"/>
      <point x="138" y="742" type="line"/>
      <point x="138" y="760" type="line"/>
      <point x="38" y="760" type="line"/>
    </contour>
    <contour>
      <point x="362" y="0" type="line"/>
      <point x="462" y="0" type="line"/>
      <point x="462" y="18" type="line"/>
      <point x="362" y="18" type="line"/>
    </contour>
  </outline>
</glyph>
<glyph name="g" format="2">
  <advance width="540"/>
  <unicode hex="0067"/>
  <outline>
    <contour>
      <point x="378" y="260" type="curve"/>
      <point x="378" y="392.54834"/>
      <point x="310.8427125" y="500"/>
      <point x="228" y="500" type="curve"/>
      <point x="145.1572875" y="500"/>
      <point x="78" y="392.54834"/>
      <point x="78" y="260" type="curve"/>
      <point x="78" y="127.45166"/>
      <point x="145.1572875" y="20"/>
      <point x="228" y="20" type="curve"/>
      <point x="310.8427125" y="20"/>
      <point x="378" y="127.45166"/>
    </contour>
    <contour>
      <point x="354" y="260" type="curve"/>
      <point x="354" y="140.70649400000002"/>
      <point x="297.5878785" y="44"/>
      <point x="228" y="44" type="curve"/>
      <point x="158.4121215" y="44"/>
      <point x="102" y="140.70649400000002"/>
      <point x="102" y="260" type="curve"/>
      <point x="102" y="379.293506"/>
      <point x="158.4121215" y="476"/>
      <point x="228" y="476" type="curve"/>
      <point x="297.5878785" y="476"/>
      <point x="354" y="379.293506"/>
    </contour>
    <contour>
      <point x="350.72" y="-210" type="curve"/>
      <point x="361.28" y="-210" type="line"/>
      <point x="364.99135351999996" y="-210"/>
      <point x="368" y="-206.99135352"/>
      <point x="368" y="-203.28" type="curve"/>
      <point x="368" y="548.28" type="line"/>
      <point x="368" y="551.99135352"/>
      <point x="364.99135351999996" y="555"/>
      <point x="361.28" y="555" type="curve"/>
      <point x="350.72" y="555" type="line"/>
      <point x="347.00864648000004" y="555"/>
      <point x="344" y="551.99135352"/>
      <point x="344" y="548.28" type="curve"/>
      <point x="344" y="-203.28" type="line"/>
      <point x="344" y="-206.99135352"/>
      <point x="347.00864648000004" y="-210"/>
    </contour>
    <contour>
      <point x="408" y="0" type="line"/>
      <point x="408" y="-210"/>
      <point x="324" y="-210"/>
      <point x="230" y="-210" type="curve"/>
      <point x="173" y="-210"/>
      <point x="139" y="-185"/>
      <point x="128" y="-146" type="curve"/>
      <point x="192" y="-146" type="line"/>
      <point x="205" y="-175"/>
      <point x="221" y="-180"/>
      <point x="245" y="-180" type="curve"/>
      <point x="305" y="-180"/>
      <point x="344" y="-138"/>
      <point x="344" y="0" type="curve"/>
    </contour>
    <contour>
      <point x="38" y="0" type="line"/>
      <point x="138" y="0" type="line"/>
      <point x="138" y="18" type="line"/>
      <point x="38" y="18" type="line"/>
    </contour>
    <contour>
      <point x="362" y="-210" type="line"/>
      <point x="462" y="-210" type="line"/>
      <point x="462" y="-192" type="line"/>
      <point x="362" y="-192" type="line"/>
    </contour>
  </outline>
</glyph>
<glyph name="h" format="2">
  <advance width="540"/>
  <unicode hex="0068"/>
  <outline>
    <contour>
      <point x="66.72" y="0" type="curve"/>
      <point x="77.28" y="0" type="line"/>
      <point x="80.99135352" y="0"/>
      <point x="84" y="3.0086464800000003"/>
      <point x="84" y="6.720000000000001" type="curve"/>
      <point x="84" y="753.28" type="line"/>
      <point x="84" y="756.99135352"/>
      <point x="80.99135352" y="760"/>
      <point x="77.28" y="760" type="curve"/>
      <point x="66.72" y="760" type="line"/>
      <point x="63.008646479999996" y="760"/>
      <point x="60" y="756.99135352"/>
      <point x="60" y="753.28" type="curve"/>
      <point x="60" y="6.720000000000001" type="line"/>
      <point x="60" y="3.0086464800000003"/>
      <point x="63.008646479999996" y="0"/>
    </contour>
    <contour>
      <point x="124" y="0" type="line"/>
      <point x="124" y="555" type="line"/>
      <point x="198.8" y="565"/>
      <point x="344" y="460.65"/>
      <point x="344" y="349.65" type="curve"/>
      <point x="344" y="0" type="line"/>
      <point x="320" y="0" type="line"/>
      <point x="320" y="349.65" type="line"/>
      <point x="320" y="541.8"/>
      <point x="222.8" y="531"/>
      <point x="148" y="531" type="curve"/>
      <point x="148" y="0" type="line"/>
    </contour>
    <contour>
      <point x="38" y="0" type="line"/>
      <point x="138" y="0" type="line"/>
      <point x="138" y="18" type="line"/>
      <point x="38" y="18" type="line"/>
    </contour>
    <contour>
      <point x="38" y="742" type="line"/>
      <point x="138" y="742" type="line"/>
      <point x="138" y="760" type="line"/>
      <point x="38" y="760" type="line"/>
    </contour>
    <contour>
      <point x="362" y="0" type="line"/>
      <point x="462" y="0" type="line"/>
      <point x="462" y="18" type="line"/>
      <point x="362" y="18" type="line"/>
    </contour>
  </outline>
</glyph>
<glyph name="i" format="2">
  <advance width="290"/>
  <unicode hex="0069"/>
  <outline>
    <contour>
      <point x="224.72" y="0" type="curve"/>
      <point x="235.28" y="0" type="line"/>
      <point x="238.99135352" y="0"/>
      <point x="242" y="3.0086464800000003"/>
      <point x="242" y="6.720000000000001" type="curve"/>
      <point x="242" y="448.28" type="line"/>
      <point x="242" y="451.99135351999996"/>
      <point x="238.99135352" y="455"/>
      <point x="235.28" y="455" type="curve"/>
      <point x="224.72" y="455" type="line"/>
      <point x="221.00864648" y="455"/>
      <point x="218" y="451.99135351999996"/>
      <point x="218" y="448.28" type="curve"/>
      <point x="218" y="6.720000000000001" type="line"/>
      <point x="218" y="3.0086464800000003"/>
      <point x="221.00864648" y="0"/>
    </contour>
    <contour>
      <point x="263.2" y="525" type="curve"/>
      <point x="263.2" y="532.2901587"/>
      <point x="257.2901587" y="538.2"/>
      <point x="250" y="538.2" type="curve"/>
      <point x="242.7098413" y="538.2"/>
      <point x="236.8" y="532.2901587"/>
      <point x="236.8" y="525" type="curve"/>
      <point x="236.8" y="517.7098413"/>
      <point x="242.7098413" y="511.8"/>
      <point x="250" y="511.8" type="curve"/>
      <point x="257.2901587" y="511.8"/>
      <point x="263.2" y="517.7098413"/>
    </contour>
    <contour>
      <point x="38" y="0" type="line"/>
      <point x="138" y="0" type="line"/>
      <point x="138" y="18" type="line"/>
      <point x="38" y="18" type="line"/>
    </contour>
    <contour>
      <point x="362" y="0" type="line"/>
      <point x="462" y="0" type="line"/>
      <point x="462" y="18" type="line"/>
      <point x="362" y="18" type="line"/>
    </contour>
  </outline>
</glyph>
<glyph name="j" format="2">
  <advance width="540"/>
  <unicode hex="006A"/>
  <outline>
    <contour>
      <point x="224.72" y="-190" type="curve"/>
      <point x="235.28" y="-190" type="line"/>
      <point x="238.99135352" y="-190"/>
      <point x="242" y="-186.99135352"/>
      <point x="242" y="-183.28" type="curve"/>
      <point x="242" y="448.28" type="line"/>
      <point x="242" y="451.99135351999996"/>
      <point x="238.99135352" y="455"/>
      <point x="235.28" y="455" type="curve"/>
      <point x="224.72" y="455" type="line"/>
      <point x="221.00864648" y="455"/>
      <point x="218" y="451.99135351999996"/>
      <point x="218" y="448.28" type="curve"/>
      <point x="218" y="-183.28" type="line"/>
      <point x="218" y="-186.99135352"/>
      <point x="221.00864648" y="-190"/>
    </contour>
    <contour>
      <point x="263.2" y="525" type="curve"/>
      <point x="263.2" y="532.2901587"/>
      <point x="257.2901587" y="538.2"/>
      <point x="250" y="538.2" type="curve"/>
      <point x="242.7098413" y="538.2"/>
      <point x="236.8" y="532.2901587"/>
      <point x="236.8" y="525" type="curve"/>
      <point x="236.8" y="517.7098413"/>
      <point x="242.7098413" y="511.8"/>
      <point x="250" y="511.8" type="curve"/>
      <point x="257.2901587" y="511.8"/>
      <point x="263.2" y="517.7098413"/>
    </contour>
    <contour>
      <point x="282" y="-190" type="line"/>
      <point x="282" y="-210"/>
      <point x="247" y="-210"/>
      <point x="201" y="-210" type="curve"/>
      <point x="177" y="-210" type="line"/>
      <point x="177" y="-185" type="line"/>
      <point x="201" y="-185" type="line"/>
      <point x="212" y="-185"/>
      <point x="218" y="-188"/>
      <point x="218" y="-190" type="curve"/>
    </contour>
    <contour>
      <point x="38" y="0" type="line"/>
      <point x="138" y="0" type="line"/>
      <point x="138" y="18" type="line"/>
      <point x="38" y="18" type="line"/>
    </contour>
    <contour>
      <point x="362" y="-210" type="line"/>
      <point x="462" y="-210" type="line"/>
      <point x="462" y="-192" type="line"/>
      <point x="362" y="-192" type="line"/>
    </contour>
  </outline>
</glyph>
<glyph name="k" format="2">
  <advance width="540"/>
  <unicode hex="006B"/>
  <outline>
    <contour>
      <point x="66.72" y="0" type="curve"/>
      <point x="77.28" y="0" type="line"/>
      <point x="80.99135352" y="0"/>
      <point x="84" y="3.0086464800000003"/>
      <point x="84" y="6.720000000000001" type="curve"/>
      <point x="84" y="753.28" type="line"/>
      <point x="84" y="756.99135352"/>
      <point x="80.99135352" y="760"/>
      <point x="77.28" y="760" type="curve"/>
      <point x="66.72" y="760" type="line"/>
      <point x="63.008646479999996" y="760"/>
      <point x="60" y="756.99135352"/>
      <point x="60" y="753.28" type="curve"/>
      <point x="60" y="6.720000000000001" type="line"/>
      <point x="60" y="3.0086464800000003"/>
      <point x="63.008646479999996" y="0"/>
    </contour>
    <contour>
      <point x="115.0275148268837" y="285.96834423316466" type="line"/>
      <point x="361.0275148268837" y="562.9683442331647" type="line"/>
      <point x="378.9724851731163" y="547.0316557668353" type="line"/>
      <point x="132.9724851731163" y="270.03165576683534" type="line"/>
    </contour>
    <contour>
      <point x="132.82737400693338" y="286.1288048409171" type="line"/>
      <point x="388.8273740069334" y="8.128804840917073" type="line"/>
      <point x="371.1726259930666" y="-8.128804840917073" type="line"/>
      <point x="115.17262599306662" y="269.8711951590829" type="line"/>
    </contour>
    <contour>
      <point x="38" y="0" type="line"/>
      <point x="138" y="0" type="line"/>
      <point x="138" y="18" type="line"/>
      <point x="38" y="18" type="line"/>
    </contour>
    <contour>
      <point x="38" y="742" type="line"/>
      <point x="138" y="742" type="line"/>
      <point x="138" y="760" type="line"/>
      <point x="38" y="760" type="line"/>
    </contour>
    <contour>
      <point x="362" y="0" type="line"/>
      <point x="462" y="0" type="line"/>
      <point x="462" y="18" type="line"/>
      <point x="362" y="18" type="line"/>
    </contour>
  </outline>
</glyph>
<glyph name="l" format="2">
  <advance width="290"/>
  <unicode hex="006C"/>
  <outline>
    <contour>
      <point x="224.72" y="0" type="curve"/>
      <point x="235.28" y="0" type="line"/>
      <point x="238.99135352" y="0"/>
      <point x="242" y="3.0086464800000003"/>
      <point x="242" y="6.720000000000001" type="curve"/>
      <point x="242" y="753.28" type="line"/>
      <point x="242" y="756.99135352"/>
      <point x="238.99135352" y="760"/>
      <point x="235.28" y="760" type="curve"/>
      <point x="224.72" y="760" type="line"/>
      <point x="221.00864648" y="760"/>
      <point x="218" y="756.99135352"/>
      <point x="218" y="753.28" type="curve"/>
      <point x="218" y="6.720000000000001" type="line"/>
      <point x="218" y="3.0086464800000003"/>
      <point x="221.00864648" y="0"/>
    </contour>
    <contour>
      <point x="38" y="0" type="line"/>
      <point x="138" y="0" type="line"/>
      <point x="138" y="18" type="line"/>
      <point x="38" y="18" type="line"/>
    </contour>
    <contour>
      <point x="38" y="742" type="line"/>
      <point x="138" y="742" type="line"/>
      <point x="138" y="760" type="line"/>
      <point x="38" y="760" type="line"/>
    </contour>
    <contour>
      <point x="362" y="0" type="line"/>
      <point x="462" y="0" type="line"/>
      <point x="462" y="18" type="line"/>
      <point x="362" y="18" type="line"/>
    </contour>
  </outline>
</glyph>
<glyph name="m" format="2">
  <advance width="600"/>
  <unicode hex="006D"/>
  <outline>
    <contour>
      <point x="46.72" y="0" type="curve"/>
      <point x="57.28" y="0" type="line"/>
      <point x="60.991353520000004" y="0"/>
      <point x="64" y="3.0086464800000003"/>
      <point x="64" y="6.720000000000001" type="curve"/>
      <point x="64" y="548.28" type="line"/>
      <point x="64" y="551.99135352"/>
      <point x="60.991353520000004" y="555"/>
      <point x="57.28" y="555" type="curve"/>
      <point x="46.72" y="555" type="line"/>
      <point x="43.008646479999996" y="555"/>
      <point x="40" y="551.99135352"/>
      <point x="40" y="548.28" type="curve"/>
      <point x="40" y="6.720000000000001" type="line"/>
      <point x="40" y="3.0086464800000003"/>
      <point x="43.008646479999996" y="0"/>
    </contour>
    <contour>
      <point x="104" y="0" type="line"/>
      <point x="104" y="555" type="line"/>
      <point x="153.64" y="565"/>
      <point x="250" y="460.65"/>
      <point x="250" y="349.65" type="curve"/>
      <point x="250" y="0" type="line"/>
      <point x="226" y="0" type="line"/>
      <point x="226" y="349.65" type="line"/>
      <point x="226" y="541.8"/>
      <point x="177.64" y="531"/>
      <point x="128" y="531" type="curve"/>
      <point x="128" y="0" type="line"/>
    </contour>
    <contour>
      <point x="239" y="0" type="line"/>
      <point x="239" y="555" type="line"/>
      <point x="284.9" y="565"/>
      <point x="374" y="460.65"/>
      <point x="374" y="349.65" type="curve"/>
      <point x="374" y="0" type="line"/>
      <point x="350" y="0" type="line"/>
      <point x="350" y="349.65" type="line"/>
      <point x="350" y="541.8"/>
      <point x="308.9" y="531"/>
      <point x="263" y="531" type="curve"/>
      <point x="263" y="0" type="line"/>
    </contour>
    <contour>
      <point x="38" y="0" type="line"/>
      <point x="138" y="0" type="line"/>
      <point x="138" y="18" type="line"/>
      <point x="38" y="18" type="line"/>
    </contour>
    <contour>
      <point x="362" y="0" type="line"/>
      <point x="462" y="0" type="line"/>
      <point x="462" y="18" type="line"/>
      <point x="362" y="18" type="line"/>
    </contour>
  </outline>
</glyph>
<glyph name="o" format="2">
  <advance width="540"/>
  <unicode hex="006F"/>
  <outline>
    <contour>
      <point x="430" y="278" type="curve"/>
      <point x="430" y="431.53516049999996"/>
      <point x="349.411255" y="556"/>
      <point x="250" y="556" type="curve"/>
      <point x="150.58874500000002" y="556"/>
      <point x="70" y="431.53516049999996"/>
      <point x="70" y="278" type="curve"/>
      <point x="70" y="124.46483950000001"/>
      <point x="150.58874500000002" y="0"/>
      <point x="250" y="0" type="curve"/>
      <point x="349.411255" y="0"/>
      <point x="430" y="124.46483950000001"/>
    </contour>
    <contour>
      <point x="406" y="278" type="curve"/>
      <point x="406" y="137.7196735"/>
      <point x="336.156421" y="24"/>
      <point x="250" y="24" type="curve"/>
      <point x="163.843579" y="24"/>
      <point x="94" y="137.7196735"/>
      <point x="94" y="278" type="curve"/>
      <point x="94" y="418.2803265"/>
      <point x="163.843579" y="532"/>
      <point x="250" y="532" type="curve"/>
      <point x="336.156421" y="532"/>
      <point x="406" y="418.2803265"/>
    </contour>
  </outline>
</glyph>
<glyph name="p" format="2">
  <advance width="540"/>
  <unicode hex="0070"/>
  <outline>
    <contour>
      <point x="66.72" y="-210" type="curve"/>
      <point x="77.28" y="-210" type="line"/>
      <point x="80.99135352" y="-210"/>
      <point x="84" y="-206.99135352"/>
      <point x="84" y="-203.28" type="curve"/>
      <point x="84" y="548.28" type="line"/>
      <point x="84" y="551.99135352"/>
      <point x="80.99135352" y="555"/>
      <point x="77.28" y="555" type="curve"/>
      <point x="66.72" y="555" type="line"/>
      <point x="63.008646479999996" y="555"/>
      <point x="60" y="551.99135352"/>
      <point x="60" y="548.28" type="curve"/>
      <point x="60" y="-203.28" type="line"/>
      <point x="60" y="-206.99135352"/>
      <point x="63.008646479999996" y="-210"/>
    </contour>
    <contour>
      <point x="430" y="278" type="curve"/>
      <point x="430" y="431.53516049999996"/>
      <point x="349.411255" y="556"/>
      <point x="250" y="556" type="curve"/>
      <point x="150.58874500000002" y="556"/>
      <point x="70" y="431.53516049999996"/>
      <point x="70" y="278" type="curve"/>
      <point x="70" y="124.46483950000001"/>
      <point x="150.58874500000002" y="0"/>
      <point x="250" y="0" type="curve"/>
      <point x="349.411255" y="0"/>
      <point x="430" y="124.46483950000001"/>
    </contour>
    <contour>
      <point x="406" y="278" type="curve"/>
      <point x="406" y="137.7196735"/>
      <point x="336.156421" y="24"/>
      <point x="250" y="24" type="curve"/>
      <point x="163.843579" y="24"/>
      <point x="94" y="137.7196735"/>
      <point x="94" y="278" type="curve"/>
      <point x="94" y="418.2803265"/>
      <point x="163.843579" y="532"/>
      <point x="250" y="532" type="curve"/>
      <point x="336.156421" y="532"/>
      <point x="406" y="418.2803265"/>
    </contour>
    <contour>
      <point x="38" y="0" type="line"/>
      <point x="138" y="0" type="line"/>
      <point x="138" y="18" type="line"/>
      <point x="38" y="18" type="line"/>
    </contour>
    <contour>
      <point x="362" y="-210" type="line"/>
      <point x="462" y="-210" type="line"/>
      <point x="462" y="-192" type="line"/>
      <point x="362" y="-192" type="line"/>
    </contour>
  </outline>
</glyph>
<glyph name="r" format="2">
  <advance width="540"/>
  <unicode hex="0072"/>
  <outline>
    <contour>
      <point x="66.72" y="0" type="curve"/>
      <point x="77.28" y="0" type="line"/>
      <point x="80.99135352" y="0"/>
      <point x="84" y="3.0086464800000003"/>
      <point x="84" y="6.720000000000001" type="curve"/>
      <point x="84" y="548.28" type="line"/>
      <point x="84" y="551.99135352"/>
      <point x="80.99135352" y="555"/>
      <point x="77.28" y="555" type="curve"/>
      <point x="66.72" y="555" type="line"/>
      <point x="63.008646479999996" y="555"/>
      <point x="60" y="551.99135352"/>
      <point x="60" y="548.28" type="curve"/>
      <point x="60" y="6.720000000000001" type="line"/>
      <point x="60" y="3.0086464800000003"/>
      <point x="63.008646479999996" y="0"/>
    </contour>
    <contour>
      <point x="124" y="305" type="line"/>
      <point x="154" y="474"/>
      <point x="270" y="555"/>
      <point x="390" y="472" type="curve"/>
      <point x="390" y="400" type="line"/>
      <point x="284" y="450"/>
      <point x="205" y="417"/>
      <point x="188" y="305" type="curve"/>
    </contour>
    <contour>
      <point x="38" y="0" type="line"/>
      <point x="138" y="0" type="line"/>
      <point x="138" y="18" type="line"/>
      <point x="38" y="18" type="line"/>
    </contour>
    <contour>
      <point x="362" y="0" type="line"/>
      <point x="462" y="0" type="line"/>
      <point x="462" y="18" type="line"/>
      <point x="362" y="18" type="line"/>
    </contour>
  </outline>
</glyph>
<glyph name="t" format="2">
  <advance width="540"/>
  <unicode hex="0074"/>
  <outline>
    <contour>
      <point x="221.72" y="0" type="curve"/>
      <point x="232.28" y="0" type="line"/>
      <point x="235.99135352" y="0"/>
      <point x="239" y="3.0086464800000003"/>
      <point x="239" y="6.720000000000001" type="curve"/>
      <point x="239" y="753.28" type="line"/>
      <point x="239" y="756.99135352"/>
      <point x="235.99135352" y="760"/>
      <point x="232.28" y="760" type="curve"/>
      <point x="221.72" y="760" type="line"/>
      <point x="218.00864648" y="760"/>
      <point x="215" y="756.99135352"/>
      <point x="215" y="753.28" type="curve"/>
      <point x="215" y="6.720000000000001" type="line"/>
      <point x="215" y="3.0086464800000003"/>
      <point x="218.00864648" y="0"/>
    </contour>
    <contour>
      <point x="110.76" y="360" type="curve"/>
      <point x="369.24" y="360" type="line"/>
      <point x="372.42116016" y="360"/>
      <point x="375" y="362.57883984"/>
      <point x="375" y="365.76" type="curve"/>
      <point x="375" y="378.24" type="line"/>
      <point x="375" y="381.42116016"/>
      <point x="372.42116016" y="384"/>
      <point x="369.24" y="384" type="curve"/>
      <point x="110.76" y="384" type="line"/>
      <point x="107.57883984" y="384"/>
      <point x="105" y="381.42116016"/>
      <point x="105" y="378.24" type="curve"/>
      <point x="105" y="365.76" type="line"/>
      <point x="105" y="362.57883984"/>
      <point x="107.57883984" y="360"/>
    </contour>
    <contour>
      <point x="38" y="0" type="line"/>
      <point x="138" y="0" type="line"/>
      <point x="138" y="18" type="line"/>
      <point x="38" y="18" type="line"/>
    </contour>
    <contour>
      <point x="38" y="742" type="line"/>
      <point x="138" y="742" type="line"/>
      <point x="138" y="760" type="line"/>
      <point x="38" y="760" type="line"/>
    </contour>
    <contour>
      <point x="362" y="0" type="line"/>
      <point x="462" y="0" type="line"/>
      <point x="462" y="18" type="line"/>
      <point x="362" y="18" type="line"/>
    </contour>
  </outline>
</glyph>
<glyph name="w" format="2">
  <advance width="600"/>
  <unicode hex="0077"/>
  <outline>
    <contour>
      <point x="56.86169305342102" y="556.8166556928663" type="line"/>
      <point x="141.86169305342102" y="1.8166556928662825" type="line"/>
      <point x="118.13830694657898" y="-1.8166556928662825" type="line"/>
      <point x="33.13830694657898" y="553.1833443071337" type="line"/>
    </contour>
    <contour>
      <point x="466.86169305342105" y="553.1833443071337" type="line"/>
      <point x="381.86169305342105" y="-1.8166556928662825" type="line"/>
      <point x="358.13830694657895" y="1.8166556928662825" type="line"/>
      <point x="443.13830694657895" y="556.8166556928663" type="line"/>
    </contour>
    <contour>
      <point x="118.85827970937689" y="4.456688116249245" type="line"/>
      <point x="238.8582797093769" y="304.45668811624927" type="line"/>
      <point x="261.1417202906231" y="295.54331188375073" type="line"/>
      <point x="141.1417202906231" y="-4.456688116249245" type="line"/>
    </contour>
    <contour>
      <point x="358.8582797093769" y="-4.456688116249245" type="line"/>
      <point x="238.8582797093769" y="295.54331188375073" type="line"/>
      <point x="261.1417202906231" y="304.45668811624927" type="line"/>
      <point x="381.1417202906231" y="4.456688116249245" type="line"/>
    </contour>
  </outline>
</glyph>
<glyph name="x" format="2">
  <advance width="540"/>
  <unicode hex="0078"/>
  <outline>
    <contour>
      <point x="80.0675354443319" y="561.5302932611883" type="line"/>
      <point x="440.0675354443319" y="6.530293261188262" type="line"/>
      <point x="419.9324645556681" y="-6.530293261188262" type="line"/>
      <point x="59.9324645556681" y="548.4697067388117" type="line"/>
    </contour>
    <contour>
      <point x="440.0675354443319" y="548.4697067388117" type="line"/>
      <point x="80.0675354443319" y="-6.530293261188262" type="line"/>
      <point x="59.9324645556681" y="6.530293261188262" type="line"/>
      <point x="419.9324645556681" y="561.5302932611883" type="line"/>
    </contour>
  </outline>
</glyph>
<glyph name="y" format="2">
  <advance width="540"/>
  <unicode hex="0079"/>
  <outline>
    <contour>
      <point x="86.44454916524666" y="558.6086416286814" type="line"/>
      <point x="261.44454916524666" y="3.6086416286813763" type="line"/>
      <point x="238.55545083475334" y="-3.6086416286813763" type="line"/>
      <point x="63.555450834753344" y="551.3913583713186" type="line"/>
    </contour>
    <contour>
      <point x="436.44454916524666" y="551.3913583713186" type="line"/>
      <point x="261.44454916524666" y="-3.6086416286813763" type="line"/>
      <point x="238.55545083475334" y="3.6086416286813763" type="line"/>
      <point x="413.55545083475334" y="558.6086416286814" type="line"/>
    </contour>
    <contour>
      <point x="218" y="-210" type="line"/>
      <point x="242" y="-210" type="line"/>
      <point x="242" y="-110" type="line"/>
      <point x="218" y="-110" type="line"/>
    </contour>
    <contour>
      <point x="38" y="0" type="line"/>
      <point x="138" y="0" type="line"/>
      <point x="138" y="18" type="line"/>
      <point x="38" y="18" type="line"/>
    </contour>
    <contour>
      <point x="362" y="-210" type="line"/>
      <point x="462" y="-210" type="line"/>
      <point x="462" y="-192" type="line"/>
      <point x="362" y="-192" type="line"/>
    </contour>
  </outline>
</glyph>
<glyph name="z" format="2">
  <advance width="540"/>
  <unicode hex="007A"/>
  <outline>
    <contour>
      <point x="70" y="531" type="line"/>
      <point x="430" y="531" type="line"/>
      <point x="430" y="555" type="line"/>
      <point x="70" y="555" type="line"/>
    </contour>
    <contour>
      <point x="420.2779407516348" y="536.8061374001447" type="line"/>
      <point x="100.27794075163477" y="5.806137400144772" type="line"/>
      <point x="79.72205924836523" y="18.19386259985523" type="line"/>
      <point x="399.7220592483652" y="549.1938625998553" type="line"/>
    </contour>
    <contour>
      <point x="70" y="0" type="line"/>
      <point x="430" y="0" type="line"/>
      <point x="430" y="24" type="line"/>
      <point x="70" y="24" type="line"/>
    </contour>
  </outline>
</glyph>
<glyph name="uni00A1" format="2">
  <advance width="500"/>
  <unicode hex="00A1"/>
  <outline>
    <contour>
      <point x="238.0" y="0" type="line"/>
      <point x="262.0" y="0" type="line"/>
      <point x="262.0" y="425" type="line"/>
      <point x="238.0" y="425" type="line"/>
    </contour>
    <contour>
      <point x="262.0" y="520" type="curve" smooth="yes"/>
      <point x="262.0" y="526.627417"/>
      <point x="256.627417" y="532.0"/>
      <point x="250.0" y="532.0" type="curve" smooth="yes"/>
      <point x="243.372583" y="532.0"/>
      <point x="238.0" y="526.627417"/>
      <point x="238.0" y="520" type="curve" smooth="yes"/>
      <point x="238.0" y="513.372583"/>
      <point x="243.372583" y="508.0"/>
      <point x="250.0" y="508.0" type="curve" smooth="yes"/>
      <point x="256.627417" y="508.0"/>
      <point x="262.0" y="513.372583"/>
    </contour>
  </outline>
</glyph>
<glyph name="uni00A9" format="2">
  <advance width="500"/>
  <unicode hex="00A9"/>
  <outline>
    <contour>
      <point x="440.0" y="350" type="curve" smooth="yes"/>
      <point x="440.0" y="493.59403499999996"/>
      <point x="354.9341025" y="610"/>
      <point x="250.0" y="610" type="curve" smooth="yes"/>
      <point x="145.0658975" y="610"/>
      <point x="60.0" y="493.59403499999996"/>
      <point x="60.0" y="350" type="curve" smooth="yes"/>
      <point x="60.0" y="206.405965"/>
      <point x="145.0658975" y="90"/>
      <point x="250.0" y="90" type="curve" smooth="yes"/>
      <point x="354.9341025" y="90"/>
      <point x="440.0" y="206.405965"/>
    </contour>
    <contour>
      <point x="416.0" y="350" type="curve" smooth="yes"/>
      <point x="416.0" y="219.660799"/>
      <point x="341.6792685" y="114"/>
      <point x="250.0" y="114" type="curve" smooth="yes"/>
      <point x="158.32073150000002" y="114"/>
      <point x="84.0" y="219.660799"/>
      <point x="84.0" y="350" type="curve" smooth="yes"/>
      <point x="84.0" y="480.339201"/>
      <point x="158.32073150000002" y="586"/>
      <point x="250.0" y="586" type="curve" smooth="yes"/>
      <point x="341.6792685" y="586"/>
      <point x="416.0" y="480.339201"/>
    </contour>
    <contour>
      <point x="195.0" y="180" type="line"/>
      <point x="219.0" y="180" type="line"/>
      <point x="219.0" y="520" type="line"/>
      <point x="195.0" y="520" type="line"/>
    </contour>
    <contour>
      <point x="240.0" y="180" type="line"/>
      <point x="350.0" y="180" type="line"/>
      <point x="350.0" y="204" type="line"/>
      <point x="240.0" y="204" type="line"/>
    </contour>
    <contour>
      <point x="240.0" y="480" type="line"/>
      <point x="350.0" y="480" type="line"/>
      <point x="350.0" y="504" type="line"/>
      <point x="240.0" y="504" type="line"/>
    </contour>
  </outline>
</glyph>
<glyph name="uni00AE" format="2">
  <advance width="500"/>
  <unicode hex="00AE"/>
  <outline>
    <contour>
      <point x="440.0" y="350" type="curve" smooth="yes"/>
      <point x="440.0" y="493.59403499999996"/>
      <point x="354.9341025" y="610"/>
      <point x="250.0" y="610" type="curve" smooth="yes"/>
      <point x="145.0658975" y="610"/>
      <point x="60.0" y="493.59403499999996"/>
      <point x="60.0" y="350" type="curve" smooth="yes"/>
      <point x="60.0" y="206.405965"/>
      <point x="145.0658975" y="90"/>
      <point x="250.0" y="90" type="curve" smooth="yes"/>
      <point x="354.9341025" y="90"/>
      <point x="440.0" y="206.405965"/>
    </contour>
    <contour>
      <point x="416.0" y="350" type="curve" smooth="yes"/>
      <point x="416.0" y="219.660799"/>
      <point x="341.6792685" y="114"/>
      <point x="250.0" y="114" type="curve" smooth="yes"/>
      <point x="158.32073150000002" y="114"/>
      <point x="84.0" y="219.660799"/>
      <point x="84.0" y="350" type="curve" smooth="yes"/>
      <point x="84.0" y="480.339201"/>
      <point x="158.32073150000002" y="586"/>
      <point x="250.0" y="586" type="curve" smooth="yes"/>
      <point x="341.6792685" y="586"/>
      <point x="416.0" y="480.339201"/>
    </contour>
    <contour>
      <point x="188.0" y="225" type="line"/>
      <point x="212.0" y="225" type="line"/>
      <point x="212.0" y="450" type="line"/>
      <point x="188.0" y="450" type="line"/>
    </contour>
    <contour>
      <point x="188.0" y="410" type="line"/>
      <point x="276.0" y="410" type="line"/>
      <point x="276.0" y="434" type="line"/>
      <point x="188.0" y="434" type="line"/>
    </contour>
    <contour>
      <point x="258.0" y="340" type="line"/>
      <point x="282.0" y="340" type="line"/>
      <point x="282.0" y="435" type="line"/>
      <point x="258.0" y="435" type="line"/>
    </contour>
    <contour>
      <point x="256.56270248069063" y="345.69467438089407" type="line"/>
      <point x="318.56270248069063" y="230.6946743808941" type="line"/>
      <point x="297.43729751930937" y="219.3053256191059" type="line"/>
      <point x="235.43729751930934" y="334.30532561910593" type="line"/>
    </contour>
  </outline>
</glyph>
<glyph name="uni00B0" format="2">
  <advance width="500"/>
  <unicode hex="00B0"/>
  <outline>
    <contour>
      <point x="320.0" y="500" type="curve" smooth="yes"/>
      <point x="320.0" y="538.6599325"/>
      <point x="288.65993249999997" y="570"/>
      <point x="250.0" y="570" type="curve" smooth="yes"/>
      <point x="211.3400675" y="570"/>
      <point x="180.0" y="538.6599325"/>
      <point x="180.0" y="500" type="curve" smooth="yes"/>
      <point x="180.0" y="461.34006750000003"/>
      <point x="211.3400675" y="430"/>
      <point x="250.0" y="430" type="curve" smooth="yes"/>
      <point x="288.65993249999997" y="430"/>
      <point x="320.0" y="461.34006750000003"/>
    </contour>
    <contour>
      <point x="296.0" y="500" type="curve" smooth="yes"/>
      <point x="296.0" y="474.5949015"/>
      <point x="275.4050985" y="454"/>
      <point x="250.0" y="454" type="curve" smooth="yes"/>
      <point x="224.5949015" y="454"/>
      <point x="204.0" y="474.5949015"/>
      <point x="204.0" y="500" type="curve" smooth="yes"/>
      <point x="204.0" y="525.4050985"/>
      <point x="224.5949015" y="546"/>
      <point x="250.0" y="546" type="curve" smooth="yes"/>
      <point x="275.4050985" y="546"/>
      <point x="296.0" y="525.4050985"/>
    </contour>
  </outline>
</glyph>
<glyph name="uni00B7" format="2">
  <advance width="500"/>
  <unicode hex="00B7"/>
  <outline>
    <contour>
      <point x="262.0" y="280" type="curve" smooth="yes"/>
      <point x="262.0" y="286.627417"/>
      <point x="256.627417" y="292.0"/>
      <point x="250.0" y="292.0" type="curve" smooth="yes"/>
      <point x="243.372583" y="292.0"/>
      <point x="238.0" y="286.627417"/>
      <point x="238.0" y="280" type="curve" smooth="yes"/>
      <point x="238.0" y="273.372583"/>
      <point x="243.372583" y="268.0"/>
      <point x="250.0" y="268.0" type="curve" smooth="yes"/>
      <point x="256.627417" y="268.0"/>
      <point x="262.0" y="273.372583"/>
    </contour>
  </outline>
</glyph>
<glyph name="uni00C4" format="2">
  <advance width="540"/>
  <unicode hex="00C4"/>
  <outline>
    <contour>
      <point x="241.0" y="764" type="curve" smooth="yes"/>
      <point x="241.0" y="768.97056275"/>
      <point x="236.97056275" y="773.0"/>
      <point x="232.0" y="773.0" type="curve" smooth="yes"/>
      <point x="227.02943725" y="773.0"/>
      <point x="223.0" y="768.97056275"/>
      <point x="223.0" y="764" type="curve" smooth="yes"/>
      <point x="223.0" y="759.02943725"/>
      <point x="227.02943725" y="755.0"/>
      <point x="232.0" y="755.0" type="curve" smooth="yes"/>
      <point x="236.97056275" y="755.0"/>
      <point x="241.0" y="759.02943725"/>
    </contour>
    <contour>
      <point x="317.0" y="764" type="curve" smooth="yes"/>
      <point x="317.0" y="768.97056275"/>
      <point x="312.97056275" y="773.0"/>
      <point x="308.0" y="773.0" type="curve" smooth="yes"/>
      <point x="303.02943725" y="773.0"/>
      <point x="299.0" y="768.97056275"/>
      <point x="299.0" y="764" type="curve" smooth="yes"/>
      <point x="299.0" y="759.02943725"/>
      <point x="303.02943725" y="755.0"/>
      <point x="308.0" y="755.0" type="curve" smooth="yes"/>
      <point x="312.97056275" y="755.0"/>
      <point x="317.0" y="759.02943725"/>
    </contour>
    <component base="A"/>
  </outline>
</glyph>
<glyph name="uni00CE" format="2">
  <advance width="290"/>
  <unicode hex="00CE"/>
  <outline>
    <contour>
      <point x="80.19544837391626" y="726.8905073778038" type="line"/>
      <point x="138.19544837391626" y="793.8905073778038" type="line"/>
      <point x="151.80455162608374" y="782.1094926221962" type="line"/>
      <point x="93.80455162608374" y="715.1094926221962" type="line"/>
    </contour>
    <contour>
      <point x="151.80455162608374" y="793.8905073778038" type="line"/>
      <point x="209.80455162608374" y="726.8905073778038" type="line"/>
      <point x="196.19544837391626" y="715.1094926221962" type="line"/>
      <point x="138.19544837391626" y="782.1094926221962" type="line"/>
    </contour>
    <component base="I"/>
  </outline>
</glyph>
<glyph name="uni00D0" format="2">
  <advance width="540"/>
  <unicode hex="00D0"/>
  <outline>
    <contour>
      <point x="137.67899568220048" y="103.87934129334884" type="line"/>
      <point x="386.07899568220046" y="623.8793412933488" type="line"/>
      <point x="402.3210043177995" y="616.1206587066512" type="line"/>
      <point x="153.92100431779954" y="96.12065870665116" type="line"/>
    </contour>
    <component base="D"/>
  </outline>
</glyph>
<glyph name="uni00D5" format="2">
  <advance width="540"/>
  <unicode hex="00D5"/>
  <outline>
    <contour>
      <point x="206.83883890073005" y="763.3730872846713" type="line"/>
      <point x="246.83883890073005" y="791.3730872846713" type="line"/>
      <point x="257.16116109927" y="776.6269127153287" type="line"/>
      <point x="217.16116109926995" y="748.6269127153287" type="line"/>
    </contour>
    <contour>
      <point x="257.16116109927" y="791.3730872846713" type="line"/>
      <point x="297.16116109927" y="763.3730872846713" type="line"/>
      <point x="286.83883890073" y="748.6269127153287" type="line"/>
      <point x="246.83883890073005" y="776.6269127153287" type="line"/>
    </contour>
    <contour>
      <point x="286.66120865755136" y="763.2455025361803" type="line"/>
      <point x="324.66120865755136" y="791.2455025361803" type="line"/>
      <point x="335.33879134244864" y="776.7544974638197" type="line"/>
      <point x="297.33879134244864" y="748.7544974638197" type="line"/>
    </contour>
    <component base="O"/>
  </outline>
</glyph>
<glyph name="uni00D7" format="2">
  <advance width="500"/>
  <unicode hex="00D7"/>
  <outline>
    <contour>
      <point x="111.51471862576143" y="218.48528137423858" type="line"/>
      <point x="371.5147186257614" y="478.4852813742386" type="line"/>
      <point x="388.4852813742386" y="461.5147186257614" type="line"/>
      <point x="128.48528137423858" y="201.51471862576142" type="line"/>
    </contour>
    <contour>
      <point x="371.5147186257614" y="201.51471862576142" type="line"/>
      <point x="111.51471862576143" y="461.5147186257614" type="line"/>
      <point x="128.48528137423858" y="478.4852813742386" type="line"/>
      <point x="388.4852813742386" y="218.48528137423858" type="line"/>
    </contour>
  </outline>
</glyph>
<glyph name="uni00E2" format="2">
  <advance width="540"/>
  <unicode hex="00E2"/>
  <outline>
    <contour>
      <point x="205.19544837391626" y="577.8905073778038" type="line"/>
      <point x="263.1954483739163" y="644.8905073778038" type="line"/>
      <point x="276.8045516260837" y="633.1094926221962" type="line"/>
      <point x="218.80455162608374" y="566.1094926221962" type="line"/>
    </contour>
    <contour>
      <point x="276.8045516260837" y="644.8905073778038" type="line"/>
      <point x="334.8045516260837" y="577.8905073778038" type="line"/>
      <point x="321.1954483739163" y="566.1094926221962" type="line"/>
      <point x="263.1954483739163" y="633.1094926221962" type="line"/>
    </contour>
    <component base="a"/>
  </outline>
</glyph>
<glyph name="uni00ED" format="2">
  <advance width="290"/>
  <unicode hex="00ED"/>
  <outline>
    <contour>
      <point x="100.55393370669577" y="561.2807825421938" type="line"/>
      <point x="176.55393370669577" y="639.2807825421938" type="line"/>
      <point x="189.44606629330423" y="626.7192174578062" type="line"/>
      <point x="113.44606629330423" y="548.7192174578062" type="line"/>
    </contour>
    <component base="i"/>
  </outline>
</glyph>
<glyph name="uni00EF" format="2">
  <advance width="290"/>
  <unicode hex="00EF"/>
  <outline>
    <contour>
      <point x="116.0" y="615" type="curve" smooth="yes"/>
      <point x="116.0" y="619.97056275"/>
      <point x="111.97056275" y="624.0"/>
      <point x="107.0" y="624.0" type="curve" smooth="yes"/>
      <point x="102.02943725" y="624.0"/>
      <point x="98.0" y="619.97056275"/>
      <point x="98.0" y="615" type="curve" smooth="yes"/>
      <point x="98.0" y="610.02943725"/>
      <point x="102.02943725" y="606.0"/>
      <point x="107.0" y="606.0" type="curve" smooth="yes"/>
      <point x="111.97056275" y="606.0"/>
      <point x="116.0" y="610.02943725"/>
    </contour>
    <contour>
      <point x="192.0" y="615" type="curve" smooth="yes"/>
      <point x="192.0" y="619.97056275"/>
      <point x="187.97056275" y="624.0"/>
      <point x="183.0" y="624.0" type="curve" smooth="yes"/>
      <point x="178.02943725" y="624.0"/>
      <point x="174.0" y="619.97056275"/>
      <point x="174.0" y="615" type="curve" smooth="yes"/>
      <point x="174.0" y="610.02943725"/>
      <point x="178.02943725" y="606.0"/>
      <point x="183.0" y="606.0" type="curve" smooth="yes"/>
      <point x="187.97056275" y="606.0"/>
      <point x="192.0" y="610.02943725"/>
    </contour>
    <component base="i"/>
  </outline>
</glyph>
<glyph name="uni00F2" format="2">
  <advance width="540"/>
  <unicode hex="00F2"/>
  <outline>
    <contour>
      <point x="314.4460662933042" y="626.7192174578062" type="line"/>
      <point x="238.44606629330423" y="548.7192174578062" type="line"/>
      <point x="225.55393370669577" y="561.2807825421938" type="line"/>
      <point x="301.5539337066958" y="639.2807825421938" type="line"/>
    </contour>
    <component base="o"/>
  </outline>
</glyph>
<glyph name="uni00F5" format="2">
  <advance width="540"/>
  <unicode hex="00F5"/>
  <outline>
    <contour>
      <point x="206.83883890073005" y="614.3730872846713" type="line"/>
      <point x="246.83883890073005" y="642.3730872846713" type="line"/>
      <point x="257.16116109927" y="627.6269127153287" type="line"/>
      <point x="217.16116109926995" y="599.6269127153287" type="line"/>
    </contour>
    <contour>
      <point x="257.16116109927" y="642.3730872846713" type="line"/>
      <point x="297.16116109927" y="614.3730872846713" type="line"/>
      <point x="286.83883890073" y="599.6269127153287" type="line"/>
      <point x="246.83883890073005" y="627.6269127153287" type="line"/>
    </contour>
    <contour>
      <point x="286.66120865755136" y="614.2455025361803" type="line"/>
      <point x="324.66120865755136" y="642.2455025361803" type="line"/>
      <point x="335.33879134244864" y="627.7544974638197" type="line"/>
      <point x="297.33879134244864" y="599.7544974638197" type="line"/>
    </contour>
    <component base="o"/>
  </outline>
</glyph>
<glyph name="uni00F7" format="2">
  <advance width="500"/>
  <unicode hex="00F7"/>
  <outline>
    <contour>
      <point x="100.0" y="320" type="line"/>
      <point x="400.0" y="320" type="line"/>
      <point x="400.0" y="344" type="line"/>
      <point x="100.0" y="344" type="line"/>
    </contour>
    <contour>
      <point x="262.0" y="500" type="curve" smooth="yes"/>
      <point x="262.0" y="506.627417"/>
      <point x="256.627417" y="512.0"/>
      <point x="250.0" y="512.0" type="curve" smooth="yes"/>
      <point x="243.372583" y="512.0"/>
      <point x="238.0" y="506.627417"/>
      <point x="238.0" y="500" type="curve" smooth="yes"/>
      <point x="238.0" y="493.372583"/>
      <point x="243.372583" y="488.0"/>
      <point x="250.0" y="488.0" type="curve" smooth="yes"/>
      <point x="256.627417" y="488.0"/>
      <point x="262.0" y="493.372583"/>
    </contour>
    <contour>
      <point x="262.0" y="140" type="curve" smooth="yes"/>
      <point x="262.0" y="146.627417"/>
      <point x="256.627417" y="152.0"/>
      <point x="250.0" y="152.0" type="curve" smooth="yes"/>
      <point x="243.372583" y="152.0"/>
      <point x="238.0" y="146.627417"/>
      <point x="238.0" y="140" type="curve" smooth="yes"/>
      <point x="238.0" y="133.372583"/>
      <point x="243.372583" y="128.0"/>
      <point x="250.0" y="128.0" type="curve" smooth="yes"/>
      <point x="256.627417" y="128.0"/>
      <point x="262.0" y="133.372583"/>
    </contour>
  </outline>
</glyph>
<glyph name="uni0100" format="2">
  <advance width="540"/>
  <unicode hex="0100"/>
  <outline>
    <contour>
      <point x="202.0" y="746" type="line"/>
      <point x="338.0" y="746" type="line"/>
      <point x="338.0" y="764" type="line"/>
      <point x="202.0" y="764" type="line"/>
    </contour>
    <component base="A"/>
  </outline>
</glyph>
<glyph name="uni010A" format="2">
  <advance width="540"/>
  <unicode hex="010A"/>
  <outline>
    <contour>
      <point x="279.0" y="764" type="curve" smooth="yes"/>
      <point x="279.0" y="768.97056275"/>
      <point x="274.97056275" y="773.0"/>
      <point x="270.0" y="773.0" type="curve" smooth="yes"/>
      <point x="265.02943725" y="773.0"/>
      <point x="261.0" y="768.97056275"/>
      <point x="261.0" y="764" type="curve" smooth="yes"/>
      <point x="261.0" y="759.02943725"/>
      <point x="265.02943725" y="755.0"/>
      <point x="270.0" y="755.0" type="curve" smooth="yes"/>
      <point x="274.97056275" y="755.0"/>
      <point x="279.0" y="759.02943725"/>
    </contour>
    <component base="C"/>
  </outline>
</glyph>
<glyph name="uni010C" format="2">
  <advance width="540"/>
  <unicode hex="010C"/>
  <outline>
    <contour>
      <point x="218.80455162608374" y="793.8905073778038" type="line"/>
      <point x="276.8045516260837" y="726.8905073778038" type="line"/>
      <point x="263.1954483739163" y="715.1094926221962" type="line"/>
      <point x="205.19544837391626" y="782.1094926221962" type="line"/>
    </contour>
    <contour>
      <point x="263.1954483739163" y="726.8905073778038" type="line"/>
      <point x="321.1954483739163" y="793.8905073778038" type="line"/>
      <point x="334.8045516260837" y="782.1094926221962" type="line"/>
      <point x="276.8045516260837" y="715.1094926221962" type="line"/>
    </contour>
    <component base="C"/>
  </outline>
</glyph>
<glyph name="uni0117" format="2">
  <advance width="540"/>
  <unicode hex="0117"/>
  <outline>
    <contour>
      <point x="279.0" y="615" type="curve" smooth="yes"/>
      <point x="279.0" y="619.97056275"/>
      <point x="274.97056275" y="624.0"/>
      <point x="270.0" y="624.0" type="curve" smooth="yes"/>
      <point x="265.02943725" y="624.0"/>
      <point x="261.0" y="619.97056275"/>
      <point x="261.0" y="615" type="curve" smooth="yes"/>
      <point x="261.0" y="610.02943725"/>
      <point x="265.02943725" y="606.0"/>
      <point x="270.0" y="606.0" type="curve" smooth="yes"/>
      <point x="274.97056275" y="606.0"/>
      <point x="279.0" y="610.02943725"/>
    </contour>
    <component base="e"/>
  </outline>
</glyph>
<glyph name="uni011B" format="2">
  <advance width="540"/>
  <unicode hex="011B"/>
  <outline>
    <contour>
      <point x="218.80455162608374" y="644.8905073778038" type="line"/>
      <point x="276.8045516260837" y="577.8905073778038" type="line"/>
      <point x="263.1954483739163" y="566.1094926221962" type="line"/>
      <point x="205.19544837391626" y="633.1094926221962" type="line"/>
    </contour>
    <contour>
      <point x="263.1954483739163" y="577.8905073778038" type="line"/>
      <point x="321.1954483739163" y="644.8905073778038" type="line"/>
      <point x="334.8045516260837" y="633.1094926221962" type="line"/>
      <point x="276.8045516260837" y="566.1094926221962" type="line"/>
    </contour>
    <component base="e"/>
  </outline>
</glyph>
<glyph name="uni012E" format="2">
  <advance width="290"/>
  <unicode hex="012E"/>
  <outline>
    <contour>
      <point x="165.75576348838518" y="12.082451856697016" type="line"/>
      <point x="209.75576348838518" y="-172.91754814330298" type="line"/>
      <point x="192.24423651161482" y="-177.08245185669702" type="line"/>
      <point x="148.24423651161482" y="7.917548143302983" type="line"/>
    </contour>
    <component base="I"/>
  </outline>
</glyph>
<glyph name="uni0130" format="2">
  <advance width="290"/>
  <unicode hex="0130"/>
  <outline>
    <contour>
      <point x="154.0" y="764" type="curve" smooth="yes"/>
      <point x="154.0" y="768.97056275"/>
      <point x="149.97056275" y="773.0"/>
      <point x="145.0" y="773.0" type="curve" smooth="yes"/>
      <point x="140.02943725" y="773.0"/>
      <point x="136.0" y="768.97056275"/>
      <point x="136.0" y="764" type="curve" smooth="yes"/>
      <point x="136.0" y="759.02943725"/>
      <point x="140.02943725" y="755.0"/>
      <point x="145.0" y="755.0" type="curve" smooth="yes"/>
      <point x="149.97056275" y="755.0"/>
      <point x="154.0" y="759.02943725"/>
    </contour>
    <component base="I"/>
  </outline>
</glyph>
<glyph name="uni0134" format="2">
  <advance width="540"/>
  <unicode hex="0134"/>
  <outline>
    <contour>
      <point x="205.19544837391626" y="726.8905073778038" type="line"/>
      <point x="263.1954483739163" y="793.8905073778038" type="line"/>
      <point x="276.8045516260837" y="782.1094926221962" type="line"/>
      <point x="218.80455162608374" y="715.1094926221962" type="line"/>
    </contour>
    <contour>
      <point x="276.8045516260837" y="793.8905073778038" type="line"/>
      <point x="334.8045516260837" y="726.8905073778038" type="line"/>
      <point x="321.1954483739163" y="715.1094926221962" type="line"/>
      <point x="263.1954483739163" y="782.1094926221962" type="line"/>
    </contour>
    <component base="J"/>
  </outline>
</glyph>
<glyph name="uni0137" format="2">
  <advance width="540"/>
  <unicode hex="0137"/>
  <outline>
    <contour>
      <point x="279.0" y="-105.0" type="curve" smooth="yes"/>
      <point x="279.0" y="-100.02943725"/>
      <point x="274.97056275" y="-96.0"/>
      <point x="270.0" y="-96.0" type="curve" smooth="yes"/>
      <point x="265.02943725" y="-96.0"/>
      <point x="261.0" y="-100.02943725"/>
      <point x="261.0" y="-105.0" type="curve" smooth="yes"/>
      <point x="261.0" y="-109.97056275"/>
      <point x="265.02943725" y="-114.0"/>
      <point x="270.0" y="-114.0" type="curve" smooth="yes"/>
      <point x="274.97056275" y="-114.0"/>
      <point x="279.0" y="-109.97056275"/>
    </contour>
    <contour>
      <point x="278.86969111921337" y="-13.525968364595851" type="line"/>
      <point x="246.86969111921337" y="-199.52596836459585" type="line"/>
      <point x="229.13030888078663" y="-196.47403163540415" type="line"/>
      <point x="261.13030888078663" y="-10.474031635404149" type="line"/>
    </contour>
    <component base="k"/>
  </outline>
</glyph>
<glyph name="uni0139" format="2">
  <advance width="540"/>
  <unicode hex="0139"/>
  <outline>
    <contour>
      <point x="225.55393370669577" y="710.2807825421938" type="line"/>
      <point x="301.5539337066958" y="788.2807825421938" type="line"/>
      <point x="314.4460662933042" y="775.7192174578062" type="line"/>
      <point x="238.44606629330423" y="697.7192174578062" type="line"/>
    </contour>
    <component base="L"/>
  </outline>
</glyph>
<glyph name="uni013C" format="2">
  <advance width="290"/>
  <unicode hex="013C"/>
  <outline>
    <contour>
      <point x="154.0" y="-105.0" type="curve" smooth="yes"/>
      <point x="154.0" y="-100.02943725"/>
      <point x="149.97056275" y="-96.0"/>
      <point x="145.0" y="-96.0" type="curve" smooth="yes"/>
      <point x="140.02943725" y="-96.0"/>
      <point x="136.0" y="-100.02943725"/>
      <point x="136.0" y="-105.0" type="curve" smooth="yes"/>
      <point x="136.0" y="-109.97056275"/>
      <point x="140.02943725" y="-114.0"/>
      <point x="145.0" y="-114.0" type="curve" smooth="yes"/>
      <point x="149.97056275" y="-114.0"/>
      <point x="154.0" y="-109.97056275"/>
    </contour>
    <contour>
      <point x="153.86969111921337" y="-13.525968364595851" type="line"/>
      <point x="121.86969111921337" y="-199.52596836459585" type="line"/>
      <point x="104.13030888078663" y="-196.47403163540415" type="line"/>
      <point x="136.13030888078663" y="-10.474031635404149" type="line"/>
    </contour>
    <component base="l"/>
  </outline>
</glyph>
<glyph name="uni013E" format="2">
  <advance width="290"/>
  <unicode hex="013E"/>
  <outline>
    <contour>
      <point x="93.80455162608374" y="644.8905073778038" type="line"/>
      <point x="151.80455162608374" y="577.8905073778038" type="line"/>
      <point x="138.19544837391626" y="566.1094926221962" type="line"/>
      <point x="80.19544837391626" y="633.1094926221962" type="line"/>
    </contour>
    <contour>
      <point x="138.19544837391626" y="577.8905073778038" type="line"/>
      <point x="196.19544837391626" y="644.8905073778038" type="line"/>
      <point x="209.80455162608374" y="633.1094926221962" type="line"/>
      <point x="151.80455162608374" y="566.1094926221962" type="line"/>
    </contour>
    <component base="l"/>
  </outline>
</glyph>
<glyph name="uni013F" format="2">
  <advance width="540"/>
  <unicode hex="013F"/>
  <outline>
    <contour>
      <point x="406.2" y="266.4" type="curve" smooth="yes"/>
      <point x="406.2" y="273.02741699999996"/>
      <point x="400.82741699999997" y="278.4"/>
      <point x="394.2" y="278.4" type="curve" smooth="yes"/>
      <point x="387.572583" y="278.4"/>
      <point x="382.2" y="273.02741699999996"/>
      <point x="382.2" y="266.4" type="curve" smooth="yes"/>
      <point x="382.2" y="259.772583"/>
      <point x="387.572583" y="254.39999999999998"/>
      <point x="394.2" y="254.39999999999998" type="curve" smooth="yes"/>
      <point x="400.82741699999997" y="254.39999999999998"/>
      <point x="406.2" y="259.772583"/>
    </contour>
    <component base="L"/>
  </outline>
</glyph>
<glyph name="uni0140" format="2">
  <advance width="290"/>
  <unicode hex="0140"/>
  <outline>
    <contour>
      <point x="223.7" y="266.4" type="curve" smooth="yes"/>
      <point x="223.7" y="273.02741699999996"/>
      <point x="218.327417" y="278.4"/>
      <point x="211.7" y="278.4" type="curve" smooth="yes"/>
      <point x="205.07258299999998" y="278.4"/>
      <point x="199.7" y="273.02741699999996"/>
      <point x="199.7" y="266.4" type="curve" smooth="yes"/>
      <point x="199.7" y="259.772583"/>
      <point x="205.07258299999998" y="254.39999999999998"/>
      <point x="211.7" y="254.39999999999998" type="curve" smooth="yes"/>
      <point x="218.327417" y="254.39999999999998"/>
      <point x="223.7" y="259.772583"/>
    </contour>
    <component base="l"/>
  </outline>
</glyph>
<glyph name="uni0142" format="2">
  <advance width="290"/>
  <unicode hex="0142"/>
  <outline>
    <contour>
      <point x="69.58229416768708" y="102.23642684236643" type="line"/>
      <point x="202.98229416768706" y="622.2364268423664" type="line"/>
      <point x="220.41770583231292" y="617.7635731576336" type="line"/>
      <point x="87.01770583231294" y="97.76357315763357" type="line"/>
    </contour>
    <component base="l"/>
  </outline>
</glyph>
<glyph name="uni0144" format="2">
  <advance width="540"/>
  <unicode hex="0144"/>
  <outline>
    <contour>
      <point x="225.55393370669577" y="561.2807825421938" type="line"/>
      <point x="301.5539337066958" y="639.2807825421938" type="line"/>
      <point x="314.4460662933042" y="626.7192174578062" type="line"/>
      <point x="238.44606629330423" y="548.7192174578062" type="line"/>
    </contour>
    <component base="n"/>
  </outline>
</glyph>
<glyph name="uni0149" format="2">
  <advance width="540"/>
  <unicode hex="0149"/>
  <outline>
    <contour>
      <point x="160.5920818155686" y="565.7985419204651" type="line"/>
      <point x="117.3920818155686" y="635.7985419204651" type="line"/>
      <point x="131.0079181844314" y="644.2014580795349" type="line"/>
      <point x="174.2079181844314" y="574.2014580795349" type="line"/>
    </contour>
    <component base="n"/>
  </outline>
</glyph>
<glyph name="uni014D" format="2">
  <advance width="540"/>
  <unicode hex="014D"/>
  <outline>
    <contour>
      <point x="202.0" y="597" type="line"/>
      <point x="338.0" y="597" type="line"/>
      <point x="338.0" y="615" type="line"/>
      <point x="202.0" y="615" type="line"/>
    </contour>
    <component base="o"/>
  </outline>
</glyph>
<glyph name="uni0151" format="2">
  <advance width="540"/>
  <unicode hex="0151"/>
  <outline>
    <contour>
      <point x="207.63208273409202" y="577.1685389775772" type="line"/>
      <point x="254.63208273409202" y="644.1685389775772" type="line"/>
      <point x="269.367917265908" y="633.8314610224228" type="line"/>
      <point x="222.36791726590798" y="566.8314610224228" type="line"/>
    </contour>
    <contour>
      <point x="270.632082734092" y="577.1685389775772" type="line"/>
      <point x="317.632082734092" y="644.1685389775772" type="line"/>
      <point x="332.367917265908" y="633.8314610224228" type="line"/>
      <point x="285.367917265908" y="566.8314610224228" type="line"/>
    </contour>
    <component base="o"/>
  </outline>
</glyph>
<glyph name="uni016A" format="2">
  <advance width="540"/>
  <unicode hex="016A"/>
  <outline>
    <contour>
      <point x="202.0" y="746" type="line"/>
      <point x="338.0" y="746" type="line"/>
      <point x="338.0" y="764" type="line"/>
      <point x="202.0" y="764" type="line"/>
    </contour>
    <component base="U"/>
  </outline>
</glyph>
<glyph name="uni0170" format="2">
  <advance width="540"/>
  <unicode hex="0170"/>
  <outline>
    <contour>
      <point x="207.63208273409202" y="726.1685389775772" type="line"/>
      <point x="254.63208273409202" y="793.1685389775772" type="line"/>
      <point x="269.367917265908" y="782.8314610224228" type="line"/>
      <point x="222.36791726590798" y="715.8314610224228" type="line"/>
    </contour>
    <contour>
      <point x="270.632082734092" y="726.1685389775772" type="line"/>
      <point x="317.632082734092" y="793.1685389775772" type="line"/>
      <point x="332.367917265908" y="782.8314610224228" type="line"/>
      <point x="285.367917265908" y="715.8314610224228" type="line"/>
    </contour>
    <component base="U"/>
  </outline>
</glyph>
<glyph name="uni021B" format="2">
  <advance width="540"/>
  <unicode hex="021B"/>
  <outline>
    <contour>
      <point x="279.0" y="-105.0" type="curve" smooth="yes"/>
      <point x="279.0" y="-100.02943725"/>
      <point x="274.97056275" y="-96.0"/>
      <point x="270.0" y="-96.0" type="curve" smooth="yes"/>
      <point x="265.02943725" y="-96.0"/>
      <point x="261.0" y="-100.02943725"/>
      <point x="261.0" y="-105.0" type="curve" smooth="yes"/>
      <point x="261.0" y="-109.97056275"/>
      <point x="265.02943725" y="-114.0"/>
      <point x="270.0" y="-114.0" type="curve" smooth="yes"/>
      <point x="274.97056275" y="-114.0"/>
      <point x="279.0" y="-109.97056275"/>
    </contour>
    <contour>
      <point x="282.92600079970623" y="-13.15174203867177" type="line"/>
      <point x="258.92600079970623" y="-199.15174203867178" type="line"/>
      <point x="241.07399920029377" y="-196.84825796132822" type="line"/>
      <point x="265.07399920029377" y="-10.84825796132823" type="line"/>
    </contour>
    <component base="t"/>
  </outline>
</glyph>
<glyph name="uni038A" format="2">
  <advance width="290"/>
  <unicode hex="038A"/>
  <outline>
    <contour>
      <point x="100.55393370669577" y="710.2807825421938" type="line"/>
      <point x="176.55393370669577" y="788.2807825421938" type="line"/>
      <point x="189.44606629330423" y="775.7192174578062" type="line"/>
      <point x="113.44606629330423" y="697.7192174578062" type="line"/>
    </contour>
    <component base="I"/>
  </outline>
</glyph>
<glyph name="uni0390" format="2">
  <advance width="290"/>
  <unicode hex="0390"/>
  <outline>
    <contour>
      <point x="116.0" y="615" type="curve"/>
      <point x="116.0" y="619.97056275"/>
      <point x="111.97056275" y="624.0"/>
      <point x="107.0" y="624.0" type="curve"/>
      <point x="102.02943725" y="624.0"/>
      <point x="98.0" y="619.97056275"/>
      <point x="98.0" y="615" type="curve"/>
      <point x="98.0" y="610.02943725"/>
      <point x="102.02943725" y="606.0"/>
      <point x="107.0" y="606.0" type="curve"/>
      <point x="111.97056275" y="606.0"/>
      <point x="116.0" y="610.02943725"/>
    </contour>
    <contour>
      <point x="192.0" y="615" type="curve"/>
      <point x="192.0" y="619.97056275"/>
      <point x="187.97056275" y="624.0"/>
      <point x="183.0" y="624.0" type="curve"/>
      <point x="178.02943725" y="624.0"/>
      <point x="174.0" y="619.97056275"/>
      <point x="174.0" y="615" type="curve"/>
      <point x="174.0" y="610.02943725"/>
      <point x="178.02943725" y="606.0"/>
      <point x="183.0" y="606.0" type="curve"/>
      <point x="187.97056275" y="606.0"/>
      <point x="192.0" y="610.02943725"/>
    </contour>
    <contour>
      <point x="100.55393370669577" y="561.2807825421938" type="line"/>
      <point x="176.55393370669577" y="639.2807825421938" type="line"/>
      <point x="189.44606629330423" y="626.7192174578062" type="line"/>
      <point x="113.44606629330423" y="548.7192174578062" type="line"/>
    </contour>
    <component base="i"/>
  </outline>
</glyph>
<glyph name="uni0393" format="2">
  <advance width="500"/>
  <unicode hex="0393"/>
  <outline>
    <contour>
      <point x="64.72" y="0" type="curve"/>
      <point x="75.28" y="0" type="line"/>
      <point x="78.99135352" y="0"/>
      <point x="82" y="3.0086464800000003"/>
      <point x="82" y="6.720000000000001" type="curve"/>
      <point x="82" y="693.28" type="line"/>
      <point x="82" y="696.99135352"/>
      <point x="78.99135352" y="700"/>
      <point x="75.28" y="700" type="curve"/>
      <point x="64.72" y="700" type="line"/>
      <point x="61.008646479999996" y="700"/>
      <point x="58" y="696.99135352"/>
      <point x="58" y="693.28" type="curve"/>
      <point x="58" y="6.720000000000001" type="line"/>
      <point x="58" y="3.0086464800000003"/>
      <point x="61.008646479999996" y="0"/>
    </contour>
    <contour>
      <point x="58" y="676" type="line"/>
      <point x="408" y="676" type="line"/>
      <point x="408" y="700" type="line"/>
      <point x="58" y="700" type="line"/>
    </contour>
    <contour>
      <point x="18" y="0" type="line"/>
      <point x="138" y="0" type="line"/>
      <point x="138" y="18" type="line"/>
      <point x="18" y="18" type="line"/>
    </contour>
    <contour>
      <point x="18" y="682" type="line"/>
      <point x="138" y="682" type="line"/>
      <point x="138" y="700" type="line"/>
      <point x="18" y="700" type="line"/>
    </contour>
    <contour>
      <point x="362" y="0" type="line"/>
      <point x="482" y="0" type="line"/>
      <point x="482" y="18" type="line"/>
      <point x="362" y="18" type="line"/>
    </contour>
    <contour>
      <point x="362" y="682" type="line"/>
      <point x="482" y="682" type="line"/>
      <point x="482" y="700" type="line"/>
      <point x="362" y="700" type="line"/>
    </contour>
  </outline>
</glyph>
<glyph name="uni0394" format="2">
  <advance width="500"/>
  <unicode hex="0394"/>
  <outline>
    <contour>
      <point x="56.38612991854073" y="3.0196062211794086" type="line"/>
      <point x="238.38612991854075" y="703.0196062211794" type="line"/>
      <point x="261.61387008145925" y="696.9803937788206" type="line"/>
      <point x="79.61387008145927" y="-3.0196062211794086" type="line"/>
    </contour>
    <contour>
      <point x="420.38612991854075" y="-3.0196062211794086" type="line"/>
      <point x="238.38612991854075" y="696.9803937788206" type="line"/>
      <point x="261.61387008145925" y="703.0196062211794" type="line"/>
      <point x="443.61387008145925" y="3.0196062211794086" type="line"/>
    </contour>
    <contour>
      <point x="78.72" y="0" type="curve"/>
      <point x="421.28" y="0" type="line"/>
      <point x="424.99135351999996" y="0"/>
      <point x="428" y="3.0086464800000003"/>
      <point x="428" y="6.720000000000001" type="curve"/>
      <point x="428" y="17.28" type="line"/>
      <point x="428" y="20.99135352"/>
      <point x="424.99135351999996" y="24"/>
      <point x="421.28" y="24" type="curve"/>
      <point x="78.72" y="24" type="line"/>
      <point x="75.00864648" y="24"/>
      <point x="72" y="20.99135352"/>
      <point x="72" y="17.28" type="curve"/>
      <point x="72" y="6.720000000000001" type="line"/>
      <point x="72" y="3.0086464800000003"/>
      <point x="75.00864648" y="0"/>
    </contour>
    <contour>
      <point x="18" y="0" type="line"/>
      <point x="138" y="0" type="line"/>
      <point x="138" y="18" type="line"/>
      <point x="18" y="18" type="line"/>
    </contour>
    <contour>
      <point x="18" y="682" type="line"/>
      <point x="138" y="682" type="line"/>
      <point x="138" y="700" type="line"/>
      <point x="18" y="700" type="line"/>
    </contour>
    <contour>
      <point x="362" y="0" type="line"/>
      <point x="482" y="0" type="line"/>
      <point x="482" y="18" type="line"/>
      <point x="362" y="18" type="line"/>
    </contour>
    <contour>
      <point x="362" y="682" type="line"/>
      <point x="482" y="682" type="line"/>
      <point x="482" y="700" type="line"/>
      <point x="362" y="700" type="line"/>
    </contour>
  </outline>
</glyph>
<glyph name="uni039B" format="2">
  <advance width="500"/>
  <unicode hex="039B"/>
  <outline>
    <contour>
      <point x="56.38612991854073" y="3.0196062211794086" type="line"/>
      <point x="238.38612991854075" y="703.0196062211794" type="line"/>
      <point x="261.61387008145925" y="696.9803937788206" type="line"/>
      <point x="79.61387008145927" y="-3.0196062211794086" type="line"/>
    </contour>
    <contour>
      <point x="420.38612991854075" y="-3.0196062211794086" type="line"/>
      <point x="238.38612991854075" y="696.9803937788206" type="line"/>
      <point x="261.61387008145925" y="703.0196062211794" type="line"/>
      <point x="443.61387008145925" y="3.0196062211794086" type="line"/>
    </contour>
    <contour>
      <point x="18" y="0" type="line"/>
      <point x="138" y="0" type="line"/>
      <point x="138" y="18" type="line"/>
      <point x="18" y="18" type="line"/>
    </contour>
    <contour>
      <point x="18" y="682" type="line"/>
      <point x="138" y="682" type="line"/>
      <point x="138" y="700" type="line"/>
      <point x="18" y="700" type="line"/>
    </contour>
    <contour>
      <point x="362" y="0" type="line"/>
      <point x="482" y="0" type="line"/>
      <point x="482" y="18" type="line"/>
      <point x="362" y="18" type="line"/>
    </contour>
    <contour>
      <point x="362" y="682" type="line"/>
      <point x="482" y="682" type="line"/>
      <point x="482" y="700" type="line"/>
      <point x="362" y="700" type="line"/>
    </contour>
  </outline>
</glyph>
<glyph name="uni03A0" format="2">
  <advance width="500"/>
  <unicode hex="03A0"/>
  <outline>
    <contour>
      <point x="66.72" y="0" type="curve"/>
      <point x="77.28" y="0" type="line"/>
      <point x="80.99135352" y="0"/>
      <point x="84" y="3.0086464800000003"/>
      <point x="84" y="6.720000000000001" type="curve"/>
      <point x="84" y="693.28" type="line"/>
      <point x="84" y="696.99135352"/>
      <point x="80.99135352" y="700"/>
      <point x="77.28" y="700" type="curve"/>
      <point x="66.72" y="700" type="line"/>
      <point x="63.008646479999996" y="700"/>
      <point x="60" y="696.99135352"/>
      <point x="60" y="693.28" type="curve"/>
      <point x="60" y="6.720000000000001" type="line"/>
      <point x="60" y="3.0086464800000003"/>
      <point x="63.008646479999996" y="0"/>
    </contour>
    <contour>
      <point x="382.72" y="0" type="curve"/>
      <point x="393.28" y="0" type="line"/>
      <point x="396.99135351999996" y="0"/>
      <point x="400" y="3.0086464800000003"/>
      <point x="400" y="6.720000000000001" type="curve"/>
      <point x="400" y="693.28" type="line"/>
      <point x="400" y="696.99135352"/>
      <point x="396.99135351999996" y="700"/>
      <point x="393.28" y="700" type="curve"/>
      <point x="382.72" y="700" type="line"/>
      <point x="379.00864648000004" y="700"/>
      <point x="376" y="696.99135352"/>
      <point x="376" y="693.28" type="curve"/>
      <point x="376" y="6.720000000000001" type="line"/>
      <point x="376" y="3.0086464800000003"/>
      <point x="379.00864648000004" y="0"/>
    </contour>
    <contour>
      <point x="60" y="676" type="line"/>
      <point x="440" y="676" type="line"/>
      <point x="440" y="700" type="line"/>
      <point x="60" y="700" type="line"/>
    </contour>
    <contour>
      <point x="18" y="0" type="line"/>
      <point x="138" y="0" type="line"/>
      <point x="138" y="18" type="line"/>
      <point x="18" y="18" type="line"/>
    </contour>
    <contour>
      <point x="18" y="682" type="line"/>
      <point x="138" y="682" type="line"/>
      <point x="138" y="700" type="line"/>
      <point x="18" y="700" type="line"/>
    </contour>
    <contour>
      <point x="362" y="0" type="line"/>
      <point x="482" y="0" type="line"/>
      <point x="482" y="18" type="line"/>
      <point x="362" y="18" type="line"/>
    </contour>
    <contour>
      <point x="362" y="682" type="line"/>
      <point x="482" y="682" type="line"/>
      <point x="482" y="700" type="line"/>
      <point x="362" y="700" type="line"/>
    </contour>
  </outline>
</glyph>
<glyph name="uni03A3" format="2">
  <advance width="500"/>
  <unicode hex="03A3"/>
  <outline>
    <contour>
      <point x="88.72" y="676" type="curve"/>
      <point x="415.28" y="676" type="line"/>
      <point x="418.99135351999996" y="676"/>
      <point x="422" y="679.00864648"/>
      <point x="422" y="682.72" type="curve"/>
      <point x="422" y="693.28" type="line"/>
      <point x="422" y="696.99135352"/>
      <point x="418.99135351999996" y="700"/>
      <point x="415.28" y="700" type="curve"/>
      <point x="88.72" y="700" type="line"/>
      <point x="85.00864648" y="700"/>
      <point x="82" y="696.99135352"/>
      <point x="82" y="693.28" type="curve"/>
      <point x="82" y="682.72" type="line"/>
      <point x="82" y="679.00864648"/>
      <point x="85.00864648" y="676"/>
    </contour>
    <contour>
      <point x="407.6750395848744" y="680.9011543874294" type="line"/>
      <point x="159.67503958487444" y="342.9011543874294" type="line"/>
      <point x="140.32496041512556" y="357.0988456125706" type="line"/>
      <point x="388.3249604151256" y="695.0988456125706" type="line"/>
    </contour>
    <contour>
      <point x="159.67503958487444" y="357.0988456125706" type="line"/>
      <point x="407.6750395848744" y="19.098845612570592" type="line"/>
      <point x="388.3249604151256" y="4.9011543874294095" type="line"/>
      <point x="140.32496041512556" y="342.9011543874294" type="line"/>
    </contour>
    <contour>
      <point x="88.72" y="0" type="curve"/>
      <point x="415.28" y="0" type="line"/>
      <point x="418.99135351999996" y="0"/>
      <point x="422" y="3.0086464800000003"/>
      <point x="422" y="6.720000000000001" type="curve"/>
      <point x="422" y="17.28" type="line"/>
      <point x="422" y="20.99135352"/>
      <point x="418.99135351999996" y="24"/>
      <point x="415.28" y="24" type="curve"/>
      <point x="88.72" y="24" type="line"/>
      <point x="85.00864648" y="24"/>
      <point x="82" y="20.99135352"/>
      <point x="82" y="17.28" type="curve"/>
      <point x="82" y="6.720000000000001" type="line"/>
      <point x="82" y="3.0086464800000003"/>
      <point x="85.00864648" y="0"/>
    </contour>
    <contour>
      <point x="18" y="0" type="line"/>
      <point x="138" y="0" type="line"/>
      <point x="138" y="18" type="line"/>
      <point x="18" y="18" type="line"/>
    </contour>
    <contour>
      <point x="18" y="682" type="line"/>
      <point x="138" y="682" type="line"/>
      <point x="138" y="700" type="line"/>
      <point x="18" y="700" type="line"/>
    </contour>
    <contour>
      <point x="362" y="0" type="line"/>
      <point x="482" y="0" type="line"/>
      <point x="482" y="18" type="line"/>
      <point x="362" y="18" type="line"/>
    </contour>
    <contour>
      <point x="362" y="682" type="line"/>
      <point x="482" y="682" type="line"/>
      <point x="482" y="700" type="line"/>
      <point x="362" y="700" type="line"/>
    </contour>
  </outline>
</glyph>
<glyph name="uni03A6" format="2">
  <advance width="500"/>
  <unicode hex="03A6"/>
  <outline>
    <contour>
      <point x="428" y="350.0" type="curve"/>
      <point x="428" y="488.0711875"/>
      <point x="348.3066855" y="600.0"/>
      <point x="250" y="600.0" type="curve"/>
      <point x="151.69331449999999" y="600.0"/>
      <point x="72" y="488.0711875"/>
      <point x="72" y="350.0" type="curve"/>
      <point x="72" y="211.9288125"/>
      <point x="151.69331449999999" y="100.0"/>
      <point x="250" y="100.0" type="curve"/>
      <point x="348.3066855" y="100.0"/>
      <point x="428" y="211.9288125"/>
    </contour>
    <contour>
      <point x="404" y="350.0" type="curve"/>
      <point x="404" y="225.1836465"/>
      <point x="335.0518515" y="124.0"/>
      <point x="250" y="124.0" type="curve"/>
      <point x="164.9481485" y="124.0"/>
      <point x="96" y="225.1836465"/>
      <point x="96" y="350.0" type="curve"/>
      <point x="96" y="474.8163535"/>
      <point x="164.9481485" y="576.0"/>
      <point x="250" y="576.0" type="curve"/>
      <point x="335.0518515" y="576.0"/>
      <point x="404" y="474.8163535"/>
    </contour>
    <contour>
      <point x="244.72" y="-56" type="curve"/>
      <point x="255.28" y="-56" type="line"/>
      <point x="258.99135352" y="-56"/>
      <point x="262.0" y="-52.991353520000004"/>
      <point x="262.0" y="-49.28" type="curve"/>
      <point x="262.0" y="749.28" type="line"/>
      <point x="262.0" y="752.99135352"/>
      <point x="258.99135352" y="756"/>
      <point x="255.28" y="756" type="curve"/>
      <point x="244.72" y="756" type="line"/>
      <point x="241.00864648" y="756"/>
      <point x="238.0" y="752.99135352"/>
      <point x="238.0" y="749.28" type="curve"/>
      <point x="238.0" y="-49.28" type="line"/>
      <point x="238.0" y="-52.991353520000004"/>
      <point x="241.00864648" y="-56"/>
    </contour>
    <contour>
      <point x="18" y="0" type="line"/>
      <point x="138" y="0" type="line"/>
      <point x="138" y="18" type="line"/>
      <point x="18" y="18" type="line"/>
    </contour>
    <contour>
      <point x="18" y="682" type="line"/>
      <point x="138" y="682" type="line"/>
      <point x="138" y="700" type="line"/>
      <point x="18" y="700" type="line"/>
    </contour>
    <contour>
      <point x="362" y="0" type="line"/>
      <point x="482" y="0" type="line"/>
      <point x="482" y="18" type="line"/>
      <point x="362" y="18" type="line"/>
    </contour>
    <contour>
      <point x="362" y="682" type="line"/>
      <point x="482" y="682" type="line"/>
      <point x="482" y="700" type="line"/>
      <point x="362" y="700" type="line"/>
    </contour>
  </outline>
</glyph>
<glyph name="uni03A8" format="2">
  <advance width="500"/>
  <unicode hex="03A8"/>
  <outline>
    <contour>
      <point x="428" y="478" type="curve"/>
      <point x="428" y="575.202116"/>
      <point x="348.3066855" y="654"/>
      <point x="250" y="654" type="curve"/>
      <point x="151.69331449999999" y="654"/>
      <point x="72" y="575.202116"/>
      <point x="72" y="478" type="curve"/>
      <point x="72" y="380.797884"/>
      <point x="151.69331449999999" y="302"/>
      <point x="250" y="302" type="curve"/>
      <point x="348.3066855" y="302"/>
      <point x="428" y="380.797884"/>
    </contour>
    <contour>
      <point x="404" y="478" type="curve"/>
      <point x="404" y="394.052718"/>
      <point x="335.0518515" y="326"/>
      <point x="250" y="326" type="curve"/>
      <point x="164.9481485" y="326"/>
      <point x="96" y="394.052718"/>
      <point x="96" y="478" type="curve"/>
      <point x="96" y="561.947282"/>
      <point x="164.9481485" y="630"/>
      <point x="250" y="630" type="curve"/>
      <point x="335.0518515" y="630"/>
      <point x="404" y="561.947282"/>
    </contour>
    <contour>
      <point x="244.72" y="0" type="curve"/>
      <point x="255.28" y="0" type="line"/>
      <point x="258.99135352" y="0"/>
      <point x="262.0" y="3.0086464800000003"/>
      <point x="262.0" y="6.720000000000001" type="curve"/>
      <point x="262.0" y="463.28" type="line"/>
      <point x="262.0" y="466.99135351999996"/>
      <point x="258.99135352" y="470"/>
      <point x="255.28" y="470" type="curve"/>
      <point x="244.72" y="470" type="line"/>
      <point x="241.00864648" y="470"/>
      <point x="238.0" y="466.99135351999996"/>
      <point x="238.0" y="463.28" type="curve"/>
      <point x="238.0" y="6.720000000000001" type="line"/>
      <point x="238.0" y="3.0086464800000003"/>
      <point x="241.00864648" y="0"/>
    </contour>
    <contour>
      <point x="18" y="0" type="line"/>
      <point x="138" y="0" type="line"/>
      <point x="138" y="18" type="line"/>
      <point x="18" y="18" type="line"/>
    </contour>
    <contour>
      <point x="18" y="682" type="line"/>
      <point x="138" y="682" type="line"/>
      <point x="138" y="700" type="line"/>
      <point x="18" y="700" type="line"/>
    </contour>
    <contour>
      <point x="362" y="0" type="line"/>
      <point x="482" y="0" type="line"/>
      <point x="482" y="18" type="line"/>
      <point x="362" y="18" type="line"/>
    </contour>
    <contour>
      <point x="362" y="682" type="line"/>
      <point x="482" y="682" type="line"/>
      <point x="482" y="700" type="line"/>
      <point x="362" y="700" type="line"/>
    </contour>
  </outline>
</glyph>
<glyph name="uni03A9" format="2">
  <advance width="500"/>
  <unicode hex="03A9"/>
  <outline>
    <contour>
      <point x="64.72" y="0" type="curve"/>
      <point x="163.28" y="0" type="line"/>
      <point x="166.99135352" y="0"/>
      <point x="170" y="3.0086464800000003"/>
      <point x="170" y="6.720000000000001" type="curve"/>
      <point x="170" y="17.28" type="line"/>
      <point x="170" y="20.99135352"/>
      <point x="166.99135352" y="24"/>
      <point x="163.28" y="24" type="curve"/>
      <point x="64.72" y="24" type="line"/>
      <point x="61.008646479999996" y="24"/>
      <point x="58" y="20.99135352"/>
      <point x="58" y="17.28" type="curve"/>
      <point x="58" y="6.720000000000001" type="line"/>
      <point x="58" y="3.0086464800000003"/>
      <point x="61.008646479999996" y="0"/>
    </contour>
    <contour>
      <point x="336.72" y="0" type="curve"/>
      <point x="435.28" y="0" type="line"/>
      <point x="438.99135351999996" y="0"/>
      <point x="442" y="3.0086464800000003"/>
      <point x="442" y="6.720000000000001" type="curve"/>
      <point x="442" y="17.28" type="line"/>
      <point x="442" y="20.99135352"/>
      <point x="438.99135351999996" y="24"/>
      <point x="435.28" y="24" type="curve"/>
      <point x="336.72" y="24" type="line"/>
      <point x="333.00864648000004" y="24"/>
      <point x="330" y="20.99135352"/>
      <point x="330" y="17.28" type="curve"/>
      <point x="330" y="6.720000000000001" type="line"/>
      <point x="330" y="3.0086464800000003"/>
      <point x="333.00864648000004" y="0"/>
    </contour>
    <contour>
      <point x="92" y="44" type="line"/>
      <point x="38" y="190"/>
      <point x="68" y="708"/>
      <point x="250" y="708" type="curve"/>
      <point x="432" y="708"/>
      <point x="462" y="190"/>
      <point x="408" y="44" type="curve"/>
      <point x="344" y="44" type="line"/>
      <point x="384" y="172"/>
      <point x="360" y="642"/>
      <point x="250" y="642" type="curve"/>
      <point x="140" y="642"/>
      <point x="116" y="172"/>
      <point x="156" y="44" type="curve"/>
    </contour>
    <contour>
      <point x="18" y="0" type="line"/>
      <point x="138" y="0" type="line"/>
      <point x="138" y="18" type="line"/>
      <point x="18" y="18" type="line"/>
    </contour>
    <contour>
      <point x="18" y="682" type="line"/>
      <point x="138" y="682" type="line"/>
      <point x="138" y="700" type="line"/>
      <point x="18" y="700" type="line"/>
    </contour>
    <contour>
      <point x="362" y="0" type="line"/>
      <point x="482" y="0" type="line"/>
      <point x="482" y="18" type="line"/>
      <point x="362" y="18" type="line"/>
    </contour>
    <contour>
      <point x="362" y="682" type="line"/>
      <point x="482" y="682" type="line"/>
      <point x="482" y="700" type="line"/>
      <point x="362" y="700" type="line"/>
    </contour>
  </outline>
</glyph>
<glyph name="uni03AD" format="2">
  <advance width="500"/>
  <unicode hex="03AD"/>
  <outline>
    <contour>
      <point x="396.15999999999997" y="443.92" type="line"/>
      <point x="333.52" y="522"/>
      <point x="176.92000000000002" y="522"/>
      <point x="76" y="382.92" type="curve"/>
      <point x="76" y="173.07999999999998"/>
      <point x="176.92000000000002" y="34"/>
      <point x="333.52" y="34" type="curve"/>
      <point x="377.02" y="95.0"/>
      <point x="396.15999999999997" y="136.48000000000002"/>
      <point x="396.15999999999997" y="156.0" type="curve"/>
      <point x="376.0" y="182.84" type="line"/>
      <point x="316.12" y="58"/>
      <point x="100" y="199.92000000000002"/>
      <point x="100" y="278" type="curve"/>
      <point x="100" y="356.08"/>
      <point x="316.12" y="498"/>
      <point x="376.0" y="373.15999999999997" type="curve"/>
    </contour>
    <contour>
      <point x="225.76" y="246" type="curve"/>
      <point x="374.24" y="246" type="line"/>
      <point x="377.42116016" y="246"/>
      <point x="380" y="248.57883984"/>
      <point x="380" y="251.76" type="curve"/>
      <point x="380" y="264.24" type="line"/>
      <point x="380" y="267.42116016"/>
      <point x="377.42116016" y="270"/>
      <point x="374.24" y="270" type="curve"/>
      <point x="225.76" y="270" type="line"/>
      <point x="222.57883984" y="270"/>
      <point x="220" y="267.42116016"/>
      <point x="220" y="264.24" type="curve"/>
      <point x="220" y="251.76" type="line"/>
      <point x="220" y="248.57883984"/>
      <point x="222.57883984" y="246"/>
    </contour>
    <contour>
      <point x="38" y="0" type="line"/>
      <point x="138" y="0" type="line"/>
      <point x="138" y="18" type="line"/>
      <point x="38" y="18" type="line"/>
    </contour>
    <contour>
      <point x="362" y="0" type="line"/>
      <point x="462" y="0" type="line"/>
      <point x="462" y="18" type="line"/>
      <point x="362" y="18" type="line"/>
    </contour>
    <contour>
      <point x="205.55393370669577" y="561.2807825421938" type="line"/>
      <point x="281.5539337066958" y="639.2807825421938" type="line"/>
      <point x="294.4460662933042" y="626.7192174578062" type="line"/>
      <point x="218.44606629330423" y="548.7192174578062" type="line"/>
    </contour>
  </outline>
</glyph>
<glyph name="uni03AF" format="2">
  <advance width="290"/>
  <unicode hex="03AF"/>
  <outline>
    <contour>
      <point x="100.55393370669577" y="561.2807825421938" type="line"/>
      <point x="176.55393370669577" y="639.2807825421938" type="line"/>
      <point x="189.44606629330423" y="626.7192174578062" type="line"/>
      <point x="113.44606629330423" y="548.7192174578062" type="line"/>
    </contour>
    <component base="i"/>
  </outline>
</glyph>
<glyph name="uni03B1" format="2">
  <advance width="500"/>
  <unicode hex="03B1"/>
  <outline>
    <contour>
      <point x="359" y="246" type="curve"/>
      <point x="359" y="381.8620485"/>
      <point x="294.08128875" y="492"/>
      <point x="214" y="492" type="curve"/>
      <point x="133.91871125" y="492"/>
      <point x="69" y="381.8620485"/>
      <point x="69" y="246" type="curve"/>
      <point x="69" y="110.13795150000001"/>
      <point x="133.91871125" y="0"/>
      <point x="214" y="0" type="curve"/>
      <point x="294.08128875" y="0"/>
      <point x="359" y="110.13795150000001"/>
    </contour>
    <contour>
      <point x="335" y="246" type="curve"/>
      <point x="335" y="123.3927855"/>
      <point x="280.82645475" y="24"/>
      <point x="214" y="24" type="curve"/>
      <point x="147.17354525000002" y="24"/>
      <point x="93" y="123.3927855"/>
      <point x="93" y="246" type="curve"/>
      <point x="93" y="368.6072145"/>
      <point x="147.17354525000002" y="468"/>
      <point x="214" y="468" type="curve"/>
      <point x="280.82645475" y="468"/>
      <point x="335" y="368.6072145"/>
    </contour>
    <contour>
      <point x="371.72" y="0" type="curve"/>
      <point x="382.28" y="0" type="line"/>
      <point x="385.99135351999996" y="0"/>
      <point x="389" y="3.0086464800000003"/>
      <point x="389" y="6.720000000000001" type="curve"/>
      <point x="389" y="548.28" type="line"/>
      <point x="389" y="551.99135352"/>
      <point x="385.99135351999996" y="555"/>
      <point x="382.28" y="555" type="curve"/>
      <point x="371.72" y="555" type="line"/>
      <point x="368.00864648000004" y="555"/>
      <point x="365" y="551.99135352"/>
      <point x="365" y="548.28" type="curve"/>
      <point x="365" y="6.720000000000001" type="line"/>
      <point x="365" y="3.0086464800000003"/>
      <point x="368.00864648000004" y="0"/>
    </contour>
    <contour>
      <point x="365" y="0" type="line"/>
      <point x="430" y="0" type="line"/>
      <point x="430" y="24" type="line"/>
      <point x="365" y="24" type="line"/>
    </contour>
    <contour>
      <point x="38" y="0" type="line"/>
      <point x="138" y="0" type="line"/>
      <point x="138" y="18" type="line"/>
      <point x="38" y="18" type="line"/>
    </contour>
    <contour>
      <point x="362" y="0" type="line"/>
      <point x="462" y="0" type="line"/>
      <point x="462" y="18" type="line"/>
      <point x="362" y="18" type="line"/>
    </contour>
  </outline>
</glyph>
<glyph name="uni03B2" format="2">
  <advance width="500"/>
  <unicode hex="03B2"/>
  <outline>
    <contour>
      <point x="78.72" y="-210" type="curve"/>
      <point x="89.28" y="-210" type="line"/>
      <point x="92.99135352" y="-210"/>
      <point x="96" y="-206.99135352"/>
      <point x="96" y="-203.28" type="curve"/>
      <point x="96" y="753.28" type="line"/>
      <point x="96" y="756.99135352"/>
      <point x="92.99135352" y="760"/>
      <point x="89.28" y="760" type="curve"/>
      <point x="78.72" y="760" type="line"/>
      <point x="75.00864648" y="760"/>
      <point x="72" y="756.99135352"/>
      <point x="72" y="753.28" type="curve"/>
      <point x="72" y="-203.28" type="line"/>
      <point x="72" y="-206.99135352"/>
      <point x="75.00864648" y="-210"/>
    </contour>
    <contour>
      <point x="382" y="386" type="curve"/>
      <point x="382" y="478.783838"/>
      <point x="316.6335735" y="554"/>
      <point x="236" y="554" type="curve"/>
      <point x="155.3664265" y="554"/>
      <point x="90" y="478.783838"/>
      <point x="90" y="386" type="curve"/>
      <point x="90" y="293.216162"/>
      <point x="155.3664265" y="218"/>
      <point x="236" y="218" type="curve"/>
      <point x="316.6335735" y="218"/>
      <point x="382" y="293.216162"/>
    </contour>
    <contour>
      <point x="358" y="386" type="curve"/>
      <point x="358" y="306.470996"/>
      <point x="303.3787395" y="242"/>
      <point x="236" y="242" type="curve"/>
      <point x="168.6212605" y="242"/>
      <point x="114" y="306.470996"/>
      <point x="114" y="386" type="curve"/>
      <point x="114" y="465.529004"/>
      <point x="168.6212605" y="530"/>
      <point x="236" y="530" type="curve"/>
      <point x="303.3787395" y="530"/>
      <point x="358" y="465.529004"/>
    </contour>
    <contour>
      <point x="382" y="142" type="curve"/>
      <point x="382" y="224.8427125"/>
      <point x="316.6335735" y="292"/>
      <point x="236" y="292" type="curve"/>
      <point x="155.3664265" y="292"/>
      <point x="90" y="224.8427125"/>
      <point x="90" y="142" type="curve"/>
      <point x="90" y="59.157287499999995"/>
      <point x="155.3664265" y="-8"/>
      <point x="236" y="-8" type="curve"/>
      <point x="316.6335735" y="-8"/>
      <point x="382" y="59.157287499999995"/>
    </contour>
    <contour>
      <point x="358" y="142" type="curve"/>
      <point x="358" y="72.4121215"/>
      <point x="303.3787395" y="16"/>
      <point x="236" y="16" type="curve"/>
      <point x="168.6212605" y="16"/>
      <point x="114" y="72.4121215"/>
      <point x="114" y="142" type="curve"/>
      <point x="114" y="211.5878785"/>
      <point x="168.6212605" y="268"/>
      <point x="236" y="268" type="curve"/>
      <point x="303.3787395" y="268"/>
      <point x="358" y="211.5878785"/>
    </contour>
    <contour>
      <point x="38" y="0" type="line"/>
      <point x="138" y="0" type="line"/>
      <point x="138" y="18" type="line"/>
      <point x="38" y="18" type="line"/>
    </contour>
    <contour>
      <point x="362" y="0" type="line"/>
      <point x="462" y="0" type="line"/>
      <point x="462" y="18" type="line"/>
      <point x="362" y="18" type="line"/>
    </contour>
  </outline>
</glyph>
<glyph name="uni03B3" format="2">
  <advance width="500"/>
  <unicode hex="03B3"/>
  <outline>
    <contour>
      <point x="85.1968721710316" y="559.3162545784022" type="line"/>
      <point x="255.1968721710316" y="118.31625457840221" type="line"/>
      <point x="232.8031278289684" y="109.68374542159779" type="line"/>
      <point x="62.8031278289684" y="550.6837454215978" type="line"/>
    </contour>
    <contour>
      <point x="437.0924872024197" y="550.422148138684" type="line"/>
      <point x="255.0924872024197" y="109.42214813868392" type="line"/>
      <point x="232.9075127975803" y="118.57785186131608" type="line"/>
      <point x="414.9075127975803" y="559.577851861316" type="line"/>
    </contour>
    <contour>
      <point x="218.72" y="-210" type="curve"/>
      <point x="229.28" y="-210" type="line"/>
      <point x="232.99135352" y="-210"/>
      <point x="236" y="-206.99135352"/>
      <point x="236" y="-203.28" type="curve"/>
      <point x="236" y="-62.72" type="line"/>
      <point x="236" y="-59.008646479999996"/>
      <point x="232.99135352" y="-56"/>
      <point x="229.28" y="-56" type="curve"/>
      <point x="218.72" y="-56" type="line"/>
      <point x="215.00864648" y="-56"/>
      <point x="212" y="-59.008646479999996"/>
      <point x="212" y="-62.72" type="curve"/>
      <point x="212" y="-203.28" type="line"/>
      <point x="212" y="-206.99135352"/>
      <point x="215.00864648" y="-210"/>
    </contour>
    <contour>
      <point x="38" y="0" type="line"/>
      <point x="138" y="0" type="line"/>
      <point x="138" y="18" type="line"/>
      <point x="38" y="18" type="line"/>
    </contour>
    <contour>
      <point x="362" y="0" type="line"/>
      <point x="462" y="0" type="line"/>
      <point x="462" y="18" type="line"/>
      <point x="362" y="18" type="line"/>
    </contour>
  </outline>
</glyph>
<glyph name="uni03B4" format="2">
  <advance width="500"/>
  <unicode hex="03B4"/>
  <outline>
    <contour>
      <point x="396" y="226" type="curve"/>
      <point x="396" y="350.8163535"/>
      <point x="328.8427125" y="452"/>
      <point x="246" y="452" type="curve"/>
      <point x="163.1572875" y="452"/>
      <point x="96" y="350.8163535"/>
      <point x="96" y="226" type="curve"/>
      <point x="96" y="101.18364650000001"/>
      <point x="163.1572875" y="0"/>
      <point x="246" y="0" type="curve"/>
      <point x="328.8427125" y="0"/>
      <point x="396" y="101.18364650000001"/>
    </contour>
    <contour>
      <point x="372" y="226" type="curve"/>
      <point x="372" y="114.4384805"/>
      <point x="315.5878785" y="24"/>
      <point x="246" y="24" type="curve"/>
      <point x="176.4121215" y="24"/>
      <point x="120" y="114.4384805"/>
      <point x="120" y="226" type="curve"/>
      <point x="120" y="337.56151950000003"/>
      <point x="176.4121215" y="428"/>
      <point x="246" y="428" type="curve"/>
      <point x="315.5878785" y="428"/>
      <point x="372" y="337.56151950000003"/>
    </contour>
    <contour>
      <point x="154" y="420" type="line"/>
      <point x="120" y="620"/>
      <point x="220" y="748"/>
      <point x="374" y="706" type="curve"/>
      <point x="356" y="642" type="line"/>
      <point x="258" y="658"/>
      <point x="214" y="586"/>
      <point x="218" y="438" type="curve"/>
    </contour>
    <contour>
      <point x="38" y="0" type="line"/>
      <point x="138" y="0" type="line"/>
      <point x="138" y="18" type="line"/>
      <point x="38" y="18" type="line"/>
    </contour>
    <contour>
      <point x="362" y="0" type="line"/>
      <point x="462" y="0" type="line"/>
      <point x="462" y="18" type="line"/>
      <point x="362" y="18" type="line"/>
    </contour>
  </outline>
</glyph>
<glyph name="uni03B8" format="2">
  <advance width="500"/>
  <unicode hex="03B8"/>
  <outline>
    <contour>
      <point x="420" y="278" type="curve"/>
      <point x="420" y="431.53516049999996"/>
      <point x="343.88840749999997" y="556"/>
      <point x="250" y="556" type="curve"/>
      <point x="156.1115925" y="556"/>
      <point x="80" y="431.53516049999996"/>
      <point x="80" y="278" type="curve"/>
      <point x="80" y="124.46483950000001"/>
      <point x="156.1115925" y="0"/>
      <point x="250" y="0" type="curve"/>
      <point x="343.88840749999997" y="0"/>
      <point x="420" y="124.46483950000001"/>
    </contour>
    <contour>
      <point x="396" y="278" type="curve"/>
      <point x="396" y="137.7196735"/>
      <point x="330.6335735" y="24"/>
      <point x="250" y="24" type="curve"/>
      <point x="169.3664265" y="24"/>
      <point x="104" y="137.7196735"/>
      <point x="104" y="278" type="curve"/>
      <point x="104" y="418.2803265"/>
      <point x="169.3664265" y="532"/>
      <point x="250" y="532" type="curve"/>
      <point x="330.6335735" y="532"/>
      <point x="396" y="418.2803265"/>
    </contour>
    <contour>
      <point x="109.76" y="246" type="curve"/>
      <point x="390.24" y="246" type="line"/>
      <point x="393.42116016" y="246"/>
      <point x="396" y="248.57883984"/>
      <point x="396" y="251.76" type="curve"/>
      <point x="396" y="264.24" type="line"/>
      <point x="396" y="267.42116016"/>
      <point x="393.42116016" y="270"/>
      <point x="390.24" y="270" type="curve"/>
      <point x="109.76" y="270" type="line"/>
      <point x="106.57883984" y="270"/>
      <point x="104" y="267.42116016"/>
      <point x="104" y="264.24" type="curve"/>
      <point x="104" y="251.76" type="line"/>
      <point x="104" y="248.57883984"/>
      <point x="106.57883984" y="246"/>
    </contour>
    <contour>
      <point x="38" y="0" type="line"/>
      <point x="138" y="0" type="line"/>
      <point x="138" y="18" type="line"/>
      <point x="38" y="18" type="line"/>
    </contour>
    <contour>
      <point x="362" y="0" type="line"/>
      <point x="462" y="0" type="line"/>
      <point x="462" y="18" type="line"/>
      <point x="362" y="18" type="line"/>
    </contour>
  </outline>
</glyph>
<glyph name="uni03BC" format="2">
  <advance width="500"/>
  <unicode hex="03BC"/>
  <outline>
    <contour>
      <point x="66.72" y="-210" type="curve"/>
      <point x="77.28" y="-210" type="line"/>
      <point x="80.99135352" y="-210"/>
      <point x="84" y="-206.99135352"/>
      <point x="84" y="-203.28" type="curve"/>
      <point x="84" y="548.28" type="line"/>
      <point x="84" y="551.99135352"/>
      <point x="80.99135352" y="555"/>
      <point x="77.28" y="555" type="curve"/>
      <point x="66.72" y="555" type="line"/>
      <point x="63.008646479999996" y="555"/>
      <point x="60" y="551.99135352"/>
      <point x="60" y="548.28" type="curve"/>
      <point x="60" y="-203.28" type="line"/>
      <point x="60" y="-206.99135352"/>
      <point x="63.008646479999996" y="-210"/>
    </contour>
    <contour>
      <point x="326.72" y="0" type="curve"/>
      <point x="337.28" y="0" type="line"/>
      <point x="340.99135351999996" y="0"/>
      <point x="344" y="3.0086464800000003"/>
      <point x="344" y="6.720000000000001" type="curve"/>
      <point x="344" y="548.28" type="line"/>
      <point x="344" y="551.99135352"/>
      <point x="340.99135351999996" y="555"/>
      <point x="337.28" y="555" type="curve"/>
      <point x="326.72" y="555" type="line"/>
      <point x="323.00864648000004" y="555"/>
      <point x="320" y="551.99135352"/>
      <point x="320" y="548.28" type="curve"/>
      <point x="320" y="6.720000000000001" type="line"/>
      <point x="320" y="3.0086464800000003"/>
      <point x="323.00864648000004" y="0"/>
    </contour>
    <contour>
      <point x="124" y="180" type="line"/>
      <point x="124" y="70"/>
      <point x="160" y="48"/>
      <point x="234" y="48" type="curve"/>
      <point x="306" y="48"/>
      <point x="344" y="92"/>
      <point x="344" y="190" type="curve"/>
      <point x="280" y="190" type="line"/>
      <point x="280" y="106"/>
      <point x="264" y="54"/>
      <point x="234" y="54" type="curve"/>
      <point x="202" y="54"/>
      <point x="124" y="96"/>
      <point x="124" y="190" type="curve"/>
    </contour>
    <contour>
      <point x="38" y="0" type="line"/>
      <point x="138" y="0" type="line"/>
      <point x="138" y="18" type="line"/>
      <point x="38" y="18" type="line"/>
    </contour>
    <contour>
      <point x="362" y="0" type="line"/>
      <point x="462" y="0" type="line"/>
      <point x="462" y="18" type="line"/>
      <point x="362" y="18" type="line"/>
    </contour>
  </outline>
</glyph>
<glyph name="uni03C0" format="2">
  <advance width="500"/>
  <unicode hex="03C0"/>
  <outline>
    <contour>
      <point x="64.72" y="531" type="curve"/>
      <point x="435.28" y="531" type="line"/>
      <point x="438.99135351999996" y="531"/>
      <point x="442" y="534.00864648"/>
      <point x="442" y="537.72" type="curve"/>
      <point x="442" y="548.28" type="line"/>
      <point x="442" y="551.99135352"/>
      <point x="438.99135351999996" y="555"/>
      <point x="435.28" y="555" type="curve"/>
      <point x="64.72" y="555" type="line"/>
      <point x="61.008646479999996" y="555"/>
      <point x="58" y="551.99135352"/>
      <point x="58" y="548.28" type="curve"/>
      <point x="58" y="537.72" type="line"/>
      <point x="58" y="534.00864648"/>
      <point x="61.008646479999996" y="531"/>
    </contour>
    <contour>
      <point x="106.72" y="0" type="curve"/>
      <point x="117.28" y="0" type="line"/>
      <point x="120.99135352" y="0"/>
      <point x="124" y="3.0086464800000003"/>
      <point x="124" y="6.720000000000001" type="curve"/>
      <point x="124" y="548.28" type="line"/>
      <point x="124" y="551.99135352"/>
      <point x="120.99135352" y="555"/>
      <point x="117.28" y="555" type="curve"/>
      <point x="106.72" y="555" type="line"/>
      <point x="103.00864648" y="555"/>
      <point x="100" y="551.99135352"/>
      <point x="100" y="548.28" type="curve"/>
      <point x="100" y="6.720000000000001" type="line"/>
      <point x="100" y="3.0086464800000003"/>
      <point x="103.00864648" y="0"/>
    </contour>
    <contour>
      <point x="348.72" y="0" type="curve"/>
      <point x="359.28" y="0" type="line"/>
      <point x="362.99135351999996" y="0"/>
      <point x="366" y="3.0086464800000003"/>
      <point x="366" y="6.720000000000001" type="curve"/>
      <point x="366" y="548.28" type="line"/>
      <point x="366" y="551.99135352"/>
      <point x="362.99135351999996" y="555"/>
      <point x="359.28" y="555" type="curve"/>
      <point x="348.72" y="555" type="line"/>
      <point x="345.00864648000004" y="555"/>
      <point x="342" y="551.99135352"/>
      <point x="342" y="548.28" type="curve"/>
      <point x="342" y="6.720000000000001" type="line"/>
      <point x="342" y="3.0086464800000003"/>
      <point x="345.00864648000004" y="0"/>
    </contour>
    <contour>
      <point x="38" y="0" type="line"/>
      <point x="138" y="0" type="line"/>
      <point x="138" y="18" type="line"/>
      <point x="38" y="18" type="line"/>
    </contour>
    <contour>
      <point x="362" y="0" type="line"/>
      <point x="462" y="0" type="line"/>
      <point x="462" y="18" type="line"/>
      <point x="362" y="18" type="line"/>
    </contour>
  </outline>
</glyph>
<glyph name="uni03C1" format="2">
  <advance width="500"/>
  <unicode hex="03C1"/>
  <outline>
    <contour>
      <point x="72.72" y="-210" type="curve"/>
      <point x="83.28" y="-210" type="line"/>
      <point x="86.99135352" y="-210"/>
      <point x="90" y="-206.99135352"/>
      <point x="90" y="-203.28" type="curve"/>
      <point x="90" y="548.28" type="line"/>
      <point x="90" y="551.99135352"/>
      <point x="86.99135352" y="555"/>
      <point x="83.28" y="555" type="curve"/>
      <point x="72.72" y="555" type="line"/>
      <point x="69.00864648" y="555"/>
      <point x="66" y="551.99135352"/>
      <point x="66" y="548.28" type="curve"/>
      <point x="66" y="-203.28" type="line"/>
      <point x="66" y="-206.99135352"/>
      <point x="69.00864648" y="-210"/>
    </contour>
    <contour>
      <point x="382" y="278" type="curve"/>
      <point x="382" y="413.8620485"/>
      <point x="314.8427125" y="524"/>
      <point x="232" y="524" type="curve"/>
      <point x="149.1572875" y="524"/>
      <point x="82" y="413.8620485"/>
      <point x="82" y="278" type="curve"/>
      <point x="82" y="142.1379515"/>
      <point x="149.1572875" y="32"/>
      <point x="232" y="32" type="curve"/>
      <point x="314.8427125" y="32"/>
      <point x="382" y="142.1379515"/>
    </contour>
    <contour>
      <point x="358" y="278" type="curve"/>
      <point x="358" y="155.3927855"/>
      <point x="301.5878785" y="56"/>
      <point x="232" y="56" type="curve"/>
      <point x="162.4121215" y="56"/>
      <point x="106" y="155.3927855"/>
      <point x="106" y="278" type="curve"/>
      <point x="106" y="400.6072145"/>
      <point x="162.4121215" y="500"/>
      <point x="232" y="500" type="curve"/>
      <point x="301.5878785" y="500"/>
      <point x="358" y="400.6072145"/>
    </contour>
    <contour>
      <point x="38" y="0" type="line"/>
      <point x="138" y="0" type="line"/>
      <point x="138" y="18" type="line"/>
      <point x="38" y="18" type="line"/>
    </contour>
    <contour>
      <point x="362" y="0" type="line"/>
      <point x="462" y="0" type="line"/>
      <point x="462" y="18" type="line"/>
      <point x="362" y="18" type="line"/>
    </contour>
  </outline>
</glyph>
<glyph name="uni03C2" format="2">
  <advance width="500"/>
  <unicode hex="03C2"/>
  <outline>
    <contour>
      <point x="408.4" y="467.04" type="line"/>
      <point x="336.4" y="556"/>
      <point x="174.4" y="556"/>
      <point x="70" y="397.53999999999996" type="curve"/>
      <point x="70" y="158.46"/>
      <point x="174.4" y="0"/>
      <point x="336.4" y="0" type="curve"/>
      <point x="381.4" y="69.5"/>
      <point x="408.4" y="116.76000000000002"/>
      <point x="408.4" y="139.0" type="curve"/>
      <point x="387.28" y="169.57999999999998" type="line"/>
      <point x="318.4" y="24"/>
      <point x="94" y="189.04"/>
      <point x="94" y="278" type="curve"/>
      <point x="94" y="366.96000000000004"/>
      <point x="318.4" y="532"/>
      <point x="387.28" y="386.42" type="curve"/>
    </contour>
    <contour>
      <point x="306.72" y="-210" type="curve"/>
      <point x="317.28" y="-210" type="line"/>
      <point x="320.99135351999996" y="-210"/>
      <point x="324" y="-206.99135352"/>
      <point x="324" y="-203.28" type="curve"/>
      <point x="324" y="-54.72" type="line"/>
      <point x="324" y="-51.008646479999996"/>
      <point x="320.99135351999996" y="-48"/>
      <point x="317.28" y="-48" type="curve"/>
      <point x="306.72" y="-48" type="line"/>
      <point x="303.00864648000004" y="-48"/>
      <point x="300" y="-51.008646479999996"/>
      <point x="300" y="-54.72" type="curve"/>
      <point x="300" y="-203.28" type="line"/>
      <point x="300" y="-206.99135352"/>
      <point x="303.00864648000004" y="-210"/>
    </contour>
    <contour>
      <point x="38" y="0" type="line"/>
      <point x="138" y="0" type="line"/>
      <point x="138" y="18" type="line"/>
      <point x="38" y="18" type="line"/>
    </contour>
    <contour>
      <point x="362" y="0" type="line"/>
      <point x="462" y="0" type="line"/>
      <point x="462" y="18" type="line"/>
      <point x="362" y="18" type="line"/>
    </contour>
  </outline>
</glyph>
<glyph name="uni03C4" format="2">
  <advance width="500"/>
  <unicode hex="03C4"/>
  <outline>
    <contour>
      <point x="78.72" y="531" type="curve"/>
      <point x="421.28" y="531" type="line"/>
      <point x="424.99135351999996" y="531"/>
      <point x="428" y="534.00864648"/>
      <point x="428" y="537.72" type="curve"/>
      <point x="428" y="548.28" type="line"/>
      <point x="428" y="551.99135352"/>
      <point x="424.99135351999996" y="555"/>
      <point x="421.28" y="555" type="curve"/>
      <point x="78.72" y="555" type="line"/>
      <point x="75.00864648" y="555"/>
      <point x="72" y="551.99135352"/>
      <point x="72" y="548.28" type="curve"/>
      <point x="72" y="537.72" type="line"/>
      <point x="72" y="534.00864648"/>
      <point x="75.00864648" y="531"/>
    </contour>
    <contour>
      <point x="224.72" y="0" type="curve"/>
      <point x="235.28" y="0" type="line"/>
      <point x="238.99135352" y="0"/>
      <point x="242" y="3.0086464800000003"/>
      <point x="242" y="6.720000000000001" type="curve"/>
      <point x="242" y="548.28" type="line"/>
      <point x="242" y="551.99135352"/>
      <point x="238.99135352" y="555"/>
      <point x="235.28" y="555" type="curve"/>
      <point x="224.72" y="555" type="line"/>
      <point x="221.00864648" y="555"/>
      <point x="218" y="551.99135352"/>
      <point x="218" y="548.28" type="curve"/>
      <point x="218" y="6.720000000000001" type="line"/>
      <point x="218" y="3.0086464800000003"/>
      <point x="221.00864648" y="0"/>
    </contour>
    <contour>
      <point x="38" y="0" type="line"/>
      <point x="138" y="0" type="line"/>
      <point x="138" y="18" type="line"/>
      <point x="38" y="18" type="line"/>
    </contour>
    <contour>
      <point x="362" y="0" type="line"/>
      <point x="462" y="0" type="line"/>
      <point x="462" y="18" type="line"/>
      <point x="362" y="18" type="line"/>
    </contour>
  </outline>
</glyph>
<glyph name="uni03C6" format="2">
  <advance width="500"/>
  <unicode hex="03C6"/>
  <outline>
    <contour>
      <point x="428" y="278" type="curve"/>
      <point x="428" y="411.65290949999996"/>
      <point x="348.3066855" y="520"/>
      <point x="250" y="520" type="curve"/>
      <point x="151.69331449999999" y="520"/>
      <point x="72" y="411.65290949999996"/>
      <point x="72" y="278" type="curve"/>
      <point x="72" y="144.3470905"/>
      <point x="151.69331449999999" y="36"/>
      <point x="250" y="36" type="curve"/>
      <point x="348.3066855" y="36"/>
      <point x="428" y="144.3470905"/>
    </contour>
    <contour>
      <point x="404" y="278" type="curve"/>
      <point x="404" y="157.6019245"/>
      <point x="335.0518515" y="60"/>
      <point x="250" y="60" type="curve"/>
      <point x="164.9481485" y="60"/>
      <point x="96" y="157.6019245"/>
      <point x="96" y="278" type="curve"/>
      <point x="96" y="398.3980755"/>
      <point x="164.9481485" y="496"/>
      <point x="250" y="496" type="curve"/>
      <point x="335.0518515" y="496"/>
      <point x="404" y="398.3980755"/>
    </contour>
    <contour>
      <point x="244.72" y="-210" type="curve"/>
      <point x="255.28" y="-210" type="line"/>
      <point x="258.99135352" y="-210"/>
      <point x="262.0" y="-206.99135352"/>
      <point x="262.0" y="-203.28" type="curve"/>
      <point x="262.0" y="753.28" type="line"/>
      <point x="262.0" y="756.99135352"/>
      <point x="258.99135352" y="760"/>
      <point x="255.28" y="760" type="curve"/>
      <point x="244.72" y="760" type="line"/>
      <point x="241.00864648" y="760"/>
      <point x="238.0" y="756.99135352"/>
      <point x="238.0" y="753.28" type="curve"/>
      <point x="238.0" y="-203.28" type="line"/>
      <point x="238.0" y="-206.99135352"/>
      <point x="241.00864648" y="-210"/>
    </contour>
    <contour>
      <point x="38" y="0" type="line"/>
      <point x="138" y="0" type="line"/>
      <point x="138" y="18" type="line"/>
      <point x="38" y="18" type="line"/>
    </contour>
    <contour>
      <point x="362" y="0" type="line"/>
      <point x="462" y="0" type="line"/>
      <point x="462" y="18" type="line"/>
      <point x="362" y="18" type="line"/>
    </contour>
  </outline>
</glyph>
<glyph name="uni03C8" format="2">
  <advance width="500"/>
  <unicode hex="03C8"/>
  <outline>
    <contour>
      <point x="244.72" y="-210" type="curve"/>
      <point x="255.28" y="-210" type="line"/>
      <point x="258.99135352" y="-210"/>
      <point x="262.0" y="-206.99135352"/>
      <point x="262.0" y="-203.28" type="curve"/>
      <point x="262.0" y="548.28" type="line"/>
      <point x="262.0" y="551.99135352"/>
      <point x="258.99135352" y="555"/>
      <point x="255.28" y="555" type="curve"/>
      <point x="244.72" y="555" type="line"/>
      <point x="241.00864648" y="555"/>
      <point x="238.0" y="551.99135352"/>
      <point x="238.0" y="548.28" type="curve"/>
      <point x="238.0" y="-203.28" type="line"/>
      <point x="238.0" y="-206.99135352"/>
      <point x="241.00864648" y="-210"/>
    </contour>
    <contour>
      <point x="225.2" y="482.8" type="line"/>
      <point x="208.4" y="550"/>
      <point x="113.9" y="550"/>
      <point x="53" y="430.3" type="curve"/>
      <point x="53" y="249.7"/>
      <point x="113.9" y="130"/>
      <point x="208.4" y="130" type="curve"/>
      <point x="234.64999999999998" y="182.5"/>
      <point x="225.2" y="218.2"/>
      <point x="225.2" y="235.0" type="curve"/>
      <point x="209.84" y="258.1" type="line"/>
      <point x="197.9" y="154"/>
      <point x="77" y="272.8"/>
      <point x="77" y="340" type="curve"/>
      <point x="77" y="407.2"/>
      <point x="197.9" y="526"/>
      <point x="209.84" y="421.9" type="curve"/>
    </contour>
    <contour>
      <point x="409.2" y="482.8" type="line"/>
      <point x="392.4" y="550"/>
      <point x="297.9" y="550"/>
      <point x="237" y="430.3" type="curve"/>
      <point x="237" y="249.7"/>
      <point x="297.9" y="130"/>
      <point x="392.4" y="130" type="curve"/>
      <point x="418.65" y="182.5"/>
      <point x="409.2" y="218.2"/>
      <point x="409.2" y="235.0" type="curve"/>
      <point x="393.84000000000003" y="258.1" type="line"/>
      <point x="381.9" y="154"/>
      <point x="261" y="272.8"/>
      <point x="261" y="340" type="curve"/>
      <point x="261" y="407.2"/>
      <point x="381.9" y="526"/>
      <point x="393.84000000000003" y="421.9" type="curve"/>
    </contour>
    <contour>
      <point x="38" y="0" type="line"/>
      <point x="138" y="0" type="line"/>
      <point x="138" y="18" type="line"/>
      <point x="38" y="18" type="line"/>
    </contour>
    <contour>
      <point x="362" y="0" type="line"/>
      <point x="462" y="0" type="line"/>
      <point x="462" y="18" type="line"/>
      <point x="362" y="18" type="line"/>
    </contour>
  </outline>
</glyph>
<glyph name="uni03C9" format="2">
  <advance width="500"/>
  <unicode hex="03C9"/>
  <outline>
    <contour>
      <point x="62.72" y="0" type="curve"/>
      <point x="73.28" y="0" type="line"/>
      <point x="76.99135352" y="0"/>
      <point x="80" y="3.0086464800000003"/>
      <point x="80" y="6.720000000000001" type="curve"/>
      <point x="80" y="243.28" type="line"/>
      <point x="80" y="246.99135352"/>
      <point x="76.99135352" y="250"/>
      <point x="73.28" y="250" type="curve"/>
      <point x="62.72" y="250" type="line"/>
      <point x="59.008646479999996" y="250"/>
      <point x="56" y="246.99135352"/>
      <point x="56" y="243.28" type="curve"/>
      <point x="56" y="6.720000000000001" type="line"/>
      <point x="56" y="3.0086464800000003"/>
      <point x="59.008646479999996" y="0"/>
    </contour>
    <contour>
      <point x="394.72" y="0" type="curve"/>
      <point x="405.28" y="0" type="line"/>
      <point x="408.99135351999996" y="0"/>
      <point x="412" y="3.0086464800000003"/>
      <point x="412" y="6.720000000000001" type="curve"/>
      <point x="412" y="243.28" type="line"/>
      <point x="412" y="246.99135352"/>
      <point x="408.99135351999996" y="250"/>
      <point x="405.28" y="250" type="curve"/>
      <point x="394.72" y="250" type="line"/>
      <point x="391.00864648000004" y="250"/>
      <point x="388" y="246.99135352"/>
      <point x="388" y="243.28" type="curve"/>
      <point x="388" y="6.720000000000001" type="line"/>
      <point x="388" y="3.0086464800000003"/>
      <point x="391.00864648000004" y="0"/>
    </contour>
    <contour>
      <point x="56" y="248" type="line"/>
      <point x="56" y="480"/>
      <point x="154" y="560"/>
      <point x="250" y="394" type="curve"/>
      <point x="346" y="560"/>
      <point x="444" y="480"/>
      <point x="444" y="248" type="curve"/>
      <point x="380" y="248" type="line"/>
      <point x="380" y="413"/>
      <point x="326" y="452"/>
      <point x="250" y="276" type="curve"/>
      <point x="174" y="452"/>
      <point x="120" y="413"/>
      <point x="120" y="248" type="curve"/>
    </contour>
    <contour>
      <point x="38" y="0" type="line"/>
      <point x="138" y="0" type="line"/>
      <point x="138" y="18" type="line"/>
      <point x="38" y="18" type="line"/>
    </contour>
    <contour>
      <point x="362" y="0" type="line"/>
      <point x="462" y="0" type="line"/>
      <point x="462" y="18" type="line"/>
      <point x="362" y="18" type="line"/>
    </contour>
  </outline>
</glyph>
<glyph name="uni0407" format="2">
  <advance width="290"/>
  <unicode hex="0407"/>
  <outline>
    <contour>
      <point x="116.0" y="764" type="curve"/>
      <point x="116.0" y="768.97056275"/>
      <point x="111.97056275" y="773.0"/>
      <point x="107.0" y="773.0" type="curve"/>
      <point x="102.02943725" y="773.0"/>
      <point x="98.0" y="768.97056275"/>
      <point x="98.0" y="764" type="curve"/>
      <point x="98.0" y="759.02943725"/>
      <point x="102.02943725" y="755.0"/>
      <point x="107.0" y="755.0" type="curve"/>
      <point x="111.97056275" y="755.0"/>
      <point x="116.0" y="759.02943725"/>
    </contour>
    <contour>
      <point x="192.0" y="764" type="curve"/>
      <point x="192.0" y="768.97056275"/>
      <point x="187.97056275" y="773.0"/>
      <point x="183.0" y="773.0" type="curve"/>
      <point x="178.02943725" y="773.0"/>
      <point x="174.0" y="768.97056275"/>
      <point x="174.0" y="764" type="curve"/>
      <point x="174.0" y="759.02943725"/>
      <point x="178.02943725" y="755.0"/>
      <point x="183.0" y="755.0" type="curve"/>
      <point x="187.97056275" y="755.0"/>
      <point x="192.0" y="759.02943725"/>
    </contour>
    <component base="I"/>
  </outline>
</glyph>
<glyph name="uni0414" format="2">
  <advance width="500"/>
  <unicode hex="0414"/>
  <outline>
    <contour>
      <point x="80.1782034196579" y="2.0603702611453354" type="line"/>
      <point x="202.1782034196579" y="702.0603702611453" type="line"/>
      <point x="225.8217965803421" y="697.9396297388547" type="line"/>
      <point x="103.8217965803421" y="-2.0603702611453354" type="line"/>
    </contour>
    <contour>
      <point x="396.1782034196579" y="-2.0603702611453354" type="line"/>
      <point x="274.1782034196579" y="697.9396297388547" type="line"/>
      <point x="297.8217965803421" y="702.0603702611453" type="line"/>
      <point x="419.8217965803421" y="2.0603702611453354" type="line"/>
    </contour>
    <contour>
      <point x="58.72" y="0" type="curve"/>
      <point x="441.28" y="0" type="line"/>
      <point x="444.99135351999996" y="0"/>
      <point x="448" y="3.0086464800000003"/>
      <point x="448" y="6.720000000000001" type="curve"/>
      <point x="448" y="17.28" type="line"/>
      <point x="448" y="20.99135352"/>
      <point x="444.99135351999996" y="24"/>
      <point x="441.28" y="24" type="curve"/>
      <point x="58.72" y="24" type="line"/>
      <point x="55.008646479999996" y="24"/>
      <point x="52" y="20.99135352"/>
      <point x="52" y="17.28" type="curve"/>
      <point x="52" y="6.720000000000001" type="line"/>
      <point x="52" y="3.0086464800000003"/>
      <point x="55.008646479999996" y="0"/>
    </contour>
    <contour>
      <point x="18" y="0" type="line"/>
      <point x="138" y="0" type="line"/>
      <point x="138" y="18" type="line"/>
      <point x="18" y="18" type="line"/>
    </contour>
    <contour>
      <point x="18" y="682" type="line"/>
      <point x="138" y="682" type="line"/>
      <point x="138" y="700" type="line"/>
      <point x="18" y="700" type="line"/>
    </contour>
    <contour>
      <point x="362" y="0" type="line"/>
      <point x="482" y="0" type="line"/>
      <point x="482" y="18" type="line"/>
      <point x="362" y="18" type="line"/>
    </contour>
    <contour>
      <point x="362" y="682" type="line"/>
      <point x="482" y="682" type="line"/>
      <point x="482" y="700" type="line"/>
      <point x="362" y="700" type="line"/>
    </contour>
  </outline>
</glyph>
<glyph name="uni0416" format="2">
  <advance width="500"/>
  <unicode hex="0416"/>
  <outline>
    <contour>
      <point x="244.72" y="0" type="curve"/>
      <point x="255.28" y="0" type="line"/>
      <point x="258.99135352" y="0"/>
      <point x="262.0" y="3.0086464800000003"/>
      <point x="262.0" y="6.720000000000001" type="curve"/>
      <point x="262.0" y="693.28" type="line"/>
      <point x="262.0" y="696.99135352"/>
      <point x="258.99135352" y="700"/>
      <point x="255.28" y="700" type="curve"/>
      <point x="244.72" y="700" type="line"/>
      <point x="241.00864648" y="700"/>
      <point x="238.0" y="696.99135352"/>
      <point x="238.0" y="693.28" type="curve"/>
      <point x="238.0" y="6.720000000000001" type="line"/>
      <point x="238.0" y="3.0086464800000003"/>
      <point x="241.00864648" y="0"/>
    </contour>
    <contour>
      <point x="84.72084592318932" y="705.3910539499466" type="line"/>
      <point x="436.7208459231893" y="5.391053949946626" type="line"/>
      <point x="415.2791540768107" y="-5.391053949946626" type="line"/>
      <point x="63.279154076810684" y="694.6089460500534" type="line"/>
    </contour>
    <contour>
      <point x="436.7208459231893" y="694.6089460500534" type="line"/>
      <point x="84.72084592318932" y="-5.391053949946626" type="line"/>
      <point x="63.279154076810684" y="5.391053949946626" type="line"/>
      <point x="415.2791540768107" y="705.3910539499466" type="line"/>
    </contour>
    <contour>
      <point x="18" y="0" type="line"/>
      <point x="138" y="0" type="line"/>
      <point x="138" y="18" type="line"/>
      <point x="18" y="18" type="line"/>
    </contour>
    <contour>
      <point x="18" y="682" type="line"/>
      <point x="138" y="682" type="line"/>
      <point x="138" y="700" type="line"/>
      <point x="18" y="700" type="line"/>
    </contour>
    <contour>
      <point x="362" y="0" type="line"/>
      <point x="482" y="0" type="line"/>
      <point x="482" y="18" type="line"/>
      <point x="362" y="18" type="line"/>
    </contour>
    <contour>
      <point x="362" y="682" type="line"/>
      <point x="482" y="682" type="line"/>
      <point x="482" y="700" type="line"/>
      <point x="362" y="700" type="line"/>
    </contour>
  </outline>
</glyph>
<glyph name="uni0417" format="2">
  <advance width="500"/>
  <unicode hex="0417"/>
  <outline>
    <contour>
      <point x="416.6" y="697.6" type="line"/>
      <point x="285.0" y="701.92"/>
      <point x="78.6" y="698.08"/>
      <point x="77.4" y="434.0" type="curve"/>
      <point x="76.2" y="357.0"/>
      <point x="229.0" y="351.92"/>
      <point x="246.5" y="350" type="curve"/>
      <point x="285.0" y="266.0"/>
      <point x="424.04" y="329.0"/>
      <point x="423.08" y="203.0" type="curve"/>
      <point x="422.12" y="1.2000000000000002"/>
      <point x="208.0" y="-1.44"/>
      <point x="76.2" y="3.3600000000000003" type="curve"/>
      <point x="78.84" y="23.52" type="line"/>
      <point x="215.0" y="14.879999999999999"/>
      <point x="409.4" y="20.4"/>
      <point x="411.08" y="189.0" type="curve"/>
      <point x="412.04" y="315.0"/>
      <point x="267.5" y="308.0"/>
      <point x="236.0" y="350.72" type="curve"/>
      <point x="190.5" y="353.6"/>
      <point x="86.04" y="352.88"/>
      <point x="87.48" y="448.0" type="curve"/>
      <point x="88.92" y="685.12"/>
      <point x="278.0" y="689.2"/>
      <point x="417.32" y="676.48" type="curve"/>
    </contour>
    <contour>
      <point x="18" y="0" type="line"/>
      <point x="138" y="0" type="line"/>
      <point x="138" y="18" type="line"/>
      <point x="18" y="18" type="line"/>
    </contour>
    <contour>
      <point x="18" y="682" type="line"/>
      <point x="138" y="682" type="line"/>
      <point x="138" y="700" type="line"/>
      <point x="18" y="700" type="line"/>
    </contour>
    <contour>
      <point x="362" y="0" type="line"/>
      <point x="482" y="0" type="line"/>
      <point x="482" y="18" type="line"/>
      <point x="362" y="18" type="line"/>
    </contour>
    <contour>
      <point x="362" y="682" type="line"/>
      <point x="482" y="682" type="line"/>
      <point x="482" y="700" type="line"/>
      <point x="362" y="700" type="line"/>
    </contour>
  </outline>
</glyph>
<glyph name="uni0426" format="2">
  <advance width="500"/>
  <unicode hex="0426"/>
  <outline>
    <contour>
      <point x="64.72" y="150" type="curve"/>
      <point x="75.28" y="150" type="line"/>
      <point x="78.99135352" y="150"/>
      <point x="82" y="153.00864648"/>
      <point x="82" y="156.72" type="curve"/>
      <point x="82" y="693.28" type="line"/>
      <point x="82" y="696.99135352"/>
      <point x="78.99135352" y="700"/>
      <point x="75.28" y="700" type="curve"/>
      <point x="64.72" y="700" type="line"/>
      <point x="61.008646479999996" y="700"/>
      <point x="58" y="696.99135352"/>
      <point x="58" y="693.28" type="curve"/>
      <point x="58" y="156.72" type="line"/>
      <point x="58" y="153.00864648"/>
      <point x="61.008646479999996" y="150"/>
    </contour>
    <contour>
      <point x="382.72" y="0" type="curve"/>
      <point x="393.28" y="0" type="line"/>
      <point x="396.99135351999996" y="0"/>
      <point x="400" y="3.0086464800000003"/>
      <point x="400" y="6.720000000000001" type="curve"/>
      <point x="400" y="693.28" type="line"/>
      <point x="400" y="696.99135352"/>
      <point x="396.99135351999996" y="700"/>
      <point x="393.28" y="700" type="curve"/>
      <point x="382.72" y="700" type="line"/>
      <point x="379.00864648000004" y="700"/>
      <point x="376" y="696.99135352"/>
      <point x="376" y="693.28" type="curve"/>
      <point x="376" y="6.720000000000001" type="line"/>
      <point x="376" y="3.0086464800000003"/>
      <point x="379.00864648000004" y="0"/>
    </contour>
    <contour>
      <point x="58" y="0" type="line"/>
      <point x="440" y="0" type="line"/>
      <point x="440" y="24" type="line"/>
      <point x="58" y="24" type="line"/>
    </contour>
    <contour>
      <point x="382.72" y="-210" type="curve"/>
      <point x="393.28" y="-210" type="line"/>
      <point x="396.99135351999996" y="-210"/>
      <point x="400" y="-206.99135352"/>
      <point x="400" y="-203.28" type="curve"/>
      <point x="400" y="-56.72" type="line"/>
      <point x="400" y="-53.008646479999996"/>
      <point x="396.99135351999996" y="-50"/>
      <point x="393.28" y="-50" type="curve"/>
      <point x="382.72" y="-50" type="line"/>
      <point x="379.00864648000004" y="-50"/>
      <point x="376" y="-53.008646479999996"/>
      <point x="376" y="-56.72" type="curve"/>
      <point x="376" y="-203.28" type="line"/>
      <point x="376" y="-206.99135352"/>
      <point x="379.00864648000004" y="-210"/>
    </contour>
    <contour>
      <point x="18" y="0" type="line"/>
      <point x="138" y="0" type="line"/>
      <point x="138" y="18" type="line"/>
      <point x="18" y="18" type="line"/>
    </contour>
    <contour>
      <point x="18" y="682" type="line"/>
      <point x="138" y="682" type="line"/>
      <point x="138" y="700" type="line"/>
      <point x="18" y="700" type="line"/>
    </contour>
    <contour>
      <point x="362" y="0" type="line"/>
      <point x="482" y="0" type="line"/>
      <point x="482" y="18" type="line"/>
      <point x="362" y="18" type="line"/>
    </contour>
    <contour>
      <point x="362" y="682" type="line"/>
      <point x="482" y="682" type="line"/>
      <point x="482" y="700" type="line"/>
      <point x="362" y="700" type="line"/>
    </contour>
  </outline>
</glyph>
<glyph name="uni0427" format="2">
  <advance width="500"/>
  <unicode hex="0427"/>
  <outline>
    <contour>
      <point x="64.72" y="330" type="curve"/>
      <point x="75.28" y="330" type="line"/>
      <point x="78.99135352" y="330"/>
      <point x="82" y="333.00864648000004"/>
      <point x="82" y="336.72" type="curve"/>
      <point x="82" y="693.28" type="line"/>
      <point x="82" y="696.99135352"/>
      <point x="78.99135352" y="700"/>
      <point x="75.28" y="700" type="curve"/>
      <point x="64.72" y="700" type="line"/>
      <point x="61.008646479999996" y="700"/>
      <point x="58" y="696.99135352"/>
      <point x="58" y="693.28" type="curve"/>
      <point x="58" y="336.72" type="line"/>
      <point x="58" y="333.00864648000004"/>
      <point x="61.008646479999996" y="330"/>
    </contour>
    <contour>
      <point x="382.72" y="0" type="curve"/>
      <point x="393.28" y="0" type="line"/>
      <point x="396.99135351999996" y="0"/>
      <point x="400" y="3.0086464800000003"/>
      <point x="400" y="6.720000000000001" type="curve"/>
      <point x="400" y="693.28" type="line"/>
      <point x="400" y="696.99135352"/>
      <point x="396.99135351999996" y="700"/>
      <point x="393.28" y="700" type="curve"/>
      <point x="382.72" y="700" type="line"/>
      <point x="379.00864648000004" y="700"/>
      <point x="376" y="696.99135352"/>
      <point x="376" y="693.28" type="curve"/>
      <point x="376" y="6.720000000000001" type="line"/>
      <point x="376" y="3.0086464800000003"/>
      <point x="379.00864648000004" y="0"/>
    </contour>
    <contour>
      <point x="64.72" y="300" type="curve"/>
      <point x="433.28" y="300" type="line"/>
      <point x="436.99135351999996" y="300"/>
      <point x="440" y="303.00864648000004"/>
      <point x="440" y="306.72" type="curve"/>
      <point x="440" y="317.28" type="line"/>
      <point x="440" y="320.99135351999996"/>
      <point x="436.99135351999996" y="324"/>
      <point x="433.28" y="324" type="curve"/>
      <point x="64.72" y="324" type="line"/>
      <point x="61.008646479999996" y="324"/>
      <point x="58" y="320.99135351999996"/>
      <point x="58" y="317.28" type="curve"/>
      <point x="58" y="306.72" type="line"/>
      <point x="58" y="303.00864648000004"/>
      <point x="61.008646479999996" y="300"/>
    </contour>
    <contour>
      <point x="18" y="0" type="line"/>
      <point x="138" y="0" type="line"/>
      <point x="138" y="18" type="line"/>
      <point x="18" y="18" type="line"/>
    </contour>
    <contour>
      <point x="18" y="682" type="line"/>
      <point x="138" y="682" type="line"/>
      <point x="138" y="700" type="line"/>
      <point x="18" y="700" type="line"/>
    </contour>
    <contour>
      <point x="362" y="0" type="line"/>
      <point x="482" y="0" type="line"/>
      <point x="482" y="18" type="line"/>
      <point x="362" y="18" type="line"/>
    </contour>
    <contour>
      <point x="362" y="682" type="line"/>
      <point x="482" y="682" type="line"/>
      <point x="482" y="700" type="line"/>
      <point x="362" y="700" type="line"/>
    </contour>
  </outline>
</glyph>
